<svg width="120" height="68" viewBox="0 0 120 68" fill="none" xmlns="http://www.w3.org/2000/svg">
<path d="M64.6688 15.5892C79.6592 19.6059 92.6124 25.3838 101.436 31.4463C105.851 34.4801 109.185 37.5535 111.233 40.4713C113.286 43.3948 113.968 46.0371 113.36 48.3062C112.752 50.5754 110.84 52.5227 107.601 54.0282C104.368 55.5307 99.9439 56.5255 94.6032 56.9452C83.9308 57.7838 69.8241 56.3111 54.8336 52.2944C39.8432 48.2777 26.89 42.4998 18.0668 36.4373C13.6514 33.4035 10.3176 30.3301 8.26896 27.4123C6.21631 24.4888 5.53429 21.8465 6.14231 19.5773C6.75032 17.3082 8.66212 15.3609 11.9015 13.8554C15.1346 12.3528 19.5585 11.3581 24.8992 10.9384C35.5715 10.0998 49.6783 11.5725 64.6688 15.5892Z" stroke="black" stroke-width="2"/>
<path d="M20.7847 24.4948C21.1864 22.9957 21.973 21.9144 23.1684 21.2243C24.3637 20.5342 25.6471 20.3811 27.0226 20.7497C28.4598 21.1348 29.4495 21.8306 30.0182 22.8609C30.591 23.8758 30.7659 25.0159 30.5161 26.2575L28.6408 25.8379C28.7581 25.0908 28.661 24.4022 28.3495 23.7721C28.0421 23.1265 27.448 22.6857 26.567 22.4497C24.8361 21.9859 23.3404 22.9931 22.7938 25.0331C22.2472 27.0732 23.0389 28.6933 24.7698 29.1571C25.6507 29.3931 26.3857 29.3084 26.9705 28.9185C27.5595 28.5132 27.9879 27.9654 28.2598 27.2597L30.0937 27.8339C29.6892 29.0341 28.9677 29.9341 27.9601 30.542C26.9565 31.1344 25.7516 31.2422 24.3143 30.8571C22.9388 30.4885 21.9039 29.7143 21.2138 28.519C20.5236 27.3236 20.383 25.9939 20.7847 24.4948ZM40.6595 29.8202C40.2578 31.3193 39.4711 32.4006 38.2758 33.0907C37.0804 33.7808 35.7816 33.9298 34.3752 33.5529C32.9688 33.1761 31.9031 32.3936 31.2129 31.1982C30.5228 30.0029 30.3821 28.6732 30.7838 27.174C31.1855 25.6749 31.9722 24.5937 33.1675 23.9036C34.3629 23.2134 35.6771 23.0686 37.0835 23.4455C38.4899 23.8223 39.5402 24.6007 40.2304 25.796C40.9205 26.9914 41.0611 28.3211 40.6595 29.8202ZM38.6658 29.286C39.2124 27.246 38.4208 25.6259 36.628 25.1455C34.8352 24.6651 33.3396 25.6724 32.793 27.7124C32.2463 29.7524 33.038 31.3725 34.8308 31.8529C36.6235 32.3333 38.1192 31.326 38.6658 29.286ZM43.119 32.1026L42.2204 35.4563L40.304 34.9428L42.9129 25.2062L46.7921 26.2457C49.2649 26.9082 50.3916 28.4525 49.8491 30.477C49.3066 32.5016 47.5546 33.2911 45.0818 32.6285L43.119 32.1026ZM43.5414 30.5262L45.4424 31.0355C46.8797 31.4207 47.6779 31.0382 47.9595 29.9873C48.2411 28.9364 47.7493 28.1751 46.312 27.79L44.4111 27.2807L43.5414 30.5262ZM54.0894 32.6237L57.7451 29.1805L59.8315 29.7396L54.4579 34.7101L53.4516 38.4657L51.5661 37.9604L52.5724 34.2049L50.404 27.2135L52.5523 27.7891L54.0894 32.6237Z" fill="black"/>
<g clip-path="url(#clip0_520_187)">
<path d="M92.8858 39.714C93.6489 36.8571 94.002 35.366 93.4421 34.1302C93.334 33.8915 93.2026 33.6641 93.05 33.4511C92.2164 32.2878 90.6286 31.8623 87.4532 31.0115C84.2777 30.1606 82.69 29.7352 81.3863 30.3258C81.1477 30.434 80.9202 30.5653 80.7072 30.7179C79.5439 31.5516 79.1184 33.1393 78.2676 36.3148C77.4167 39.4902 76.9913 41.0779 77.582 42.3816C77.6901 42.6203 77.8214 42.8477 77.974 43.0607C78.7643 44.1635 80.2322 44.6032 83.0879 45.3708" stroke="black" stroke-width="1.5" stroke-linecap="round" stroke-linejoin="round"/>
<path d="M90.1822 38.2122C89.7821 38.105 89.3708 38.3425 89.2636 38.7426C89.1564 39.1427 89.3938 39.5539 89.7939 39.6611L89.9881 38.9367L90.1822 38.2122ZM92.6917 40.4376C93.0918 40.5448 93.5031 40.3073 93.6103 39.9072C93.7175 39.5071 93.48 39.0959 93.0799 38.9887L92.8858 39.7131L92.6917 40.4376ZM84.5888 42.6663C84.696 42.2662 84.4585 41.855 84.0584 41.7478C83.6583 41.6406 83.2471 41.878 83.1399 42.2781L83.8643 42.4722L84.5888 42.6663ZM82.3634 45.1759C82.2562 45.576 82.4937 45.9872 82.8938 46.0944C83.2939 46.2016 83.7051 45.9642 83.8123 45.5641L83.0879 45.37L82.3634 45.1759ZM87.4368 39.0229C87.8474 39.0772 88.2243 38.7883 88.2786 38.3777C88.3328 37.967 88.0439 37.5901 87.6333 37.5359L87.535 38.2794L87.4368 39.0229ZM85.7264 38.4433L85.416 37.7605L85.416 37.7605L85.7264 38.4433ZM83.9688 39.2415C83.7849 39.6126 83.9367 40.0626 84.3078 40.2465C84.679 40.4304 85.1289 40.2786 85.3128 39.9074L84.6408 39.5744L83.9688 39.2415ZM96.4493 42.8914C96.423 43.3048 96.7368 43.6612 97.1502 43.6876C97.5636 43.7139 97.92 43.4001 97.9463 42.9867L97.1978 42.9391L96.4493 42.8914ZM96.8233 41.4167L96.2131 41.8528L96.2131 41.8528L96.8233 41.4167ZM95.6255 39.6774C95.2428 39.519 94.8041 39.701 94.6458 40.0838C94.4875 40.4665 94.6694 40.9052 95.0522 41.0635L95.3389 40.3704L95.6255 39.6774ZM92.0725 52.1839C91.6618 52.1296 91.285 52.4185 91.2307 52.8292C91.1764 53.2398 91.4653 53.6167 91.8759 53.671L91.9742 52.9275L92.0725 52.1839ZM93.7829 52.7636L94.0932 53.4463L94.0932 53.4463L93.7829 52.7636ZM95.5405 51.9654C95.7244 51.5942 95.5726 51.1443 95.2014 50.9604C94.8303 50.7765 94.3803 50.9283 94.1964 51.2994L94.8685 51.6324L95.5405 51.9654ZM83.0599 48.3154C83.0862 47.902 82.7724 47.5456 82.3591 47.5193C81.9457 47.493 81.5892 47.8067 81.5629 48.2201L82.3114 48.2678L83.0599 48.3154ZM82.686 49.7902L83.2961 49.354L83.2961 49.354L82.686 49.7902ZM83.8837 51.5295C84.2665 51.6878 84.7051 51.5058 84.8634 51.1231C85.0218 50.7403 84.8398 50.3017 84.457 50.1434L84.1704 50.8364L83.8837 51.5295ZM86.8175 50.7693C86.4174 50.6621 86.0062 50.8995 85.899 51.2996C85.7918 51.6997 86.0292 52.1109 86.4293 52.2182L86.6234 51.4937L86.8175 50.7693ZM89.3271 52.9946C89.7272 53.1018 90.1384 52.8644 90.2456 52.4643C90.3528 52.0642 90.1154 51.6529 89.7153 51.5457L89.5212 52.2702L89.3271 52.9946ZM97.1458 46.031C97.253 45.6309 97.0156 45.2196 96.6155 45.1124C96.2154 45.0052 95.8041 45.2426 95.6969 45.6427L96.4214 45.8369L97.1458 46.031ZM94.9205 48.5405C94.8133 48.9406 95.0507 49.3519 95.4508 49.4591C95.8509 49.5663 96.2621 49.3288 96.3694 48.9287L95.6449 48.7346L94.9205 48.5405ZM89.9881 38.9367L89.7939 39.6611L92.6917 40.4376L92.8858 39.7131L93.0799 38.9887L90.1822 38.2122L89.9881 38.9367ZM83.8643 42.4722L83.1399 42.2781L82.3634 45.1759L83.0879 45.37L83.8123 45.5641L84.5888 42.6663L83.8643 42.4722ZM87.535 38.2794L87.6333 37.5359C86.8179 37.4281 86.0904 37.454 85.416 37.7605L85.7264 38.4433L86.0367 39.1261C86.3497 38.9838 86.7564 38.933 87.4368 39.0229L87.535 38.2794ZM84.6408 39.5744L85.3128 39.9074C85.53 39.469 85.7479 39.2573 86.0367 39.1261L85.7264 38.4433L85.416 37.7605C84.7329 38.071 84.2953 38.5824 83.9688 39.2415L84.6408 39.5744ZM97.1978 42.9391L97.9463 42.9867C97.993 42.2527 97.8698 41.591 97.4334 40.9805L96.8233 41.4167L96.2131 41.8528C96.3976 42.1109 96.4804 42.4031 96.4493 42.8914L97.1978 42.9391ZM95.3389 40.3704L95.0522 41.0635C95.6864 41.3258 96.0132 41.5731 96.2131 41.8528L96.8233 41.4167L97.4334 40.9805C97.0027 40.3779 96.3856 39.9917 95.6255 39.6774L95.3389 40.3704ZM91.9742 52.9275L91.8759 53.671C92.6914 53.7788 93.4189 53.7528 94.0932 53.4463L93.7829 52.7636L93.4726 52.0808C93.1595 52.2231 92.7528 52.2738 92.0725 52.1839L91.9742 52.9275ZM94.8685 51.6324L94.1964 51.2994C93.9792 51.7379 93.7614 51.9495 93.4726 52.0808L93.7829 52.7636L94.0932 53.4463C94.7763 53.1359 95.2139 52.6245 95.5405 51.9654L94.8685 51.6324ZM82.3114 48.2678L81.5629 48.2201C81.5162 48.9542 81.6395 49.6158 82.0758 50.2263L82.686 49.7902L83.2961 49.354C83.1116 49.0959 83.0288 48.8037 83.0599 48.3154L82.3114 48.2678ZM84.1704 50.8364L84.457 50.1434C83.8229 49.8811 83.4961 49.6337 83.2961 49.354L82.686 49.7902L82.0758 50.2263C82.5066 50.8289 83.1236 51.2151 83.8837 51.5295L84.1704 50.8364ZM86.6234 51.4937L86.4293 52.2182L89.3271 52.9946L89.5212 52.2702L89.7153 51.5457L86.8175 50.7693L86.6234 51.4937ZM96.4214 45.8369L95.6969 45.6427L94.9205 48.5405L95.6449 48.7346L96.3694 48.9287L97.1458 46.031L96.4214 45.8369Z" fill="black"/>
</g>
<defs>
<clipPath id="clip0_520_187">
<rect width="24" height="24" fill="white" transform="translate(78.7947 26.6211) rotate(15)"/>
</clipPath>
</defs>
</svg>
