<svg width="71" height="84" viewBox="0 0 71 84" fill="none" xmlns="http://www.w3.org/2000/svg">
<path d="M6.76642 82.4624L5.03366 83.4612L-0.000154069 74.7281L6.25164 71.1245L7.08262 72.5662L2.56358 75.171L3.90593 77.4998L7.39918 75.4863L8.21418 76.9002L4.72093 78.9137L6.76642 82.4624ZM15.0161 72.0557L16.3551 73.0436L11.8807 79.1076L3.76969 73.1228L8.15855 67.1747L9.49751 68.1627L6.27712 72.5272L8.24693 73.9806L10.7739 70.556L12.0999 71.5344L9.57302 74.9591L11.7102 76.536L15.0161 72.0557ZM9.88849 66.3778L13.1497 68.7937L13.946 65.8267L9.90508 66.3159L9.88849 66.3778ZM18.2591 65.3111L15.5871 65.6376L14.4756 69.7791L16.6333 71.3687L16.1107 73.3158L7.43286 66.7624L8.00935 64.6144L18.8107 63.2558L18.2591 65.3111ZM19.9596 58.9752L19.4411 60.9068L11.3128 58.7253L10.3879 62.1713L8.7808 61.74L11.1614 52.8699L12.7686 53.3012L11.8312 56.7936L19.9596 58.9752ZM22.4141 50.5703C22.1031 51.7293 21.5286 52.6353 20.6948 53.273C19.861 53.9107 18.7333 54.0387 17.327 53.6613L11.3776 52.0645L11.8919 50.1484L17.6404 51.6912C19.3094 52.1391 20.381 51.6647 20.7916 50.1348C21.2063 48.5895 20.5317 47.6464 18.8628 47.1985L13.0988 45.6515L13.6172 43.7199L19.5666 45.3166C20.9729 45.694 21.885 46.3695 22.2833 47.3545C22.6816 48.3394 22.7252 49.4113 22.4141 50.5703ZM19.0909 41.7809L19.6923 39.5402C20.0697 38.134 19.7803 37.3605 18.7295 37.0785C17.7559 36.8172 17.01 37.3128 16.6326 38.719L16.0312 40.9597L19.0909 41.7809ZM25.9105 36.8025L25.3796 38.7805C25.063 38.9109 24.3499 38.852 23.2629 38.6431C22.1449 38.4259 21.5177 38.7877 21.2191 39.9003L20.6053 42.1874L24.2059 43.1537L23.6957 45.0545L13.9603 42.4416L15.1423 38.0374C15.8059 35.5649 17.3121 34.6439 19.1047 35.125C20.5727 35.519 21.1768 36.7248 21.0007 37.9366C21.5002 36.8779 22.3336 36.4886 23.4907 36.6832C24.9456 36.9411 25.4679 37.0316 25.9105 36.8025ZM26.5189 28.1163L28.126 28.5476L26.1725 35.8261L16.4371 33.2132L18.3532 26.0738L19.9603 26.5052L18.5543 31.7438L20.9187 32.3783L22.0219 28.2678L23.6135 28.695L22.5103 32.8055L25.0755 33.494L26.5189 28.1163ZM28.4063 27.5031L18.6709 24.8902L19.6579 21.2124C20.0768 19.6516 20.8413 18.5315 21.9514 17.852C23.0615 17.1725 24.3758 17.0283 25.8902 17.4347C27.4046 17.8412 28.4701 18.6241 29.0907 19.7681C29.7114 20.9121 29.8123 22.2645 29.3934 23.8253L28.4063 27.5031ZM27.3794 25.1567L27.8149 23.5341C28.3624 21.4943 27.4259 19.984 25.3397 19.4241C23.2844 18.8724 21.7175 19.7109 21.1701 21.7507L20.7346 23.3733L27.3794 25.1567ZM31.2418 3.41031L37.4196 7.97357L37.4695 7.93356L34.2635 0.989283L35.7619 -0.211225L40.0293 9.28603L38.3061 10.6666L32.2783 6.1882L32.2283 6.22821L35.2719 13.0976L33.5612 14.4682L25.2232 8.23235L26.784 6.98182L32.8644 11.6026L32.9144 11.5626L29.8058 4.56079L31.2418 3.41031ZM50.515 8.04437C50.114 9.54365 49.3278 10.6252 48.1327 11.3158C46.9376 12.0065 45.6389 12.1559 44.2323 11.7796C42.8258 11.4034 41.7597 10.6213 41.0691 9.42624C40.3784 8.23117 40.2373 6.90152 40.6383 5.40224C41.0394 3.90296 41.8256 2.8214 43.0207 2.13077C44.2158 1.44015 45.5299 1.29483 46.9365 1.67109C48.343 2.04736 49.3937 2.8253 50.0843 4.02037C50.7749 5.21544 50.9161 6.54509 50.515 8.04437ZM48.5211 7.51098C49.0669 5.47072 48.2746 3.85095 46.4817 3.37131C44.6887 2.89168 43.1935 3.8995 42.6477 5.93976C42.1019 7.98002 42.8942 9.5998 44.6872 10.0794C46.4801 10.5591 47.9754 9.55124 48.5211 7.51098ZM53.4315 8.55955L55.6727 9.15909C57.0792 9.53536 57.8524 9.24532 58.1336 8.19428C58.3941 7.22052 57.8979 6.47497 56.4913 6.0987L54.2502 5.49916L53.4315 8.55955ZM58.4155 15.375L56.437 14.8458C56.3064 14.5293 56.3647 13.8161 56.5727 12.7289C56.789 11.6109 56.4267 10.9839 55.3138 10.6862L53.0263 10.0743L52.0629 13.6757L50.1617 13.1671L52.7666 3.42947L57.1717 4.60789C59.6448 5.26945 60.567 6.77493 60.0874 8.56788C59.6946 10.0363 58.4893 10.6413 57.2774 10.4662C58.3365 10.9648 58.7265 11.7979 58.5328 12.9552C58.2761 14.4102 58.186 14.9327 58.4155 15.375ZM68.0632 17.9559L65.7447 17.3357L63.4701 12.1559L62.1884 12.9227L61.3242 16.1532L59.3921 15.6363L61.997 5.89871L63.9291 6.41556L62.7507 10.8207L68.0869 7.52782L70.3436 8.13149L65.227 11.2843L68.0632 17.9559Z" fill="black"/>
</svg>
