<svg width="80" height="84" viewBox="0 0 80 84" fill="none" xmlns="http://www.w3.org/2000/svg">
<path d="M4.53267 10.8644C6.1968 7.60267 7.1305 6.61428 10.2312 5.2362C11.4265 4.70496 12.9016 4.64735 14.0302 4.14574C14.9694 3.72831 17.8332 3.89454 18.4624 3.10805C18.7858 2.70376 21.252 2.80851 21.8041 2.65076C22.3534 2.49381 23.1322 2.63317 23.7036 2.63317C25.2387 2.63317 26.7034 2.31658 28.2589 2.31658C31.43 2.31658 34.5643 2 37.774 2C43.8201 2 49.64 3.58292 55.661 3.58292C58.0838 3.58292 60.7618 4.84926 63.2591 4.84926C65.3723 4.84926 66.8249 7.89896 68.7993 8.0151C69.9953 8.08546 72.1619 11.8051 72.2817 12.7639C72.3922 13.6481 73.4375 14.4123 73.5481 15.2965C73.5947 15.6695 74.4291 18.2808 74.6561 18.4624C75.5111 19.1464 75.9108 22.1445 76.0631 23.2111C76.2514 24.5293 76.0807 25.9949 76.0807 27.3267C76.0807 29.0621 76.0807 30.7974 76.0807 32.5328C76.0807 33.7589 76.7139 35.1377 76.7139 36.5077C76.7139 37.8796 76.7139 39.2514 76.7139 40.6233C76.7139 42.2898 77.3471 43.7648 77.3471 45.3721C77.3471 48.063 77.3471 50.754 77.3471 53.445C77.3471 55.9768 77.5532 58.6115 77.0129 61.043C76.4577 63.5412 76.0885 67.2858 74.4275 69.3621C73.1463 70.9636 72.4473 73.0754 70.945 74.4275C69.7371 75.5146 68.4005 76.5263 66.8998 77.2767C65.5122 77.9705 63.9416 77.928 62.6435 78.7541C59.6474 80.6607 55.6272 80.4774 52.3193 81.3044C49.0505 82.1216 44.623 81.4627 41.2565 81.4627C33.2837 81.4627 24.5604 82.8706 16.7212 81.1285C14.6526 80.6688 13.1059 77.9802 11.0227 77.9802C8.7657 77.9802 6.98641 73.7496 5.72866 72.3521C4.91528 71.4483 4.855 69.6198 4.28644 68.4827C3.831 67.5718 3.32224 65.634 3.26634 64.6837C3.0951 61.7726 2.31658 59.0254 2.31658 55.96C2.31658 49.5425 2 43.2478 2 36.8243C2 30.994 2.31658 25.3729 2.31658 19.5704C2.31658 17.3696 3.3057 14.8458 4.37438 12.9222C5.51843 10.8629 6.64646 8.96486 9.28144 8.96486" stroke="black" stroke-width="4" stroke-linecap="round"/>
<path d="M54.8496 31.644C49.7688 28.1656 44.8068 23.7017 38.3749 23.8513C36.0645 23.905 34.456 25.5165 32.4192 25.9692C30.6549 26.3612 29.1517 27.8431 27.6804 28.7422C26.0781 29.7214 25.0625 31.5062 24.5212 33.13C23.9615 34.8093 23.1727 36.1525 22.4619 37.7518C21.8358 39.1606 21.6667 42.1241 21.9821 43.5437C22.3613 45.2499 22.7506 47.1487 23.6788 48.657C24.1945 49.4951 24.9349 50.212 25.4105 51.0205C25.9785 51.9861 27.226 52.4617 27.9963 53.232C29.0826 54.3182 30.022 55.0126 31.3662 55.7593C33.3938 56.8858 35.7364 57.15 37.9537 57.807C42.8415 59.2552 46.13 54.4789 48.9056 51.3949C50.0795 50.0906 51.4794 48.5478 51.8893 46.7029C52.1704 45.438 52.8568 44.1667 52.9541 42.8534C52.9893 42.3776 53.2609 41.8998 53.3636 41.4376C53.5148 40.7572 53.3803 40.0379 53.5391 39.3431C53.834 38.0531 53.7966 36.4447 53.7966 35.1192C53.7966 33.9746 53.8416 32.7783 53.27 31.7493C52.74 30.7953 52.1 30.3524 51.4798 29.4911C50.8995 28.6852 49.8162 28.9834 48.9524 28.6954" stroke="black" stroke-width="4" stroke-linecap="round"/>
<path d="M56.5349 20.0601C56.5349 18.6335 56.3723 17.6963 57.272 16.5966C57.9653 15.7494 58.8916 15.3032 59.8345 14.783C60.7212 14.2938 62.2203 13.379 63.2745 13.3204C64.6453 13.2443 66.2816 13.4101 67.1709 14.5958C68.1219 15.8638 67.908 17.345 67.908 18.8783C67.908 20.5471 67.6665 22.2477 65.8487 22.9618C63.9369 23.7129 62.046 23.9447 59.9164 23.5352C58.1114 23.1881 58.3182 22.8001 57.5412 21.3237C57.0105 20.3154 56.9561 19.3405 56.9561 18.1645" stroke="black" stroke-width="4" stroke-linecap="round"/>
</svg>
