<svg width="80" height="84" viewBox="0 0 80 84" fill="none" xmlns="http://www.w3.org/2000/svg">
<path d="M4.53267 10.8644C6.1968 7.60267 7.1305 6.61428 10.2312 5.2362C11.4265 4.70496 12.9016 4.64735 14.0302 4.14574C14.9694 3.72831 17.8332 3.89454 18.4624 3.10805C18.7858 2.70376 21.252 2.80851 21.8041 2.65076C22.3534 2.49381 23.1322 2.63317 23.7036 2.63317C25.2387 2.63317 26.7034 2.31658 28.2589 2.31658C31.43 2.31658 34.5643 2 37.774 2C43.8201 2 49.64 3.58292 55.661 3.58292C58.0838 3.58292 60.7618 4.84926 63.2591 4.84926C65.3723 4.84926 66.8249 7.89896 68.7993 8.0151C69.9953 8.08546 72.1619 11.8051 72.2817 12.7639C72.3922 13.6481 73.4375 14.4123 73.5481 15.2965C73.5947 15.6695 74.4291 18.2808 74.6561 18.4624C75.5111 19.1464 75.9108 22.1445 76.0631 23.2111C76.2514 24.5293 76.0807 25.9949 76.0807 27.3267C76.0807 29.0621 76.0807 30.7974 76.0807 32.5328C76.0807 33.7589 76.7139 35.1377 76.7139 36.5077C76.7139 37.8796 76.7139 39.2514 76.7139 40.6233C76.7139 42.2898 77.3471 43.7648 77.3471 45.3721C77.3471 48.063 77.3471 50.754 77.3471 53.445C77.3471 55.9768 77.5532 58.6115 77.0129 61.043C76.4577 63.5412 76.0885 67.2858 74.4275 69.3621C73.1463 70.9636 72.4473 73.0754 70.945 74.4275C69.7371 75.5146 68.4005 76.5263 66.8998 77.2767C65.5122 77.9705 63.9416 77.928 62.6435 78.7541C59.6474 80.6607 55.6272 80.4774 52.3193 81.3044C49.0505 82.1216 44.623 81.4627 41.2565 81.4627C33.2837 81.4627 24.5604 82.8706 16.7212 81.1285C14.6526 80.6688 13.1059 77.9802 11.0227 77.9802C8.7657 77.9802 6.98641 73.7496 5.72866 72.3521C4.91528 71.4483 4.855 69.6198 4.28644 68.4827C3.831 67.5718 3.32224 65.634 3.26634 64.6837C3.0951 61.7726 2.31658 59.0254 2.31658 55.96C2.31658 49.5425 2 43.2478 2 36.8243C2 30.994 2.31658 25.3729 2.31658 19.5704C2.31658 17.3696 3.3057 14.8458 4.37438 12.9222C5.51843 10.8629 6.64646 8.96486 9.28144 8.96486" stroke="black" stroke-width="4" stroke-linecap="round"/>
<path d="M23.9517 33.2832C23.9517 35.1581 24.1718 39.6084 24.6172 41.3398C25.2716 43.884 25.1727 47.2881 25.3411 49.7868C25.6197 51.8485 25.7298 53.2964 25.8966 54.6224C25.9533 55.6183 25.9533 57.2696 25.9533 58.971" stroke="black" stroke-width="4" stroke-linecap="round"/>
<path d="M36.6079 32.2793C36.6079 33.7138 36.8281 36.6095 37.2184 38.7713C38.219 44.3131 37.9423 46.1707 38.2743 47.6203C38.7196 49.1765 38.9432 52.9363 38.9982 57.1047C39.0533 58.631 39.1633 58.9613 39.2768 59.9688" stroke="black" stroke-width="4" stroke-linecap="round"/>
<path d="M37.9429 40.623C38.3866 39.739 38.8303 37.9608 39.9395 36.5697C41.2035 34.9845 42.2731 33.8441 43.6092 33.0084C44.8193 32.2515 46.4966 32.2828 47.9461 31.9509C48.63 31.7943 49.3923 31.6156 50.1696 31.7807C50.8989 31.9357 51.394 32.8366 52.1162 33.3353C53.5343 34.3146 53.3956 36.9467 53.9544 38.6147C54.2897 40.3962 54.3998 41.7306 54.5666 45.1501C54.6233 48.1292 54.6233 53.6337 54.6233 59.3051" stroke="black" stroke-width="4" stroke-linecap="round"/>
<path d="M23.6177 25.2812V26.785" stroke="black" stroke-width="4" stroke-linecap="round"/>
</svg>
