<svg width="168" height="121" viewBox="0 0 168 121" fill="none" xmlns="http://www.w3.org/2000/svg">
<mask id="path-1-outside-1_2570_193" maskUnits="userSpaceOnUse" x="-18.3605" y="-7.87914" width="204.113" height="136.053" fill="black">
<rect fill="white" x="-18.3605" y="-7.87914" width="204.113" height="136.053"/>
<path d="M35.2856 20.3747L35.2988 21.0466C33.4431 21.0829 32.9387 21.4768 32.5283 23.4052L27.2898 46.872L26.33 46.8908L22.222 31.5761L18.2675 47.0483L17.4037 47.0652L11.0604 23.8247C10.5424 21.8825 10.0236 21.5405 8.16793 21.5768L8.1548 20.9049L15.7693 20.7561L15.7825 21.428C12.7431 21.4874 12.7512 21.9033 13.236 23.7822L18.3067 42.5027L18.4027 42.5008L21.6688 29.4745L20.1147 23.6478C19.6292 21.7369 19.1098 21.363 17.2542 21.3992L17.2411 20.7274L24.8556 20.5786L24.8687 21.2504C21.8293 21.3098 21.8055 21.7264 22.3223 23.6046L27.2293 42.1363L27.3252 42.1344L31.4405 23.4265C31.8515 21.5301 31.8114 21.1148 28.772 21.1742L28.7589 20.5023L35.2856 20.3747ZM39.0193 23.1834C38.1911 23.1035 37.6155 22.405 37.6954 21.5768C37.7723 20.7805 38.4739 20.1731 39.302 20.253C40.0983 20.3299 40.7027 21.0633 40.6258 21.8596C40.5459 22.6878 39.8156 23.2603 39.0193 23.1834ZM38.2235 43.4246C38.033 45.3994 38.216 45.835 40.0634 46.0133L39.9988 46.6821L34.0744 46.1105L34.1389 45.4416C35.9863 45.6198 36.2492 45.2273 36.4398 43.2525L37.4571 32.7094C37.6477 30.7346 37.7452 30.3904 35.9833 30.9919L35.755 30.3591L39.2151 29.1498L39.5605 29.5689L38.2235 43.4246ZM44.6063 44.2697C44.3235 46.2334 44.4859 46.6771 46.323 46.9417L46.2272 47.6068L40.336 46.7583L40.4318 46.0932C42.2688 46.3578 42.5498 45.9779 42.8326 44.0142L45.6061 24.7569C45.8935 22.7615 46.007 22.4222 44.2143 22.9723L44.0205 22.2978L47.5289 21.2835L47.8588 21.6867L44.6063 44.2697ZM59.8689 49.1365L60.0191 49.7923L56.4451 50.5435L56.1772 50.1239L56.7636 47.4678L56.6386 47.4403C54.9992 49.0773 53.6328 49.9226 51.9454 49.5501C48.6957 48.8326 47.7152 45.1097 48.7708 40.3288C49.8608 35.3917 52.5485 31.2333 56.4544 32.0957C57.9855 32.4337 58.9522 33.6958 59.4676 34.9238L59.5301 34.9376L61.0961 27.8444C61.5307 25.8758 61.6691 25.5459 59.8474 25.9302L59.6972 25.2744L63.2712 24.5233L63.5391 24.9429L58.6202 47.2223C58.1856 49.1909 58.0472 49.5209 59.8689 49.1365ZM57.0534 46.1555L58.4676 39.7497C59.261 36.1563 58.4384 33.6479 56.4386 33.2064C53.4388 32.5441 51.6808 36.3506 50.8668 40.0378C49.9147 44.35 50.3254 47.685 52.7627 48.2231C54.6376 48.637 55.868 47.3684 57.0534 46.1555ZM89.9798 34.3845L89.8075 35.0042L88.5173 39.8242L87.8678 39.6404C88.946 35.6306 88.661 35.0391 86.8416 34.3318L79.8923 31.6301L76.0775 41.4427L80.6706 43.2283C82.49 43.9356 82.9821 43.8179 84.2112 40.6564L84.8673 40.9115L81.8062 48.7854L81.1501 48.5303C82.3791 45.3689 82.0958 44.9497 80.2764 44.2424L75.6833 42.4567L72.0656 51.7623C71.5207 53.1641 71.6433 53.5551 72.8065 54.0073L78.6523 56.2799C80.4716 56.9872 81.2586 56.6408 84.345 52.5877L84.9018 53.0102L81.1809 57.8123L80.823 58.2912L66.0595 52.5516L66.303 51.9253C69.1662 53.0384 69.5671 52.7136 70.2744 50.8943L77.3242 32.7604C78.0315 30.9411 77.9553 30.4307 75.092 29.3176L75.3355 28.6913L89.9798 34.3845ZM87.6169 58.1104C86.7354 59.8878 86.7512 60.3601 88.414 61.1847L88.1154 61.7867L82.7832 59.1423L83.0817 58.5402C84.7445 59.3648 85.13 59.0917 86.0114 57.3142L94.6556 39.884C95.5513 38.0779 95.765 37.7909 93.8901 37.7541L93.9165 37.0528L97.5662 37.184L97.7538 37.67L87.6169 58.1104ZM100.618 61.1236L101.201 61.4579C98.2567 65.5612 95.2424 66.6358 93.0773 65.3939C90.1627 63.7221 90.3957 59.6501 93.0387 55.0424C95.4907 50.7677 99.2656 48.1741 102.291 49.9096C104.873 51.3903 104.791 55.0696 102.419 59.2055L95.2018 55.0658L94.8516 55.6764C92.7976 59.2572 92.2239 63.0229 94.2779 64.2012C95.6381 64.9813 97.7584 64.5006 100.618 61.1236ZM101.667 50.8056C99.8901 49.7866 97.6407 51.5214 95.7987 54.1538L101.322 57.3223C102.771 54.7964 103.554 51.8883 101.667 50.8056ZM115.439 76.6239C114.257 78.2178 114.19 78.6854 115.706 79.8096L115.306 80.3495L110.576 76.8434L110.976 76.3035C112.416 77.3706 112.844 77.1698 114.025 75.5758L120.008 67.5035C121.132 65.9867 121.165 64.9753 120.137 64.2131C119.006 63.3747 117.329 63.4866 115.565 63.9317L115.413 64.1374L109.449 72.1841C108.267 73.778 108.2 74.2456 109.639 75.3127L109.239 75.8525L104.56 72.3845L104.96 71.8447C106.426 72.9308 106.853 72.73 108.035 71.1361L114.018 63.0637C115.142 61.5469 115.149 60.5164 114.121 59.7542C113.016 58.9349 111.269 59.0344 109.531 59.4986L103.433 67.7252C102.252 69.3192 102.158 69.7677 103.624 70.8538L103.223 71.3937L98.4932 67.8876L98.8933 67.3477C100.384 68.4529 100.812 68.2521 101.993 66.6582L108.301 58.1487C109.482 56.5548 109.743 56.3102 107.923 55.9172L108.054 55.2573L111.642 56.005L111.722 56.5422L110.179 58.6245L110.256 58.6817C112.191 58.0051 114.033 57.7771 115.447 58.8251C116.964 59.9494 116.998 61.4084 116.117 63.0262L116.194 63.0834C118.181 62.4449 120.074 62.255 121.488 63.303C123.339 64.675 122.927 66.5205 121.403 68.5772L115.439 76.6239ZM127.248 82.4255L127.735 82.8885C123.903 86.1772 120.72 86.507 118.911 84.7875C116.475 82.4726 117.666 78.5719 121.326 74.7216C124.721 71.1497 129.003 69.5244 131.531 71.9274C133.688 73.9777 132.737 77.5329 129.453 80.9888L123.422 75.2569L122.937 75.7672C120.093 78.7592 118.643 82.2818 120.36 83.9132C121.496 84.9934 123.67 85.0288 127.248 82.4255ZM130.712 72.6499C129.228 71.239 126.631 72.3914 124.218 74.5124L128.834 78.8995C130.84 76.7888 132.289 74.149 130.712 72.6499ZM138.956 80.243L137.001 81.9451L137.065 82.0175C139.1 81.7726 140.99 81.9939 142.125 83.2972C143.638 85.0348 142.881 86.797 140.95 88.4781L133.396 95.0553C131.9 96.3581 131.733 96.8002 132.973 98.2241L132.466 98.6654L128.579 94.2006L129.086 93.7594C130.283 95.135 130.744 95.0307 132.241 93.7279L139.794 87.1507C141.218 85.9109 141.543 84.822 140.682 83.8325C139.778 82.7947 137.978 82.5796 136.181 82.6595L128.458 89.3838C126.962 90.6867 126.795 91.1288 127.972 92.4803L127.465 92.9216L123.599 88.481L124.105 88.0397C125.324 89.4394 125.785 89.3352 127.281 88.0324L135.27 81.0769C136.766 79.7741 137.073 79.5912 135.381 78.8164L135.65 78.2L138.994 79.7012L138.956 80.243ZM142.59 100.739L142.989 101.28C138.949 104.213 136.442 105.342 134.83 103.151C133.541 101.398 134.057 99.5084 137.46 97.0052L145.94 90.7661L144.366 88.6267L145.242 87.982C146.899 90.1797 148.327 90.1224 151.09 88.2085L151.545 88.8271L147.859 91.539L150.154 94.6578L149.278 95.3026L146.983 92.1837L139.456 97.7212C136.75 99.7124 135.125 101.067 136.263 102.614C137.173 103.851 138.783 103.501 142.59 100.739ZM137.532 106.511L142.876 103.228L143.228 103.801C140.658 105.792 139.493 108.236 140.682 110.172C141.469 111.453 142.676 111.463 143.985 110.659C145.867 109.503 146.229 107.403 146.745 104.758C147.229 102.245 147.631 100.27 149.486 99.1312C151.258 98.0427 153.381 98.5036 154.487 100.303C155.558 102.048 154.803 103.264 155.071 103.7C155.255 104 155.527 103.832 156.073 103.497L156.425 104.07L152.062 106.75L151.71 106.177C153.554 104.594 154.615 102.591 153.61 100.955C152.806 99.6457 151.491 99.8898 150.782 100.325C149.283 101.246 148.874 103.149 148.486 105.453C147.882 109.054 147.272 110.63 145.173 111.92C142.882 113.326 140.843 112.513 139.805 110.823C138.632 108.914 139.271 107.508 138.953 106.99C138.752 106.663 138.429 106.748 137.884 107.083L137.532 106.511Z"/>
</mask>
<path d="M35.2856 20.3747L35.2988 21.0466C33.4431 21.0829 32.9387 21.4768 32.5283 23.4052L27.2898 46.872L26.33 46.8908L22.222 31.5761L18.2675 47.0483L17.4037 47.0652L11.0604 23.8247C10.5424 21.8825 10.0236 21.5405 8.16793 21.5768L8.1548 20.9049L15.7693 20.7561L15.7825 21.428C12.7431 21.4874 12.7512 21.9033 13.236 23.7822L18.3067 42.5027L18.4027 42.5008L21.6688 29.4745L20.1147 23.6478C19.6292 21.7369 19.1098 21.363 17.2542 21.3992L17.2411 20.7274L24.8556 20.5786L24.8687 21.2504C21.8293 21.3098 21.8055 21.7264 22.3223 23.6046L27.2293 42.1363L27.3252 42.1344L31.4405 23.4265C31.8515 21.5301 31.8114 21.1148 28.772 21.1742L28.7589 20.5023L35.2856 20.3747ZM39.0193 23.1834C38.1911 23.1035 37.6155 22.405 37.6954 21.5768C37.7723 20.7805 38.4739 20.1731 39.302 20.253C40.0983 20.3299 40.7027 21.0633 40.6258 21.8596C40.5459 22.6878 39.8156 23.2603 39.0193 23.1834ZM38.2235 43.4246C38.033 45.3994 38.216 45.835 40.0634 46.0133L39.9988 46.6821L34.0744 46.1105L34.1389 45.4416C35.9863 45.6198 36.2492 45.2273 36.4398 43.2525L37.4571 32.7094C37.6477 30.7346 37.7452 30.3904 35.9833 30.9919L35.755 30.3591L39.2151 29.1498L39.5605 29.5689L38.2235 43.4246ZM44.6063 44.2697C44.3235 46.2334 44.4859 46.6771 46.323 46.9417L46.2272 47.6068L40.336 46.7583L40.4318 46.0932C42.2688 46.3578 42.5498 45.9779 42.8326 44.0142L45.6061 24.7569C45.8935 22.7615 46.007 22.4222 44.2143 22.9723L44.0205 22.2978L47.5289 21.2835L47.8588 21.6867L44.6063 44.2697ZM59.8689 49.1365L60.0191 49.7923L56.4451 50.5435L56.1772 50.1239L56.7636 47.4678L56.6386 47.4403C54.9992 49.0773 53.6328 49.9226 51.9454 49.5501C48.6957 48.8326 47.7152 45.1097 48.7708 40.3288C49.8608 35.3917 52.5485 31.2333 56.4544 32.0957C57.9855 32.4337 58.9522 33.6958 59.4676 34.9238L59.5301 34.9376L61.0961 27.8444C61.5307 25.8758 61.6691 25.5459 59.8474 25.9302L59.6972 25.2744L63.2712 24.5233L63.5391 24.9429L58.6202 47.2223C58.1856 49.1909 58.0472 49.5209 59.8689 49.1365ZM57.0534 46.1555L58.4676 39.7497C59.261 36.1563 58.4384 33.6479 56.4386 33.2064C53.4388 32.5441 51.6808 36.3506 50.8668 40.0378C49.9147 44.35 50.3254 47.685 52.7627 48.2231C54.6376 48.637 55.868 47.3684 57.0534 46.1555ZM89.9798 34.3845L89.8075 35.0042L88.5173 39.8242L87.8678 39.6404C88.946 35.6306 88.661 35.0391 86.8416 34.3318L79.8923 31.6301L76.0775 41.4427L80.6706 43.2283C82.49 43.9356 82.9821 43.8179 84.2112 40.6564L84.8673 40.9115L81.8062 48.7854L81.1501 48.5303C82.3791 45.3689 82.0958 44.9497 80.2764 44.2424L75.6833 42.4567L72.0656 51.7623C71.5207 53.1641 71.6433 53.5551 72.8065 54.0073L78.6523 56.2799C80.4716 56.9872 81.2586 56.6408 84.345 52.5877L84.9018 53.0102L81.1809 57.8123L80.823 58.2912L66.0595 52.5516L66.303 51.9253C69.1662 53.0384 69.5671 52.7136 70.2744 50.8943L77.3242 32.7604C78.0315 30.9411 77.9553 30.4307 75.092 29.3176L75.3355 28.6913L89.9798 34.3845ZM87.6169 58.1104C86.7354 59.8878 86.7512 60.3601 88.414 61.1847L88.1154 61.7867L82.7832 59.1423L83.0817 58.5402C84.7445 59.3648 85.13 59.0917 86.0114 57.3142L94.6556 39.884C95.5513 38.0779 95.765 37.7909 93.8901 37.7541L93.9165 37.0528L97.5662 37.184L97.7538 37.67L87.6169 58.1104ZM100.618 61.1236L101.201 61.4579C98.2567 65.5612 95.2424 66.6358 93.0773 65.3939C90.1627 63.7221 90.3957 59.6501 93.0387 55.0424C95.4907 50.7677 99.2656 48.1741 102.291 49.9096C104.873 51.3903 104.791 55.0696 102.419 59.2055L95.2018 55.0658L94.8516 55.6764C92.7976 59.2572 92.2239 63.0229 94.2779 64.2012C95.6381 64.9813 97.7584 64.5006 100.618 61.1236ZM101.667 50.8056C99.8901 49.7866 97.6407 51.5214 95.7987 54.1538L101.322 57.3223C102.771 54.7964 103.554 51.8883 101.667 50.8056ZM115.439 76.6239C114.257 78.2178 114.19 78.6854 115.706 79.8096L115.306 80.3495L110.576 76.8434L110.976 76.3035C112.416 77.3706 112.844 77.1698 114.025 75.5758L120.008 67.5035C121.132 65.9867 121.165 64.9753 120.137 64.2131C119.006 63.3747 117.329 63.4866 115.565 63.9317L115.413 64.1374L109.449 72.1841C108.267 73.778 108.2 74.2456 109.639 75.3127L109.239 75.8525L104.56 72.3845L104.96 71.8447C106.426 72.9308 106.853 72.73 108.035 71.1361L114.018 63.0637C115.142 61.5469 115.149 60.5164 114.121 59.7542C113.016 58.9349 111.269 59.0344 109.531 59.4986L103.433 67.7252C102.252 69.3192 102.158 69.7677 103.624 70.8538L103.223 71.3937L98.4932 67.8876L98.8933 67.3477C100.384 68.4529 100.812 68.2521 101.993 66.6582L108.301 58.1487C109.482 56.5548 109.743 56.3102 107.923 55.9172L108.054 55.2573L111.642 56.005L111.722 56.5422L110.179 58.6245L110.256 58.6817C112.191 58.0051 114.033 57.7771 115.447 58.8251C116.964 59.9494 116.998 61.4084 116.117 63.0262L116.194 63.0834C118.181 62.4449 120.074 62.255 121.488 63.303C123.339 64.675 122.927 66.5205 121.403 68.5772L115.439 76.6239ZM127.248 82.4255L127.735 82.8885C123.903 86.1772 120.72 86.507 118.911 84.7875C116.475 82.4726 117.666 78.5719 121.326 74.7216C124.721 71.1497 129.003 69.5244 131.531 71.9274C133.688 73.9777 132.737 77.5329 129.453 80.9888L123.422 75.2569L122.937 75.7672C120.093 78.7592 118.643 82.2818 120.36 83.9132C121.496 84.9934 123.67 85.0288 127.248 82.4255ZM130.712 72.6499C129.228 71.239 126.631 72.3914 124.218 74.5124L128.834 78.8995C130.84 76.7888 132.289 74.149 130.712 72.6499ZM138.956 80.243L137.001 81.9451L137.065 82.0175C139.1 81.7726 140.99 81.9939 142.125 83.2972C143.638 85.0348 142.881 86.797 140.95 88.4781L133.396 95.0553C131.9 96.3581 131.733 96.8002 132.973 98.2241L132.466 98.6654L128.579 94.2006L129.086 93.7594C130.283 95.135 130.744 95.0307 132.241 93.7279L139.794 87.1507C141.218 85.9109 141.543 84.822 140.682 83.8325C139.778 82.7947 137.978 82.5796 136.181 82.6595L128.458 89.3838C126.962 90.6867 126.795 91.1288 127.972 92.4803L127.465 92.9216L123.599 88.481L124.105 88.0397C125.324 89.4394 125.785 89.3352 127.281 88.0324L135.27 81.0769C136.766 79.7741 137.073 79.5912 135.381 78.8164L135.65 78.2L138.994 79.7012L138.956 80.243ZM142.59 100.739L142.989 101.28C138.949 104.213 136.442 105.342 134.83 103.151C133.541 101.398 134.057 99.5084 137.46 97.0052L145.94 90.7661L144.366 88.6267L145.242 87.982C146.899 90.1797 148.327 90.1224 151.09 88.2085L151.545 88.8271L147.859 91.539L150.154 94.6578L149.278 95.3026L146.983 92.1837L139.456 97.7212C136.75 99.7124 135.125 101.067 136.263 102.614C137.173 103.851 138.783 103.501 142.59 100.739ZM137.532 106.511L142.876 103.228L143.228 103.801C140.658 105.792 139.493 108.236 140.682 110.172C141.469 111.453 142.676 111.463 143.985 110.659C145.867 109.503 146.229 107.403 146.745 104.758C147.229 102.245 147.631 100.27 149.486 99.1312C151.258 98.0427 153.381 98.5036 154.487 100.303C155.558 102.048 154.803 103.264 155.071 103.7C155.255 104 155.527 103.832 156.073 103.497L156.425 104.07L152.062 106.75L151.71 106.177C153.554 104.594 154.615 102.591 153.61 100.955C152.806 99.6457 151.491 99.8898 150.782 100.325C149.283 101.246 148.874 103.149 148.486 105.453C147.882 109.054 147.272 110.63 145.173 111.92C142.882 113.326 140.843 112.513 139.805 110.823C138.632 108.914 139.271 107.508 138.953 106.99C138.752 106.663 138.429 106.748 137.884 107.083L137.532 106.511Z" fill="#FFFEFC"/>
<path d="M35.2856 20.3747L43.2841 20.2184L43.1278 12.22L35.1293 12.3763L35.2856 20.3747ZM35.2988 21.0466L35.4551 29.0451L43.4535 28.8888L43.2972 20.8903L35.2988 21.0466ZM32.5283 23.4052L40.3361 25.1481L40.3448 25.1093L40.3531 25.0705L32.5283 23.4052ZM27.2898 46.872L27.4461 54.8705L33.7286 54.7477L35.0976 48.615L27.2898 46.872ZM26.33 46.8908L18.6031 48.9634L20.2255 55.0116L26.4863 54.8893L26.33 46.8908ZM22.222 31.5761L29.9488 29.5035L22.035 0.000699759L14.4711 29.5951L22.222 31.5761ZM18.2675 47.0483L18.4238 55.0468L24.5108 54.9279L26.0184 49.0293L18.2675 47.0483ZM17.4037 47.0652L9.68599 49.1717L11.3274 55.1855L17.56 55.0637L17.4037 47.0652ZM11.0604 23.8247L3.33064 25.8864L3.33661 25.9088L3.34271 25.9312L11.0604 23.8247ZM8.16793 21.5768L0.169459 21.7331L0.32576 29.7316L8.32423 29.5753L8.16793 21.5768ZM8.1548 20.9049L7.9985 12.9064L2.62523e-05 13.0628L0.156327 21.0612L8.1548 20.9049ZM15.7693 20.7561L23.7678 20.5998L23.6115 12.6013L15.613 12.7576L15.7693 20.7561ZM15.7825 21.428L15.9388 29.4265L23.9373 29.2702L23.781 21.2717L15.7825 21.428ZM13.236 23.7822L5.4897 25.7809L5.50169 25.8274L5.51424 25.8737L13.236 23.7822ZM18.3067 42.5027L10.585 44.5942L12.218 50.6232L18.463 50.5012L18.3067 42.5027ZM18.4027 42.5008L18.559 50.4993L24.6748 50.3798L26.1625 44.4465L18.4027 42.5008ZM21.6688 29.4745L29.4286 31.4202L29.932 29.4126L29.3986 27.4128L21.6688 29.4745ZM20.1147 23.6478L12.361 25.6175L12.3727 25.6636L12.3849 25.7095L20.1147 23.6478ZM17.2542 21.3992L9.25572 21.5555L9.41203 29.554L17.4105 29.3977L17.2542 21.3992ZM17.2411 20.7274L17.0848 12.7289L9.08629 12.8852L9.24259 20.8837L17.2411 20.7274ZM24.8556 20.5786L32.8541 20.4223L32.6978 12.4238L24.6993 12.5801L24.8556 20.5786ZM24.8687 21.2504L25.025 29.2489L33.0235 29.0926L32.8672 21.0941L24.8687 21.2504ZM22.3223 23.6046L30.0557 21.5569L30.0459 21.5196L30.0356 21.4823L22.3223 23.6046ZM27.2293 42.1363L19.4958 44.1841L21.104 50.2575L27.3856 50.1348L27.2293 42.1363ZM27.3252 42.1344L27.4815 50.1329L33.7841 50.0097L35.1384 43.8531L27.3252 42.1344ZM31.4405 23.4264L39.2537 25.1452L39.2564 25.1331L39.259 25.121L31.4405 23.4264ZM28.772 21.1742L20.7735 21.3305L20.9298 29.3289L28.9283 29.1726L28.772 21.1742ZM28.7589 20.5023L28.6026 12.5038L20.6041 12.6601L20.7604 20.6586L28.7589 20.5023ZM35.2856 20.3747L27.2872 20.531L27.3003 21.2029L35.2988 21.0466L43.2972 20.8903L43.2841 20.2184L35.2856 20.3747ZM35.2988 21.0466L35.1424 13.0481C34.1806 13.0669 30.9703 13.0841 28.2242 15.3922C25.5369 17.6509 24.9138 20.7521 24.7035 21.7399L32.5283 23.4052L40.3531 25.0705C40.4136 24.7859 40.3906 25.0018 40.2118 25.4138C40.0003 25.901 39.5101 26.8074 38.5189 27.6405C37.5158 28.4836 36.5096 28.8237 35.929 28.9568C35.447 29.0674 35.1853 29.0504 35.4551 29.0451L35.2988 21.0466ZM32.5283 23.4052L24.7205 21.6622L19.482 45.1291L27.2898 46.872L35.0976 48.615L40.3361 25.1481L32.5283 23.4052ZM27.2898 46.872L27.1335 38.8736L26.1737 38.8923L26.33 46.8908L26.4863 54.8893L27.4461 54.8705L27.2898 46.872ZM26.33 46.8908L34.0568 44.8181L29.9488 29.5035L22.222 31.5761L14.4951 33.6488L18.6031 48.9634L26.33 46.8908ZM22.222 31.5761L14.4711 29.5951L10.5167 45.0673L18.2675 47.0483L26.0184 49.0293L29.9728 33.5571L22.222 31.5761ZM18.2675 47.0483L18.1112 39.0499L17.2474 39.0667L17.4037 47.0652L17.56 55.0637L18.4238 55.0468L18.2675 47.0483ZM17.4037 47.0652L25.1214 44.9587L18.7781 21.7182L11.0604 23.8247L3.34271 25.9312L9.68599 49.1717L17.4037 47.0652ZM11.0604 23.8247L18.7902 21.763C18.5299 20.7872 17.7514 17.7115 14.9532 15.5871C12.1099 13.4284 8.90192 13.5609 8.01163 13.5783L8.16793 21.5768L8.32423 29.5753C8.62053 29.5695 8.37579 29.5966 7.90973 29.5125C7.34233 29.4102 6.32335 29.124 5.2783 28.3305C4.24412 27.5454 3.71064 26.6626 3.4783 26.1922C3.28285 25.7966 3.2518 25.5909 3.33064 25.8864L11.0604 23.8247ZM8.16793 21.5768L16.1664 21.4205L16.1533 20.7486L8.1548 20.9049L0.156327 21.0612L0.169459 21.7331L8.16793 21.5768ZM8.1548 20.9049L8.31111 28.9034L15.9257 28.7546L15.7693 20.7561L15.613 12.7576L7.9985 12.9064L8.1548 20.9049ZM15.7693 20.7561L7.77087 20.9124L7.78401 21.5843L15.7825 21.428L23.781 21.2717L23.7678 20.5998L15.7693 20.7561ZM15.7825 21.428L15.6262 13.4295C14.7993 13.4457 13.6864 13.4874 12.5939 13.6874C11.6841 13.8539 9.25461 14.3735 7.28944 16.5181C5.01112 19.0044 4.9277 21.859 5.02175 23.1928C5.10406 24.36 5.40956 25.4704 5.4897 25.7809L13.236 23.7822L20.9823 21.7835C20.82 21.1546 20.9427 21.5084 20.9821 22.0673C21.0333 22.7928 21.0469 25.1874 19.0859 27.3275C17.438 29.1259 15.5461 29.4128 15.4744 29.426C15.2201 29.4725 15.2459 29.44 15.9388 29.4265L15.7825 21.428ZM13.236 23.7822L5.51424 25.8737L10.585 44.5942L18.3067 42.5027L26.0285 40.4111L20.9577 21.6906L13.236 23.7822ZM18.3067 42.5027L18.463 50.5012L18.559 50.4993L18.4027 42.5008L18.2464 34.5024L18.1504 34.5042L18.3067 42.5027ZM18.4027 42.5008L26.1625 44.4465L29.4286 31.4202L21.6688 29.4745L13.909 27.5289L10.6429 40.5552L18.4027 42.5008ZM21.6688 29.4745L29.3986 27.4128L27.8444 21.5861L20.1147 23.6478L12.3849 25.7095L13.939 31.5362L21.6688 29.4745ZM20.1147 23.6478L27.8684 21.6781C27.6197 20.6993 26.8759 17.6248 24.1024 15.4728C21.2682 13.2737 18.0597 13.382 17.0979 13.4008L17.2542 21.3992L17.4105 29.3977C17.6803 29.3924 17.4194 29.4197 16.9335 29.328C16.3481 29.2177 15.3294 28.9171 14.2941 28.1139C13.2711 27.3201 12.7459 26.4336 12.5155 25.955C12.3207 25.5504 12.2893 25.3355 12.361 25.6175L20.1147 23.6478ZM17.2542 21.3992L25.2527 21.2429L25.2395 20.5711L17.2411 20.7274L9.24259 20.8837L9.25572 21.5555L17.2542 21.3992ZM17.2411 20.7274L17.3974 28.7258L25.0119 28.577L24.8556 20.5786L24.6993 12.5801L17.0848 12.7289L17.2411 20.7274ZM24.8556 20.5786L16.8571 20.7349L16.8703 21.4067L24.8687 21.2504L32.8672 21.0941L32.8541 20.4223L24.8556 20.5786ZM24.8687 21.2504L24.7124 13.252C23.8837 13.2682 22.7731 13.3101 21.683 13.5086C20.7808 13.6728 18.3635 14.1848 16.3969 16.3047C14.0907 18.7907 13.9926 21.6655 14.0974 23.0547C14.1885 24.2618 14.5157 25.388 14.6089 25.7269L22.3223 23.6046L30.0356 21.4823C29.8705 20.8821 30.0068 21.2519 30.052 21.8508C30.111 22.6318 30.1118 25.0466 28.1269 27.1862C26.4816 28.9598 24.6079 29.2391 24.5488 29.2498C24.3019 29.2948 24.3341 29.2624 25.025 29.2489L24.8687 21.2504ZM22.3223 23.6046L14.5888 25.6524L19.4958 44.1841L27.2293 42.1363L34.9627 40.0886L30.0557 21.5569L22.3223 23.6046ZM27.2293 42.1363L27.3856 50.1348L27.4815 50.1329L27.3252 42.1344L27.1689 34.136L27.073 34.1378L27.2293 42.1363ZM27.3252 42.1344L35.1384 43.8531L39.2537 25.1452L31.4405 23.4264L23.6273 21.7077L19.512 40.4157L27.3252 42.1344ZM31.4405 23.4264L39.259 25.121C39.3321 24.7835 39.5966 23.6439 39.6225 22.438C39.6526 21.0405 39.398 18.2152 37.0137 15.867C34.9755 13.8598 32.569 13.4435 31.6518 13.3135C30.5554 13.1581 29.445 13.1595 28.6157 13.1757L28.772 21.1742L28.9283 29.1726C29.6187 29.1591 29.6531 29.1902 29.4062 29.1551C29.3386 29.1456 27.4862 28.9406 25.7867 27.2668C23.7409 25.252 23.6093 22.8824 23.6262 22.0942C23.639 21.4977 23.7544 21.1212 23.622 21.7319L31.4405 23.4264ZM28.772 21.1742L36.7705 21.0179L36.7573 20.346L28.7589 20.5023L20.7604 20.6586L20.7735 21.3305L28.772 21.1742ZM28.7589 20.5023L28.9152 28.5008L35.4419 28.3732L35.2856 20.3747L35.1293 12.3763L28.6026 12.5038L28.7589 20.5023ZM37.6954 21.5768L29.7324 20.8085L37.6954 21.5768ZM40.6258 21.8596L32.6628 21.0912L40.6258 21.8596ZM40.0634 46.0133L48.0264 46.7816L48.7948 38.8186L40.8318 38.0502L40.0634 46.0133ZM39.9988 46.6821L39.2305 54.6452L47.1935 55.4135L47.9619 47.4505L39.9988 46.6821ZM34.0744 46.1105L26.1113 45.3421L25.343 53.3051L33.306 54.0735L34.0744 46.1105ZM34.1389 45.4416L34.9073 37.4786L26.9443 36.7102L26.1759 44.6732L34.1389 45.4416ZM37.4571 32.7094L29.4941 31.9411L37.4571 32.7094ZM35.9833 30.9919L28.4578 33.7064L31.1261 41.1037L38.5681 38.5628L35.9833 30.9919ZM35.755 30.3591L33.1157 22.807L25.4879 25.4728L28.2296 33.0735L35.755 30.3591ZM39.2151 29.1498L45.3891 24.0624L41.8418 19.7574L36.5758 21.5977L39.2151 29.1498ZM39.5605 29.5689L47.5235 30.3373L47.8417 27.0389L45.7345 24.4815L39.5605 29.5689ZM39.0193 23.1834L39.7876 15.2204C43.3573 15.5649 46.0029 18.7755 45.6585 22.3452L37.6954 21.5768L29.7324 20.8085C29.2282 26.0345 33.0249 30.6422 38.2509 31.1464L39.0193 23.1834ZM37.6954 21.5768L45.6585 22.3452C45.3219 25.8334 42.2158 28.5713 38.5337 28.216L39.302 20.253L40.0704 12.29C34.7319 11.7749 30.2227 15.7277 29.7324 20.8085L37.6954 21.5768ZM39.302 20.253L38.5337 28.216C34.9321 27.8685 32.3153 24.6928 32.6628 21.0912L40.6258 21.8596L48.5889 22.628C49.09 17.4338 45.2645 12.7912 40.0704 12.29L39.302 20.253ZM40.6258 21.8596L32.6628 21.0912C33.0181 17.4091 36.2994 14.8838 39.7876 15.2204L39.0193 23.1834L38.2509 31.1464C43.3317 31.6367 48.0737 27.9664 48.5889 22.628L40.6258 21.8596ZM38.2235 43.4246L30.2605 42.6562C30.209 43.1897 30.1257 44.1222 30.1851 45.1149C30.2452 46.1195 30.4852 47.98 31.7296 49.8404C33.0795 51.8585 34.9166 52.8641 36.3056 53.3546C37.5231 53.7846 38.668 53.9158 39.295 53.9763L40.0634 46.0133L40.8318 38.0502C40.535 38.0216 40.9643 38.0314 41.6339 38.2679C42.4749 38.5649 43.9318 39.3048 45.0288 40.9448C46.0203 42.4272 46.1349 43.7974 46.1565 44.1593C46.1775 44.5093 46.1427 44.6469 46.1865 44.1929L38.2235 43.4246ZM40.0634 46.0133L32.1004 45.2449L32.0358 45.9138L39.9988 46.6821L47.9619 47.4505L48.0264 46.7816L40.0634 46.0133ZM39.9988 46.6821L40.7672 38.7191L34.8427 38.1475L34.0744 46.1105L33.306 54.0735L39.2305 54.6452L39.9988 46.6821ZM34.0744 46.1105L42.0374 46.8788L42.1019 46.21L34.1389 45.4416L26.1759 44.6732L26.1113 45.3421L34.0744 46.1105ZM34.1389 45.4416L33.3705 53.4046C33.9975 53.4651 35.1464 53.5553 36.4237 53.366C37.8808 53.1501 39.8763 52.5144 41.5872 50.7916C43.1643 49.2035 43.7556 47.4231 44.0067 46.4486C44.2548 45.4856 44.3513 44.5543 44.4028 44.0208L36.4398 43.2525L28.4768 42.4841C28.433 42.9381 28.4252 42.7964 28.5127 42.4568C28.6031 42.1057 28.9775 40.7827 30.2342 39.5173C31.6245 38.1172 33.196 37.6696 34.0783 37.5389C34.7808 37.4348 35.204 37.5072 34.9073 37.4786L34.1389 45.4416ZM36.4398 43.2525L44.4028 44.0208L45.4201 33.4778L37.4571 32.7094L29.4941 31.9411L28.4768 42.4841L36.4398 43.2525ZM37.4571 32.7094L45.4201 33.4778C45.448 33.1885 45.5335 32.4018 45.5519 31.747C45.5621 31.3818 45.5665 30.7232 45.45 29.9492C45.3373 29.2001 45.0418 27.8445 44.106 26.4428C41.6201 22.7189 37.7013 22.6303 36.2579 22.7618C34.9569 22.8803 33.8047 23.2823 33.3984 23.421L35.9833 30.9919L38.5681 38.5628C39.0428 38.4008 38.5392 38.6202 37.7094 38.6958C37.2292 38.7395 36.1117 38.793 34.7572 38.3441C33.1909 37.8249 31.7729 36.7856 30.7987 35.3263C29.949 34.0534 29.709 32.867 29.6281 32.3299C29.5436 31.7679 29.5563 31.3643 29.5581 31.2996C29.5596 31.2461 29.5615 31.2429 29.4941 31.9411L37.4571 32.7094ZM35.9833 30.9919L43.5087 28.2775L43.2804 27.6446L35.755 30.3591L28.2296 33.0735L28.4578 33.7064L35.9833 30.9919ZM35.755 30.3591L38.3943 37.9112L41.8544 36.7019L39.2151 29.1498L36.5758 21.5977L33.1157 22.807L35.755 30.3591ZM39.2151 29.1498L33.0411 34.2372L33.3864 34.6563L39.5605 29.5689L45.7345 24.4815L45.3891 24.0624L39.2151 29.1498ZM39.5605 29.5689L31.5974 28.8006L30.2605 42.6562L38.2235 43.4246L46.1865 44.1929L47.5235 30.3373L39.5605 29.5689ZM46.323 46.9417L54.2413 48.0821L55.3817 40.1638L47.4634 39.0234L46.323 46.9417ZM46.2272 47.6068L45.0868 55.5251L53.0051 56.6655L54.1455 48.7472L46.2272 47.6068ZM40.336 46.7583L32.4177 45.6179L31.2772 53.5362L39.1955 54.6766L40.336 46.7583ZM40.4318 46.0932L41.5722 38.1749L33.6539 37.0345L32.5135 44.9528L40.4318 46.0932ZM44.2143 22.9723L36.5255 25.1817L38.7748 33.0094L46.561 30.6204L44.2143 22.9723ZM44.0205 22.2978L41.7988 14.6124L34.1258 16.8306L36.3316 24.5072L44.0205 22.2978ZM47.5289 21.2835L53.7202 16.2171L50.3776 12.1324L45.3072 13.5982L47.5289 21.2835ZM47.8588 21.6867L55.7771 22.8271L56.2788 19.3438L54.0501 16.6203L47.8588 21.6867ZM44.6063 44.2697L36.688 43.1292C36.6116 43.6597 36.4847 44.5874 36.4976 45.5817C36.5106 46.588 36.6632 48.4578 37.8191 50.3744C39.073 52.4535 40.8611 53.544 42.2255 54.099C43.4216 54.5856 44.5591 54.7702 45.1826 54.86L46.323 46.9417L47.4634 39.0234C47.1683 38.9809 47.5966 39.0108 48.2544 39.2784C49.0806 39.6144 50.5013 40.4217 51.5203 42.1113C52.4413 43.6385 52.4916 45.0126 52.4962 45.3751C52.5008 45.7257 52.4596 45.8615 52.5246 45.4101L44.6063 44.2697ZM46.323 46.9417L38.4047 45.8012L38.3089 46.4664L46.2272 47.6068L54.1455 48.7472L54.2413 48.0821L46.323 46.9417ZM46.2272 47.6068L47.3676 39.6885L41.4764 38.84L40.336 46.7583L39.1955 54.6766L45.0868 55.5251L46.2272 47.6068ZM40.336 46.7583L48.2543 47.8987L48.3501 47.2336L40.4318 46.0932L32.5135 44.9528L32.4177 45.6179L40.336 46.7583ZM40.4318 46.0932L39.2913 54.0115C39.9148 54.1013 41.0582 54.2452 42.3429 54.1159C43.8086 53.9685 45.8317 53.4269 47.6213 51.7861C49.2711 50.2736 49.9451 48.5229 50.2416 47.5612C50.5345 46.6109 50.6745 45.6851 50.7509 45.1546L42.8326 44.0142L34.9143 42.8738C34.8493 43.3252 34.8482 43.1833 34.9515 42.8482C35.0583 42.5018 35.4942 41.1977 36.8088 39.9925C38.2632 38.6591 39.8539 38.2856 40.7413 38.1963C41.4479 38.1252 41.8672 38.2174 41.5722 38.1749L40.4318 46.0932ZM42.8326 44.0142L50.7509 45.1546L53.5244 25.8973L45.6061 24.7569L37.6878 23.6165L34.9143 42.8738L42.8326 44.0142ZM45.6061 24.7569L53.5244 25.8973C53.5673 25.5994 53.6896 24.8164 53.7391 24.164C53.7666 23.8013 53.8026 23.1455 53.7246 22.3696C53.6495 21.6237 53.4222 20.2429 52.5446 18.7847C50.1871 14.8677 46.1773 14.6663 44.7444 14.7531C43.4413 14.8321 42.2747 15.1993 41.8676 15.3242L44.2143 22.9723L46.561 30.6204C47.0503 30.4702 46.5418 30.6735 45.7126 30.7238C45.2348 30.7528 44.0987 30.7746 42.7388 30.2707C41.1577 29.6849 39.7564 28.5647 38.8359 27.0353C38.0382 25.7099 37.8583 24.5017 37.8049 23.971C37.7485 23.4104 37.7805 23.0127 37.7849 22.9538C37.7883 22.909 37.7886 22.9167 37.6878 23.6165L45.6061 24.7569ZM44.2143 22.9723L51.9032 20.7629L51.7093 20.0883L44.0205 22.2978L36.3316 24.5072L36.5255 25.1817L44.2143 22.9723ZM44.0205 22.2978L46.2422 29.9831L49.7506 28.9688L47.5289 21.2835L45.3072 13.5982L41.7988 14.6124L44.0205 22.2978ZM47.5289 21.2835L41.3376 26.3499L41.6675 26.7531L47.8588 21.6867L54.0501 16.6203L53.7202 16.2171L47.5289 21.2835ZM47.8588 21.6867L39.9405 20.5463L36.688 43.1292L44.6063 44.2697L52.5246 45.4101L55.7771 22.8271L47.8588 21.6867ZM59.8689 49.1365L67.6671 47.3511L65.912 39.6856L58.2176 41.3088L59.8689 49.1365ZM60.0191 49.7923L61.6645 57.6213L69.635 55.9461L67.8173 48.0069L60.0191 49.7923ZM56.4451 50.5435L49.7017 54.8478L52.6776 59.5101L58.0905 58.3725L56.4451 50.5435ZM56.1772 50.1239L48.3654 48.3992L47.651 51.635L49.4339 54.4282L56.1772 50.1239ZM56.7636 47.4678L64.5755 49.1925L66.3002 41.3807L58.4883 39.656L56.7636 47.4678ZM56.6386 47.4403L58.3633 39.6284L54.0858 38.684L50.986 41.7792L56.6386 47.4403ZM59.4676 34.9238L52.0909 38.0198L53.6951 41.842L57.7429 42.7357L59.4676 34.9238ZM59.5301 34.9376L57.8054 42.7495L65.6172 44.4742L67.3419 36.6623L59.5301 34.9376ZM59.8474 25.9302L52.0492 27.7157L53.8043 35.3811L61.4987 33.7579L59.8474 25.9302ZM59.6972 25.2744L58.0518 17.4455L50.0813 19.1206L51.899 27.0599L59.6972 25.2744ZM63.2712 24.5233L70.0146 20.219L67.0387 15.5567L61.6258 16.6943L63.2712 24.5233ZM63.5391 24.9429L71.3509 26.6676L72.0653 23.4318L70.2825 20.6386L63.5391 24.9429ZM57.0534 46.1555L62.7749 51.7469L64.3725 50.1121L64.8653 47.8802L57.0534 46.1555ZM58.4676 39.7497L50.6558 38.025L58.4676 39.7497ZM59.8689 49.1365L52.0707 50.922L52.2209 51.5778L60.0191 49.7923L67.8173 48.0069L67.6671 47.3511L59.8689 49.1365ZM60.0191 49.7923L58.3736 41.9634L54.7996 42.7145L56.4451 50.5435L58.0905 58.3725L61.6645 57.6213L60.0191 49.7923ZM56.4451 50.5435L63.1885 46.2392L62.9206 45.8196L56.1772 50.1239L49.4339 54.4282L49.7017 54.8478L56.4451 50.5435ZM56.1772 50.1239L63.9891 51.8486L64.5755 49.1925L56.7636 47.4678L48.9518 45.7432L48.3654 48.3992L56.1772 50.1239ZM56.7636 47.4678L58.4883 39.656L58.3633 39.6284L56.6386 47.4403L54.9139 55.2521L55.0389 55.2797L56.7636 47.4678ZM56.6386 47.4403L50.986 41.7792C50.7139 42.0509 50.5599 42.1817 50.497 42.2313C50.4351 42.2802 50.5424 42.1855 50.8033 42.0582C51.0839 41.9214 51.5253 41.7554 52.0967 41.6788C52.6794 41.6006 53.2218 41.6392 53.6701 41.7382L51.9454 49.5501L50.2207 57.3619C56.27 58.6975 60.4037 54.9861 62.2913 53.1013L56.6386 47.4403ZM51.9454 49.5501L53.6701 41.7382C54.2616 41.8688 54.9582 42.2023 55.5449 42.7804C56.0952 43.3226 56.3017 43.8339 56.3608 44.0181C56.4141 44.1842 56.3622 44.1179 56.3644 43.7301C56.3665 43.3552 56.4189 42.7952 56.5826 42.0535L48.7708 40.3288L40.9589 38.6041C40.2622 41.7597 40.015 45.4461 41.1265 48.9083C42.3629 52.7603 45.3614 56.2891 50.2207 57.3619L51.9454 49.5501ZM48.7708 40.3288L56.5826 42.0535C56.7601 41.2496 56.9845 40.5653 57.2165 40.0326C57.4556 39.4835 57.6451 39.2274 57.6914 39.1721C57.7377 39.1168 57.4969 39.4296 56.8728 39.6933C56.1565 39.996 55.3657 40.048 54.7297 39.9076L56.4544 32.0957L58.1791 24.2838C52.4935 23.0286 48.0283 25.7886 45.4218 28.9028C43.0051 31.7903 41.6609 35.4246 40.9589 38.6041L48.7708 40.3288ZM56.4544 32.0957L54.7297 39.9076C53.7156 39.6837 53.0036 39.1613 52.6082 38.755C52.254 38.391 52.1253 38.1017 52.0909 38.0198L59.4676 34.9238L66.8442 31.8278C65.8524 29.4647 63.3413 25.4235 58.1791 24.2838L56.4544 32.0957ZM59.4676 34.9238L57.7429 42.7357L57.8054 42.7495L59.5301 34.9376L61.2547 27.1257L61.1923 27.1119L59.4676 34.9238ZM59.5301 34.9376L67.3419 36.6623L68.908 29.5691L61.0961 27.8444L53.2842 26.1197L51.7182 33.2129L59.5301 34.9376ZM61.0961 27.8444L68.908 29.5691C68.973 29.2746 69.1528 28.5037 69.2506 27.8568C69.3051 27.4965 69.389 26.8489 69.3699 26.0743C69.3514 25.327 69.2298 23.9563 68.4882 22.4574C66.5001 18.4388 62.6195 17.8427 61.1308 17.7945C59.8142 17.7519 58.612 18.0147 58.1961 18.1025L59.8474 25.9302L61.4987 33.7579C61.9936 33.6535 61.4573 33.8134 60.6135 33.7862C60.1237 33.7703 58.9941 33.6839 57.693 33.0588C56.1888 32.336 54.9202 31.1144 54.1475 29.5526C53.4753 28.1939 53.3879 27.0003 53.3748 26.4704C53.361 25.9131 53.4216 25.5233 53.4304 25.4647C53.437 25.4213 53.4365 25.4299 53.2842 26.1197L61.0961 27.8444ZM59.8474 25.9302L67.6456 24.1447L67.4955 23.4889L59.6972 25.2744L51.899 27.0599L52.0492 27.7157L59.8474 25.9302ZM59.6972 25.2744L61.3427 33.1034L64.9167 32.3522L63.2712 24.5233L61.6258 16.6943L58.0518 17.4455L59.6972 25.2744ZM63.2712 24.5233L56.5278 28.8275L56.7957 29.2471L63.5391 24.9429L70.2825 20.6386L70.0146 20.219L63.2712 24.5233ZM63.5391 24.9429L55.7272 23.2182L50.8083 45.4976L58.6202 47.2223L66.4321 48.947L71.3509 26.6676L63.5391 24.9429ZM58.6202 47.2223L50.8083 45.4976C50.7433 45.7921 50.5635 46.563 50.4657 47.2099C50.4112 47.5702 50.3273 48.2178 50.3464 48.9925C50.3649 49.7398 50.4865 51.1105 51.2281 52.6094C53.2163 56.6279 57.0968 57.2241 58.5855 57.2722C59.9021 57.3148 61.1043 57.052 61.5202 56.9643L59.8689 49.1365L58.2176 41.3088C57.7227 41.4132 58.259 41.2533 59.1028 41.2806C59.5926 41.2964 60.7222 41.3829 62.0233 42.008C63.5275 42.7307 64.7961 43.9523 65.5688 45.5142C66.241 46.8728 66.3284 48.0665 66.3415 48.5964C66.3553 49.1537 66.2947 49.5435 66.2859 49.602C66.2793 49.6454 66.2798 49.6369 66.4321 48.947L58.6202 47.2223ZM57.0534 46.1555L64.8653 47.8802L66.2795 41.4744L58.4676 39.7497L50.6558 38.025L49.2415 44.4308L57.0534 46.1555ZM58.4676 39.7497L66.2795 41.4744C66.8532 38.8761 67.0539 35.8222 66.1309 32.8922C65.1262 29.7033 62.5827 26.3703 58.1633 25.3945L56.4386 33.2064L54.7139 41.0183C53.6955 40.7935 52.7349 40.2628 51.9941 39.5061C51.2959 38.7929 50.9926 38.0882 50.8703 37.6999C50.6601 37.0329 50.8755 37.0298 50.6558 38.025L58.4676 39.7497ZM56.4386 33.2064L58.1633 25.3945C52.1463 24.0661 48.0825 27.7858 46.2454 30.452C44.4757 33.0204 43.5532 36.056 43.0549 38.3131L50.8668 40.0378L58.6787 41.7625C58.8174 41.1339 58.9794 40.5823 59.1445 40.1442C59.3187 39.6824 59.436 39.508 59.4207 39.5301C59.4053 39.5525 59.318 39.6766 59.138 39.8509C58.956 40.0272 58.6482 40.2846 58.197 40.5265C57.7328 40.7754 57.1578 40.985 56.498 41.0788C55.8355 41.1731 55.2247 41.1311 54.7139 41.0183L56.4386 33.2064ZM50.8668 40.0378L43.0549 38.3131C42.4763 40.9338 42.0959 44.1018 42.6995 47.1164C43.3462 50.3465 45.5934 54.8329 51.038 56.0349L52.7627 48.2231L54.4874 40.4112C55.6734 40.673 56.7757 41.3611 57.5392 42.3109C58.2061 43.1403 58.3627 43.8485 58.3881 43.9751C58.4168 44.1184 58.3754 44.0068 58.4034 43.5536C58.43 43.1234 58.5102 42.5254 58.6787 41.7625L50.8668 40.0378ZM52.7627 48.2231L51.038 56.0349C57.9162 57.5535 62.2902 52.2429 62.7749 51.7469L57.0534 46.1555L51.3318 40.5641C51.0005 40.903 50.8699 41.0337 50.7652 41.1289C50.6753 41.2107 50.7757 41.1055 51.0292 40.9523C51.3047 40.7858 51.7999 40.5386 52.4853 40.4012C53.1997 40.258 53.8941 40.2802 54.4874 40.4112L52.7627 48.2231ZM89.9798 34.3845L97.6876 36.5269L99.6265 29.5515L92.8786 26.9281L89.9798 34.3845ZM89.8075 35.0042L82.0998 32.8617L82.0895 32.8986L82.0796 32.9356L89.8075 35.0042ZM88.5173 39.8242L86.3385 47.5218L94.1469 49.732L96.2453 41.8928L88.5173 39.8242ZM87.8678 39.6404L80.1422 37.563L78.092 45.1876L85.689 47.338L87.8678 39.6404ZM79.8923 31.6301L82.7911 24.1738L75.3347 21.275L72.436 28.7314L79.8923 31.6301ZM76.0775 41.4427L68.6212 38.5439L65.7224 46.0003L73.1788 48.899L76.0775 41.4427ZM84.2112 40.6564L87.1099 33.2001L79.6536 30.3013L76.7548 37.7577L84.2112 40.6564ZM84.8673 40.9115L92.3237 43.8103L95.2224 36.354L87.7661 33.4552L84.8673 40.9115ZM81.8062 48.7854L78.9074 56.2418L86.3638 59.1406L89.2626 51.6842L81.8062 48.7854ZM81.1501 48.5303L73.6937 45.6316L70.7949 53.0879L78.2513 55.9867L81.1501 48.5303ZM75.6833 42.4567L78.5821 35.0004L71.1257 32.1016L68.2269 39.558L75.6833 42.4567ZM84.345 52.5877L89.1807 46.2146L82.8185 41.3873L77.9802 47.7411L84.345 52.5877ZM84.9018 53.0102L91.2255 57.9102L96.1754 51.522L89.7374 46.6371L84.9018 53.0102ZM81.1809 57.8123L74.8571 52.9123L74.8143 52.9676L74.7724 53.0236L81.1809 57.8123ZM80.823 58.2912L77.9243 65.7475L83.5917 67.9508L87.2315 63.0798L80.823 58.2912ZM66.0595 52.5516L58.6031 49.6528L55.7044 57.1092L63.1607 60.008L66.0595 52.5516ZM66.303 51.9253L69.2017 44.4689L61.7454 41.5702L58.8466 49.0265L66.303 51.9253ZM77.3242 32.7604L69.8679 29.8616L77.3242 32.7604ZM75.092 29.3176L67.6357 26.4188L64.7369 33.8752L72.1933 36.774L75.092 29.3176ZM75.3355 28.6913L78.2343 21.2349L70.7779 18.3362L67.8792 25.7925L75.3355 28.6913ZM89.9798 34.3845L82.272 32.242L82.0998 32.8617L89.8075 35.0042L97.5153 37.1466L97.6876 36.5269L89.9798 34.3845ZM89.8075 35.0042L82.0796 32.9356L80.7894 37.7556L88.5173 39.8242L96.2453 41.8928L97.5355 37.0727L89.8075 35.0042ZM88.5173 39.8242L90.6961 32.1266L90.0466 31.9428L87.8678 39.6404L85.689 47.338L86.3385 47.5218L88.5173 39.8242ZM87.8678 39.6404L95.5934 41.7177C95.8827 40.6417 96.1609 39.5087 96.3261 38.4289C96.4801 37.4231 96.6492 35.8049 96.2508 34.0121C95.7721 31.8581 94.6138 30.0361 92.9893 28.7059C91.6817 27.6354 90.3063 27.0955 89.7404 26.8754L86.8416 34.3318L83.9429 41.7881C84.2866 41.9218 83.6291 41.721 82.853 41.0856C82.392 40.7081 81.8848 40.1805 81.4506 39.48C81.016 38.7789 80.7652 38.0833 80.6318 37.4832C80.3973 36.4279 80.5493 35.7536 80.5103 36.0085C80.4826 36.1896 80.392 36.6342 80.1422 37.563L87.8678 39.6404ZM86.8416 34.3318L89.7404 26.8754L82.7911 24.1738L79.8923 31.6301L76.9935 39.0865L83.9429 41.7881L86.8416 34.3318ZM79.8923 31.6301L72.436 28.7314L68.6212 38.5439L76.0775 41.4427L83.5339 44.3415L87.3487 34.5289L79.8923 31.6301ZM76.0775 41.4427L73.1788 48.899L77.7719 50.6847L80.6706 43.2283L83.5694 35.772L78.9763 33.9863L76.0775 41.4427ZM80.6706 43.2283L77.7719 50.6847C78.2214 50.8594 79.4308 51.3381 80.8534 51.511C82.6493 51.7293 84.9378 51.4916 87.1012 50.0487C88.9134 48.84 89.9015 47.2519 90.3857 46.3817C90.91 45.4396 91.3311 44.4204 91.6675 43.5552L84.2112 40.6564L76.7548 37.7577C76.4766 38.4732 76.3754 38.6543 76.4048 38.6014C76.432 38.5524 76.5643 38.3183 76.8196 38.0038C77.0816 37.681 77.5356 37.1964 78.2233 36.7377C78.9468 36.2552 79.7865 35.897 80.6932 35.7152C81.5648 35.5404 82.2965 35.5687 82.7837 35.6279C83.5639 35.7227 84.0296 35.9509 83.5694 35.772L80.6706 43.2283ZM84.2112 40.6564L81.3124 48.1128L81.9686 48.3679L84.8673 40.9115L87.7661 33.4552L87.1099 33.2001L84.2112 40.6564ZM84.8673 40.9115L77.411 38.0128L74.3499 45.8867L81.8062 48.7854L89.2626 51.6842L92.3237 43.8103L84.8673 40.9115ZM81.8062 48.7854L84.705 41.3291L84.0488 41.074L81.1501 48.5303L78.2513 55.9867L78.9074 56.2418L81.8062 48.7854ZM81.1501 48.5303L88.6064 51.4291C88.9428 50.5639 89.3206 49.5279 89.5703 48.4791C89.801 47.5103 90.1451 45.6718 89.6252 43.5565C89.0044 41.0312 87.4774 39.3102 86.0057 38.2581C84.8399 37.4247 83.6247 36.9608 83.1752 36.786L80.2764 44.2424L77.3776 51.6987C77.8378 51.8776 77.3403 51.7314 76.7009 51.2743C76.3016 50.9889 75.743 50.5156 75.2183 49.7979C74.6726 49.0514 74.2952 48.2201 74.0876 47.3756C73.8903 46.5728 73.8829 45.9088 73.9077 45.4938C73.9318 45.0895 73.9925 44.8275 74.0055 44.773C74.0195 44.7141 73.9719 44.9161 73.6937 45.6316L81.1501 48.5303ZM80.2764 44.2424L83.1752 36.786L78.5821 35.0004L75.6833 42.4567L72.7845 49.9131L77.3776 51.6987L80.2764 44.2424ZM75.6833 42.4567L68.2269 39.558L64.6093 48.8635L72.0656 51.7623L79.522 54.661L83.1396 45.3555L75.6833 42.4567ZM72.0656 51.7623L64.6093 48.8635C64.4232 49.3421 64.1213 50.1585 63.9358 51.1098C63.7474 52.076 63.5544 53.7819 64.193 55.7313C65.578 59.9592 69.4343 61.2796 69.9077 61.4636L72.8065 54.0073L75.7053 46.5509C75.707 46.5516 75.818 46.5942 75.9911 46.6806C76.1613 46.7655 76.4771 46.935 76.8546 47.2118C77.6923 47.8262 78.8136 48.9664 79.398 50.7504C79.9287 52.3703 79.7345 53.6874 79.64 54.1719C79.5485 54.6414 79.4356 54.8833 79.522 54.661L72.0656 51.7623ZM72.8065 54.0073L69.9077 61.4636L75.7535 63.7363L78.6523 56.2799L81.5511 48.8236L75.7053 46.5509L72.8065 54.0073ZM78.6523 56.2799L75.7535 63.7363C76.4793 64.0184 77.9542 64.5531 79.7978 64.571C81.9001 64.5914 83.7412 63.9518 85.255 63.0083C87.5372 61.5858 89.3699 59.1939 90.7097 57.4344L84.345 52.5877L77.9802 47.7411C77.2477 48.7031 76.7848 49.2672 76.4828 49.6003C76.1435 49.9745 76.2784 49.7498 76.792 49.4297C77.0922 49.2426 77.5421 49.0089 78.1313 48.8313C78.7373 48.6488 79.357 48.566 79.9528 48.5718C81.0407 48.5823 81.735 48.8951 81.5511 48.8236L78.6523 56.2799ZM84.345 52.5877L79.5093 58.9608L80.0661 59.3833L84.9018 53.0102L89.7374 46.6371L89.1807 46.2146L84.345 52.5877ZM84.9018 53.0102L78.578 48.1102L74.8571 52.9123L81.1809 57.8123L87.5047 62.7122L91.2255 57.9102L84.9018 53.0102ZM81.1809 57.8123L74.7724 53.0236L74.4146 53.5025L80.823 58.2912L87.2315 63.0798L87.5894 62.6009L81.1809 57.8123ZM80.823 58.2912L83.7218 50.8348L68.9582 45.0953L66.0595 52.5516L63.1607 60.008L77.9243 65.7475L80.823 58.2912ZM66.0595 52.5516L73.5158 55.4504L73.7593 54.824L66.303 51.9253L58.8466 49.0265L58.6031 49.6528L66.0595 52.5516ZM66.303 51.9253L63.4042 59.3816C64.2165 59.6974 65.2537 60.0736 66.34 60.3086C67.3805 60.5338 69.2954 60.8238 71.4666 60.1505C73.9342 59.3853 75.49 57.7849 76.3857 56.4599C77.124 55.368 77.5565 54.2413 77.7308 53.793L70.2744 50.8943L62.8181 47.9955C62.6387 48.4569 62.7559 48.0531 63.1306 47.4989C63.6627 46.7117 64.8067 45.4641 66.7278 44.8684C68.3524 44.3646 69.586 44.6407 69.724 44.6706C69.9076 44.7103 69.8211 44.7097 69.2017 44.4689L66.303 51.9253ZM70.2744 50.8943L77.7308 53.793L84.7806 35.6592L77.3242 32.7604L69.8679 29.8616L62.8181 47.9955L70.2744 50.8943ZM77.3242 32.7604L84.7806 35.6592C84.9549 35.2109 85.3969 34.0879 85.5901 32.784C85.8245 31.2019 85.7583 28.971 84.4554 26.7399C83.3091 24.777 81.7012 23.6974 80.7818 23.1606C79.8221 22.6003 78.8031 22.1771 77.9908 21.8613L75.092 29.3176L72.1933 36.774C72.8126 37.0147 72.8769 37.0727 72.7146 36.978C72.5927 36.9068 71.4965 36.2772 70.6388 34.8084C69.6245 33.0715 69.6236 31.3788 69.7629 30.4389C69.8609 29.7772 70.0473 29.4002 69.8679 29.8616L77.3242 32.7604ZM75.092 29.3176L82.5484 32.2164L82.7919 31.5901L75.3355 28.6913L67.8792 25.7925L67.6357 26.4188L75.092 29.3176ZM75.3355 28.6913L72.4368 36.1476L87.081 41.8408L89.9798 34.3845L92.8786 26.9281L78.2343 21.2349L75.3355 28.6913ZM87.6169 58.1104L80.4498 54.5561L87.6169 58.1104ZM88.414 61.1847L95.5811 64.739L99.1354 57.5719L91.9683 54.0176L88.414 61.1847ZM88.1154 61.7867L84.5611 68.9538L91.7282 72.5081L95.2825 65.341L88.1154 61.7867ZM82.7832 59.1423L75.6161 55.588L72.0618 62.755L79.2288 66.3093L82.7832 59.1423ZM83.0817 58.5402L86.636 51.3732L79.469 47.8189L75.9146 54.9859L83.0817 58.5402ZM86.0114 57.3142L78.8444 53.7599L86.0114 57.3142ZM93.8901 37.7541L85.8958 37.454L85.5902 45.5927L93.7331 45.7526L93.8901 37.7541ZM93.9165 37.0528L94.2038 29.058L86.2218 28.771L85.9221 36.7526L93.9165 37.0528ZM97.5662 37.184L105.029 34.3025L103.128 29.3788L97.8536 29.1892L97.5662 37.184ZM97.7538 37.67L104.921 41.2243L106.484 38.0715L105.217 34.7885L97.7538 37.67ZM87.6169 58.1104L80.4498 54.5561C80.2117 55.0362 79.8017 55.878 79.5036 56.8267C79.2019 57.7868 78.7635 59.6108 79.2636 61.7924C79.8061 64.159 81.1646 65.753 82.2877 66.7061C83.2723 67.5415 84.2954 68.0719 84.8597 68.3517L88.414 61.1847L91.9683 54.0176C91.7013 53.8852 92.0989 54.0472 92.6403 54.5067C93.3203 55.0838 94.4182 56.2941 94.8591 58.2173C95.2576 59.9556 94.8766 61.2767 94.7679 61.6226C94.6628 61.9572 94.5813 62.0733 94.7839 61.6647L87.6169 58.1104ZM88.414 61.1847L81.2469 57.6303L80.9484 58.2324L88.1154 61.7867L95.2825 65.341L95.5811 64.739L88.414 61.1847ZM88.1154 61.7867L91.6698 54.6196L86.3375 51.9752L82.7832 59.1423L79.2288 66.3093L84.5611 68.9538L88.1154 61.7867ZM82.7832 59.1423L89.9502 62.6966L90.2488 62.0946L83.0817 58.5402L75.9146 54.9859L75.6161 55.588L82.7832 59.1423ZM83.0817 58.5402L79.5274 65.7073C80.0917 65.9872 81.1331 66.4807 82.394 66.7588C83.8325 67.076 85.9236 67.1927 88.1358 66.1924C90.1752 65.2701 91.3619 63.8172 91.9436 62.996C92.5185 62.1846 92.9404 61.3487 93.1785 60.8686L86.0114 57.3142L78.8444 53.7599C78.6418 54.1685 78.6849 54.0333 78.8876 53.7472C79.0972 53.4514 79.9183 52.3485 81.5433 51.6137C83.3411 50.8007 84.969 50.9422 85.84 51.1343C86.5335 51.2872 86.9031 51.5056 86.636 51.3732L83.0817 58.5402ZM86.0114 57.3142L93.1785 60.8686L101.823 43.4383L94.6556 39.884L87.4885 36.3296L78.8444 53.7599L86.0114 57.3142ZM94.6556 39.884L101.823 43.4383C101.956 43.1686 102.317 42.4629 102.567 41.8585C102.707 41.5225 102.946 40.9107 103.114 40.1491C103.275 39.4171 103.49 38.0343 103.111 36.3751C102.094 31.918 98.3469 30.4754 96.9585 30.1108C95.6958 29.7792 94.4728 29.764 94.0472 29.7557L93.8901 37.7541L93.7331 45.7526C94.2449 45.7626 93.6982 45.7971 92.8948 45.5861C92.4318 45.4646 91.3456 45.1307 90.2109 44.2277C88.8915 43.1777 87.9097 41.6762 87.5125 39.936C87.1682 38.4279 87.3742 37.2238 87.4891 36.703C87.6105 36.1528 87.7649 35.7848 87.7875 35.7303C87.8047 35.6888 87.8026 35.6963 87.4885 36.3296L94.6556 39.884ZM93.8901 37.7541L101.884 38.0543L101.911 37.353L93.9165 37.0528L85.9221 36.7526L85.8958 37.454L93.8901 37.7541ZM93.9165 37.0528L93.6291 45.0476L97.2788 45.1788L97.5662 37.184L97.8536 29.1892L94.2038 29.058L93.9165 37.0528ZM97.5662 37.184L90.1031 40.0655L90.2907 40.5514L97.7538 37.67L105.217 34.7885L105.029 34.3025L97.5662 37.184ZM97.7538 37.67L90.5867 34.1156L80.4498 54.5561L87.6169 58.1104L94.7839 61.6647L104.921 41.2243L97.7538 37.67ZM100.618 61.1236L104.598 54.1842L98.8181 50.8687L94.5123 55.9541L100.618 61.1236ZM101.201 61.4579L107.701 66.1215L112.864 58.9253L105.181 54.5185L101.201 61.4579ZM102.419 59.2055L98.4383 66.1449L105.378 70.1254L109.358 63.186L102.419 59.2055ZM95.2018 55.0658L99.1823 48.1263L92.2429 44.1458L88.2624 51.0853L95.2018 55.0658ZM101.667 50.8056L105.647 43.8662L101.667 50.8056ZM95.7987 54.1538L89.244 49.5673L84.2262 56.7384L91.8182 61.0933L95.7987 54.1538ZM101.322 57.3223L97.342 64.2617L104.281 68.2422L108.262 61.3028L101.322 57.3223ZM100.618 61.1236L96.6372 68.063L97.2201 68.3974L101.201 61.4579L105.181 54.5185L104.598 54.1842L100.618 61.1236ZM101.201 61.4579L94.7005 56.7944C94.2379 57.4392 93.8708 57.8262 93.6377 58.0363C93.4004 58.2501 93.3652 58.2244 93.5647 58.1346C93.7774 58.039 94.2648 57.8699 94.9696 57.8808C95.7017 57.8921 96.4331 58.0961 97.0578 58.4545L93.0773 65.3939L89.0968 72.3333C92.7404 74.4233 96.7773 74.234 100.129 72.726C103.247 71.3233 105.743 68.8501 107.701 66.1215L101.201 61.4579ZM93.0773 65.3939L97.0578 58.4545C97.6538 58.7964 98.2397 59.3751 98.6158 60.1223C98.9613 60.8086 98.9746 61.3233 98.9732 61.4269C98.9719 61.5185 98.9622 61.345 99.1178 60.8727C99.2688 60.4145 99.538 59.7903 99.9781 59.0229L93.0387 55.0424L86.0993 51.0619C84.4095 54.0077 83.0241 57.5399 82.9746 61.2113C82.9202 65.2479 84.5871 69.7465 89.0968 72.3333L93.0773 65.3939ZM93.0387 55.0424L99.9781 59.0229C100.33 58.4094 100.689 57.9296 101.002 57.5866C101.156 57.4179 101.286 57.2965 101.384 57.2144C101.483 57.1316 101.534 57.101 101.531 57.103C101.528 57.1047 101.45 57.1512 101.293 57.2052C101.135 57.2599 100.886 57.3259 100.556 57.3525C99.8221 57.4116 99.0052 57.2474 98.3107 56.849L102.291 49.9096L106.272 42.9702C101.524 40.2468 96.6528 41.3937 93.3689 43.3413C90.2171 45.2106 87.787 48.1197 86.0993 51.0619L93.0387 55.0424ZM102.291 49.9096L98.3107 56.849C97.6352 56.4615 97.019 55.8392 96.6223 55.0694C96.2536 54.3537 96.2135 53.7865 96.2128 53.5903C96.2121 53.4044 96.243 53.4637 96.1365 53.7999C96.0338 54.124 95.8342 54.6065 95.4794 55.225L102.419 59.2055L109.358 63.186C110.955 60.4016 112.225 57.0463 112.213 53.5334C112.199 49.7111 110.56 45.4302 106.272 42.9702L102.291 49.9096ZM102.419 59.2055L106.399 52.2661L99.1823 48.1263L95.2018 55.0658L91.2213 62.0052L98.4383 66.1449L102.419 59.2055ZM95.2018 55.0658L88.2624 51.0853L87.9121 51.6959L94.8516 55.6764L101.791 59.6569L102.141 59.0463L95.2018 55.0658ZM94.8516 55.6764L87.9121 51.6959C86.5152 54.1313 85.3406 57.0785 85.0589 60.0961C84.8051 62.8148 85.193 68.2127 90.2974 71.1406L94.2779 64.2012L98.2584 57.2617C99.6312 58.0492 100.413 59.2416 100.755 60.2114C100.91 60.6502 100.964 61.0022 100.983 61.2161C101.003 61.4313 100.992 61.5595 100.99 61.5834C100.987 61.6133 101.005 61.427 101.146 61.029C101.281 60.6479 101.493 60.1764 101.791 59.6569L94.8516 55.6764ZM94.2779 64.2012L90.2974 71.1406C93.4803 72.9663 97.0162 72.8452 99.9872 71.5956C102.669 70.4677 104.883 68.4669 106.723 66.2931L100.618 61.1236L94.5123 55.9541C93.4935 57.1573 93.2173 57.0854 93.784 56.847C94.1275 56.7026 94.7771 56.5032 95.6587 56.5273C96.5703 56.5522 97.4723 56.8108 98.2584 57.2617L94.2779 64.2012ZM101.667 50.8056L105.647 43.8662C101.178 41.3029 96.8446 42.8691 94.5114 44.3301C92.2224 45.7634 90.4718 47.8126 89.244 49.5673L95.7987 54.1538L102.353 58.7404C102.968 57.8626 103.263 57.7282 103.003 57.8907C102.835 57.9963 102.23 58.346 101.24 58.4683C100.125 58.6061 98.8405 58.4072 97.6861 57.745L101.667 50.8056ZM95.7987 54.1538L91.8182 61.0933L97.342 64.2617L101.322 57.3223L105.303 50.3829L99.7792 47.2144L95.7987 54.1538ZM101.322 57.3223L108.262 61.3028C109.239 59.6 110.367 57.1657 110.689 54.4724C111.02 51.7018 110.543 46.6745 105.647 43.8662L101.667 50.8056L97.6861 57.745C96.4614 57.0425 95.5504 55.9088 95.0974 54.6673C94.7058 53.5938 94.7766 52.7877 94.8023 52.573C94.8426 52.236 94.8552 52.5187 94.3831 53.3418L101.322 57.3223ZM115.439 76.6239L109.012 71.8601L115.439 76.6239ZM115.706 79.8096L122.134 84.5733L126.897 78.1463L120.47 73.3825L115.706 79.8096ZM115.306 80.3495L110.543 86.7765L116.97 91.5402L121.733 85.1132L115.306 80.3495ZM110.576 76.8434L104.149 72.0797L99.3853 78.5067L105.812 83.2704L110.576 76.8434ZM110.976 76.3035L115.74 69.8764L109.313 65.1127L104.549 71.5398L110.976 76.3035ZM114.025 75.5758L107.598 70.8121L114.025 75.5758ZM120.008 67.5035L113.581 62.7397L120.008 67.5035ZM120.137 64.2131L115.373 70.6401L120.137 64.2131ZM115.565 63.9317L113.608 56.175L110.839 56.8738L109.138 59.168L115.565 63.9317ZM115.413 64.1374L108.986 59.3737L115.413 64.1374ZM109.639 75.3126L116.066 80.0764L120.83 73.6493L114.403 68.8856L109.639 75.3126ZM109.239 75.8525L104.475 82.2796L110.903 87.0433L115.666 80.6162L109.239 75.8525ZM104.56 72.3845L98.1332 67.6208L93.3695 74.0479L99.7966 78.8116L104.56 72.3845ZM104.96 71.8447L109.724 65.4176L103.297 60.6539L98.5334 67.081L104.96 71.8447ZM114.121 59.7542L109.357 66.1813L114.121 59.7542ZM109.531 59.4986L107.466 51.7695L104.767 52.4904L103.104 54.7349L109.531 59.4986ZM103.624 70.8538L110.051 75.6175L114.814 69.1905L108.387 64.4268L103.624 70.8538ZM103.223 71.3937L98.4598 77.8207L104.887 82.5845L109.651 76.1574L103.223 71.3937ZM98.4932 67.8876L92.0661 63.1239L87.3024 69.5509L93.7294 74.3146L98.4932 67.8876ZM98.8933 67.3477L103.657 60.9207L97.23 56.157L92.4663 62.584L98.8933 67.3477ZM108.301 58.1488L101.874 53.385L108.301 58.1488ZM107.923 55.9172L100.076 54.3634L98.5482 62.0775L106.235 63.7371L107.923 55.9172ZM108.054 55.2573L109.686 47.4255L101.776 45.7772L100.206 53.7035L108.054 55.2573ZM111.642 56.005L119.555 54.8289L118.735 49.3112L113.274 48.1732L111.642 56.005ZM111.722 56.5422L118.149 61.3059L120.122 58.6437L119.635 55.366L111.722 56.5422ZM110.179 58.6245L103.751 53.8608L98.9878 60.2879L105.415 65.0516L110.179 58.6245ZM110.256 58.6817L105.492 65.1088L108.896 67.6317L112.896 66.2336L110.256 58.6817ZM115.447 58.8251L110.683 65.2522L115.447 58.8251ZM116.117 63.0262L109.09 59.202L105.765 65.3114L111.353 69.4533L116.117 63.0262ZM116.194 63.0834L111.431 69.5104L114.731 71.9565L118.642 70.6998L116.194 63.0834ZM121.403 68.5772L114.976 63.8135L121.403 68.5772ZM115.439 76.6239L109.012 71.8601C108.694 72.289 108.137 73.0504 107.674 73.9392C107.203 74.8434 106.45 76.5775 106.573 78.8299C106.706 81.2581 107.776 83.0563 108.706 84.1744C109.524 85.1598 110.433 85.8591 110.943 86.2367L115.706 79.8096L120.47 73.3825C120.221 73.198 120.57 73.4173 121.012 73.9489C121.564 74.6134 122.441 75.9843 122.549 77.9558C122.647 79.7515 122.037 80.9996 121.864 81.3327C121.698 81.6505 121.593 81.7556 121.866 81.3876L115.439 76.6239ZM115.706 79.8096L109.279 75.0459L108.879 75.5858L115.306 80.3495L121.733 85.1132L122.134 84.5733L115.706 79.8096ZM115.306 80.3495L120.07 73.9224L115.34 70.4163L110.576 76.8434L105.812 83.2704L110.543 86.7765L115.306 80.3495ZM110.576 76.8434L117.003 81.6071L117.403 81.0672L110.976 76.3035L104.549 71.5398L104.149 72.0797L110.576 76.8434ZM110.976 76.3035L106.212 82.7306C106.629 83.039 110.082 85.8898 114.662 84.6666C116.789 84.0984 118.182 82.8885 118.879 82.199C119.575 81.5105 120.13 80.7734 120.452 80.3396L114.025 75.5758L107.598 70.8121C107.329 71.1752 107.388 71.0609 107.626 70.8251C107.865 70.5882 108.84 69.6606 110.533 69.2085C112.435 68.7006 114.033 69.0971 114.912 69.4553C115.606 69.7379 115.96 70.0395 115.74 69.8764L110.976 76.3035ZM114.025 75.5758L120.452 80.3396L126.435 72.2672L120.008 67.5035L113.581 62.7397L107.598 70.8121L114.025 75.5758ZM120.008 67.5035L126.435 72.2672C127.29 71.1134 128.762 68.8659 128.874 65.875C129.016 62.0761 126.98 59.3271 124.9 57.786L120.137 64.2131L115.373 70.6401C114.949 70.326 114.258 69.7089 113.697 68.6871C113.099 67.5981 112.843 66.4014 112.885 65.2756C112.957 63.3602 113.85 62.3768 113.581 62.7397L120.008 67.5035ZM120.137 64.2131L124.9 57.786C120.537 54.5515 115.441 55.7122 113.608 56.175L115.565 63.9317L117.523 71.6885C118.053 71.5548 118.118 71.5948 117.871 71.5881C117.591 71.5805 116.526 71.4945 115.373 70.6401L120.137 64.2131ZM115.565 63.9317L109.138 59.168L108.986 59.3737L115.413 64.1374L121.84 68.9011L121.992 68.6955L115.565 63.9317ZM115.413 64.1374L108.986 59.3737L103.022 67.4204L109.449 72.1841L115.876 76.9478L121.84 68.9011L115.413 64.1374ZM109.449 72.1841L103.022 67.4204C102.7 67.8542 102.156 68.6 101.7 69.4659C101.243 70.3332 100.491 72.0182 100.566 74.2188C100.728 78.9566 104.459 81.4313 104.876 81.7397L109.639 75.3126L114.403 68.8856C114.183 68.7225 114.575 68.9738 115.047 69.5553C115.645 70.2924 116.489 71.7059 116.557 73.673C116.616 75.4241 116.012 76.6267 115.855 76.9247C115.699 77.2213 115.607 77.3109 115.876 76.9478L109.449 72.1841ZM109.639 75.3126L103.212 70.5489L102.812 71.0888L109.239 75.8525L115.666 80.6162L116.066 80.0764L109.639 75.3126ZM109.239 75.8525L114.003 69.4255L109.324 65.9575L104.56 72.3845L99.7966 78.8116L104.475 82.2796L109.239 75.8525ZM104.56 72.3845L110.987 77.1483L111.388 76.6084L104.96 71.8447L98.5334 67.081L98.1332 67.6208L104.56 72.3845ZM104.96 71.8447L100.197 78.2717C100.7 78.6444 101.642 79.3175 102.846 79.8133C104.226 80.3819 106.269 80.8477 108.615 80.2386C110.764 79.6805 112.173 78.465 112.88 77.7675C113.582 77.0747 114.142 76.332 114.462 75.8998L108.035 71.1361L101.608 66.3723C101.337 66.7371 101.4 66.6172 101.644 66.3764C101.893 66.1309 102.882 65.1966 104.593 64.7522C106.501 64.2568 108.089 64.6687 108.94 65.0193C109.614 65.2971 109.954 65.588 109.724 65.4176L104.96 71.8447ZM108.035 71.1361L114.462 75.8998L120.445 67.8274L114.018 63.0637L107.591 58.3L101.608 66.3723L108.035 71.1361ZM114.018 63.0637L120.445 67.8274C121.34 66.6206 122.798 64.3446 122.874 61.3284C122.969 57.5741 120.951 54.8588 118.885 53.3272L114.121 59.7542L109.357 66.1813C108.932 65.8659 108.256 65.2596 107.704 64.2649C107.117 63.2084 106.851 62.039 106.879 60.9236C106.928 58.9924 107.821 57.99 107.591 58.3L114.018 63.0637ZM114.121 59.7542L118.885 53.3272C116.566 51.6083 114.047 51.1915 112.26 51.1475C110.45 51.1029 108.776 51.4197 107.466 51.7695L109.531 59.4986L111.595 67.2277C112.023 67.1133 112.092 67.1482 111.866 67.1426C111.663 67.1376 110.571 67.0808 109.357 66.1813L114.121 59.7542ZM109.531 59.4986L103.104 54.7349L97.0061 62.9615L103.433 67.7252L109.86 72.489L115.958 64.2623L109.531 59.4986ZM103.433 67.7252L97.0061 62.9615C96.7001 63.3743 96.1619 64.1078 95.7097 64.9501C95.2596 65.7887 94.4785 67.4761 94.5388 69.6969C94.6054 72.1512 95.6469 74.0042 96.6054 75.1815C97.4344 76.1999 98.3611 76.9111 98.8599 77.2809L103.624 70.8538L108.387 64.4268C108.154 64.2534 108.542 64.5013 109.014 65.0803C109.614 65.8182 110.478 67.2559 110.533 69.263C110.581 71.0366 109.953 72.2452 109.807 72.5174C109.659 72.7934 109.575 72.8731 109.86 72.489L103.433 67.7252ZM103.624 70.8538L97.1966 66.0901L96.7964 66.63L103.223 71.3937L109.651 76.1574L110.051 75.6175L103.624 70.8538ZM103.223 71.3937L107.987 64.9666L103.257 61.4605L98.4932 67.8876L93.7294 74.3146L98.4598 77.8207L103.223 71.3937ZM98.4932 67.8876L104.92 72.6513L105.32 72.1114L98.8933 67.3477L92.4663 62.584L92.0661 63.1239L98.4932 67.8876ZM98.8933 67.3477L94.1296 73.7748C94.6357 74.1499 95.5735 74.8194 96.7656 75.3158C98.1254 75.882 100.163 76.366 102.517 75.7719C104.687 75.2242 106.112 74.0035 106.829 73.2979C107.539 72.6007 108.101 71.8524 108.421 71.4219L101.993 66.6582L95.5664 61.8945C95.2948 62.2609 95.3612 62.1354 95.6112 61.8896C95.8697 61.6354 96.8726 60.6948 98.6018 60.2583C100.515 59.7755 102.092 60.2021 102.916 60.545C103.571 60.8179 103.897 61.0982 103.657 60.9207L98.8933 67.3477ZM101.993 66.6582L108.421 71.4219L114.728 62.9125L108.301 58.1488L101.874 53.385L95.5664 61.8945L101.993 66.6582ZM108.301 58.1488L114.728 62.9125C114.901 62.679 115.38 62.0489 115.733 61.4974C115.93 61.1896 116.273 60.6276 116.572 59.9043C116.862 59.2044 117.308 57.8905 117.229 56.2069C117.018 51.7345 113.706 49.6383 112.402 49.0068C111.226 48.4376 110.031 48.188 109.611 48.0974L107.923 55.9172L106.235 63.7371C106.725 63.8429 106.18 63.7713 105.431 63.4083C104.997 63.1982 104.011 62.6678 103.082 61.5849C102.008 60.3326 101.329 58.711 101.246 56.9583C101.174 55.4295 101.58 54.2892 101.788 53.7873C102.005 53.2622 102.224 52.9229 102.259 52.8684C102.288 52.8233 102.291 52.8215 101.874 53.385L108.301 58.1488ZM107.923 55.9172L115.771 57.4711L115.902 56.8111L108.054 55.2573L100.206 53.7035L100.076 54.3634L107.923 55.9172ZM108.054 55.2573L106.422 63.0891L110.01 63.8368L111.642 56.005L113.274 48.1732L109.686 47.4255L108.054 55.2573ZM111.642 56.005L103.729 57.1812L103.809 57.7183L111.722 56.5422L119.635 55.366L119.555 54.8289L111.642 56.005ZM111.722 56.5422L105.295 51.7785L103.751 53.8608L110.179 58.6245L116.606 63.3882L118.149 61.3059L111.722 56.5422ZM110.179 58.6245L105.415 65.0516L105.492 65.1088L110.256 58.6817L115.019 52.2546L114.942 52.1975L110.179 58.6245ZM110.256 58.6817L112.896 66.2336C113.467 66.0339 113.486 66.102 113.143 66.1061C112.934 66.1086 112.566 66.0875 112.102 65.9544C111.622 65.8163 111.13 65.5833 110.683 65.2522L115.447 58.8251L120.211 52.3981C115.338 48.7864 109.922 50.3237 107.616 51.1298L110.256 58.6817ZM115.447 58.8251L110.683 65.2522C110.035 64.7714 108.974 63.5897 108.742 61.728C108.644 60.9358 108.737 60.2931 108.843 59.8769C108.945 59.4744 109.068 59.2437 109.09 59.202L116.117 63.0262L123.144 66.8504C124.024 65.2327 124.991 62.7365 124.62 59.7531C124.212 56.4764 122.376 54.003 120.211 52.3981L115.447 58.8251ZM116.117 63.0262L111.353 69.4533L111.431 69.5104L116.194 63.0834L120.958 56.6563L120.881 56.5992L116.117 63.0262ZM116.194 63.0834L118.642 70.6998C119.23 70.5107 119.301 70.5618 119.023 70.5607C118.85 70.56 118.519 70.5385 118.091 70.4128C117.646 70.2822 117.17 70.06 116.725 69.7301L121.488 63.303L126.252 56.876C121.476 53.3358 116.096 54.7121 113.747 55.467L116.194 63.0834ZM121.488 63.303L116.725 69.7301C116.382 69.4764 115.777 68.924 115.306 67.9773C114.816 66.9914 114.672 65.9759 114.731 65.1259C114.785 64.3499 114.996 63.8554 115.061 63.7156C115.128 63.5702 115.135 63.5983 114.976 63.8135L121.403 68.5772L127.83 73.3409C128.899 71.8988 130.47 69.417 130.692 66.2408C130.969 62.2762 129.074 58.9678 126.252 56.876L121.488 63.303ZM121.403 68.5772L114.976 63.8135L109.012 71.8601L115.439 76.6239L121.866 81.3876L127.83 73.3409L121.403 68.5772ZM127.248 82.4255L132.76 76.6269L127.93 72.0362L122.542 75.9565L127.248 82.4255ZM127.735 82.8885L132.945 88.9594L139.666 83.1916L133.247 77.0899L127.735 82.8885ZM131.531 71.9274L126.02 77.726L131.531 71.9274ZM129.453 80.9888L123.941 86.7874L129.74 92.2989L135.251 86.5003L129.453 80.9888ZM123.422 75.2569L128.934 69.4583L123.135 63.9468L117.624 69.7454L123.422 75.2569ZM122.937 75.7672L117.138 70.2557L122.937 75.7672ZM124.218 74.5124L118.937 68.5033L112.363 74.2812L118.707 80.311L124.218 74.5124ZM128.834 78.8995L123.322 84.6981L129.121 90.2096L134.632 84.411L128.834 78.8995ZM127.248 82.4255L121.737 88.2241L122.224 88.6871L127.735 82.8885L133.247 77.0899L132.76 76.6269L127.248 82.4255ZM127.735 82.8885L122.525 76.8175C121.923 77.3343 121.475 77.6233 121.199 77.7722C120.917 77.9237 120.889 77.8904 121.104 77.8504C121.334 77.8079 121.847 77.7591 122.529 77.9367C123.238 78.1212 123.9 78.4927 124.422 78.9889L118.911 84.7875L113.399 90.5861C116.444 93.4799 120.411 94.2525 124.024 93.5817C127.386 92.9578 130.397 91.1464 132.945 88.9594L127.735 82.8885ZM118.911 84.7875L124.422 78.9889C124.92 79.4622 125.352 80.1634 125.541 80.9784C125.714 81.727 125.605 82.2302 125.579 82.3305C125.556 82.4192 125.587 82.2483 125.851 81.8264C126.106 81.417 126.515 80.8743 127.125 80.2331L121.326 74.7216L115.528 69.2101C113.188 71.6717 111.005 74.775 110.087 78.3301C109.078 82.2388 109.631 87.0044 113.399 90.5861L118.911 84.7875ZM121.326 74.7216L127.125 80.2331C127.612 79.7205 128.074 79.3393 128.459 79.0803C128.649 78.9528 128.804 78.8657 128.919 78.8092C129.034 78.7521 129.092 78.7347 129.088 78.7358C129.085 78.7368 128.998 78.7634 128.833 78.7788C128.666 78.7944 128.408 78.7995 128.082 78.7473C127.355 78.6307 126.6 78.2776 126.02 77.726L131.531 71.9274L137.043 66.1288C133.076 62.3581 128.071 62.318 124.42 63.432C120.915 64.5012 117.864 66.7516 115.528 69.2101L121.326 74.7216ZM131.531 71.9274L126.02 77.726C125.455 77.1895 125.004 76.4389 124.801 75.597C124.613 74.8143 124.708 74.2538 124.754 74.063C124.797 73.8822 124.813 73.9471 124.63 74.2486C124.453 74.5391 124.145 74.9605 123.654 75.4774L129.453 80.9888L135.251 86.5003C137.463 84.1737 139.491 81.2148 140.312 77.799C141.204 74.0823 140.626 69.535 137.043 66.1288L131.531 71.9274ZM129.453 80.9888L134.964 75.1902L128.934 69.4583L123.422 75.2569L117.911 81.0555L123.941 86.7874L129.453 80.9888ZM123.422 75.2569L117.624 69.7454L117.138 70.2557L122.937 75.7672L128.736 81.2786L129.221 80.7684L123.422 75.2569ZM122.937 75.7672L117.138 70.2557C115.204 72.2907 113.365 74.8756 112.376 77.7406C111.485 80.3217 110.583 85.6577 114.848 89.7118L120.36 83.9132L125.871 78.1146C127.018 79.2049 127.495 80.5486 127.598 81.572C127.645 82.035 127.614 82.3896 127.582 82.602C127.549 82.8156 127.508 82.9377 127.501 82.9603C127.491 82.9888 127.552 82.812 127.784 82.4588C128.005 82.1206 128.323 81.7127 128.736 81.2786L122.937 75.7672ZM120.36 83.9132L114.848 89.7118C117.508 92.2397 120.972 92.9599 124.154 92.4499C127.027 91.9895 129.652 90.5703 131.955 88.8945L127.248 82.4255L122.542 75.9565C121.267 76.884 121.016 76.7487 121.623 76.6515C121.99 76.5925 122.669 76.5527 123.52 76.7851C124.399 77.0253 125.214 77.4903 125.871 78.1146L120.36 83.9132ZM130.712 72.6499L136.224 66.8513C132.49 63.3022 127.908 63.7968 125.295 64.6634C122.732 65.5135 120.545 67.0895 118.937 68.5033L124.218 74.5124L129.499 80.5214C130.304 79.8142 130.622 79.7535 130.332 79.85C130.143 79.9125 129.473 80.1091 128.482 79.9934C127.366 79.863 126.165 79.3654 125.201 78.4485L130.712 72.6499ZM124.218 74.5124L118.707 80.311L123.322 84.6981L128.834 78.8995L134.345 73.1009L129.73 68.7138L124.218 74.5124ZM128.834 78.8995L134.632 84.411C135.985 82.9881 137.658 80.8905 138.609 78.3503C139.587 75.7371 140.315 70.7398 136.224 66.8513L130.712 72.6499L125.201 78.4485C124.177 77.4758 123.561 76.1585 123.415 74.845C123.289 73.7093 123.549 72.9429 123.625 72.7405C123.744 72.4226 123.689 72.7002 123.035 73.388L128.834 78.8995ZM138.956 80.243L144.21 86.2764L146.709 84.1004L146.937 80.7946L138.956 80.243ZM137.001 81.9451L131.748 75.9117L125.715 81.165L130.968 87.1985L137.001 81.9451ZM137.065 82.0175L131.031 87.2709L133.813 90.4663L138.02 89.9602L137.065 82.0175ZM142.125 83.2971L136.091 88.5505L142.125 83.2971ZM132.973 98.2241L138.227 104.258L144.26 99.0042L139.007 92.9707L132.973 98.2241ZM132.466 98.6654L126.433 103.919L131.686 109.952L137.72 104.699L132.466 98.6654ZM128.579 94.2006L123.326 88.1672L117.292 93.4206L122.545 99.454L128.579 94.2006ZM129.086 93.7594L135.119 88.506L129.866 82.4726L123.832 87.7259L129.086 93.7594ZM139.794 87.1507L134.541 81.1173L139.794 87.1507ZM136.181 82.6595L135.826 74.6674L133.035 74.7915L130.928 76.6261L136.181 82.6595ZM127.972 92.4803L133.225 98.5137L139.259 93.2603L134.005 87.2269L127.972 92.4803ZM127.465 92.9216L121.432 98.1749L126.685 104.208L132.719 98.955L127.465 92.9216ZM123.599 88.481L118.345 82.4475L112.312 87.7009L117.565 93.7343L123.599 88.481ZM124.105 88.0397L130.139 82.7863L124.886 76.7529L118.852 82.0063L124.105 88.0397ZM135.381 78.8164L128.05 75.6127L124.901 82.8184L132.051 86.0908L135.381 78.8164ZM135.65 78.2L138.927 70.9018L131.555 67.5923L128.319 74.9962L135.65 78.2ZM138.994 79.7012L146.975 80.2528L147.359 74.6878L142.27 72.403L138.994 79.7012ZM138.956 80.243L133.703 74.2096L131.748 75.9117L137.001 81.9451L142.255 87.9785L144.21 86.2764L138.956 80.243ZM137.001 81.9451L130.968 87.1985L131.031 87.2709L137.065 82.0175L143.098 76.7641L143.035 76.6917L137.001 81.9451ZM137.065 82.0175L138.02 89.9602C138.54 89.8977 138.555 89.9636 138.244 89.8965C137.842 89.8097 136.908 89.489 136.091 88.5505L142.125 83.2971L148.158 78.0438C144.241 73.5448 138.66 73.7678 136.109 74.0748L137.065 82.0175ZM142.125 83.2971L136.091 88.5505C135.81 88.2276 135.354 87.5763 135.101 86.5884C134.839 85.5632 134.897 84.5716 135.122 83.7647C135.499 82.4083 136.205 82.002 135.697 82.4446L140.95 88.4781L146.204 94.5115C147.626 93.273 149.676 91.1451 150.536 88.0529C151.587 84.2738 150.45 80.6758 148.158 78.0438L142.125 83.2971ZM140.95 88.4781L135.697 82.4446L128.143 89.0218L133.396 95.0553L138.65 101.089L146.204 94.5115L140.95 88.4781ZM133.396 95.0553L128.143 89.0218C127.74 89.3724 127.033 89.9964 126.39 90.765C125.736 91.5468 124.627 93.0785 124.263 95.3047C123.871 97.7047 124.531 99.691 125.198 100.983C125.786 102.121 126.523 102.999 126.94 103.477L132.973 98.2241L139.007 92.9707C138.803 92.737 139.096 93.0261 139.414 93.6402C139.81 94.4079 140.372 95.9352 140.054 97.8839C139.764 99.6587 138.9 100.747 138.659 101.035C138.429 101.309 138.304 101.39 138.65 101.089L133.396 95.0553ZM132.973 98.2241L127.72 92.1907L127.213 92.632L132.466 98.6654L137.72 104.699L138.227 104.258L132.973 98.2241ZM132.466 98.6654L138.5 93.412L134.612 88.9473L128.579 94.2006L122.545 99.454L126.433 103.919L132.466 98.6654ZM128.579 94.2006L133.832 100.234L134.339 99.7928L129.086 93.7594L123.832 87.7259L123.326 88.1672L128.579 94.2006ZM129.086 93.7594L123.052 99.0127C123.463 99.4848 124.239 100.345 125.308 101.088C126.534 101.939 128.43 102.833 130.851 102.742C133.07 102.659 134.707 101.775 135.548 101.246C136.383 100.72 137.088 100.115 137.494 99.7613L132.241 93.7279L126.987 87.6945C126.645 87.9926 126.732 87.889 127.022 87.7063C127.318 87.52 128.484 86.82 130.251 86.7537C132.221 86.6798 133.683 87.4233 134.439 87.9485C135.038 88.3647 135.307 88.7217 135.119 88.506L129.086 93.7594ZM132.241 93.7279L137.494 99.7613L145.048 93.1841L139.794 87.1507L134.541 81.1173L126.987 87.6945L132.241 93.7279ZM139.794 87.1507L145.048 93.1841C146.203 92.1779 148.039 90.3193 148.809 87.5188C149.773 84.0117 148.637 80.7861 146.715 78.5791L140.682 83.8325L134.648 89.0858C134.223 88.5974 133.672 87.7808 133.369 86.6267C133.054 85.4288 133.111 84.2606 133.381 83.2767C133.848 81.5779 134.809 80.8837 134.541 81.1173L139.794 87.1507ZM140.682 83.8325L146.715 78.5791C144.706 76.2724 142.17 75.3848 140.488 75.0143C138.751 74.6317 137.081 74.6116 135.826 74.6674L136.181 82.6595L136.536 90.6516C137.078 90.6276 137.206 90.6751 137.045 90.6395C136.938 90.616 135.753 90.3548 134.648 89.0858L140.682 83.8325ZM136.181 82.6595L130.928 76.6261L123.205 83.3504L128.458 89.3839L133.712 95.4173L141.434 88.693L136.181 82.6595ZM128.458 89.3839L123.205 83.3504C122.797 83.7051 122.106 84.3166 121.475 85.0642C120.842 85.8131 119.745 87.297 119.345 89.4624C118.485 94.1242 121.598 97.343 121.939 97.7336L127.972 92.4803L134.005 87.2269C133.826 87.0204 134.154 87.3499 134.49 88.0193C134.916 88.8677 135.437 90.4296 135.08 92.3652C134.762 94.0883 133.914 95.133 133.696 95.3903C133.48 95.6464 133.371 95.714 133.712 95.4173L128.458 89.3839ZM127.972 92.4803L122.719 86.4469L122.212 86.8881L127.465 92.9216L132.719 98.955L133.225 98.5137L127.972 92.4803ZM127.465 92.9216L133.499 87.6682L129.632 83.2276L123.599 88.481L117.565 93.7343L121.432 98.1749L127.465 92.9216ZM123.599 88.481L128.852 94.5144L129.359 94.0731L124.105 88.0397L118.852 82.0063L118.345 82.4475L123.599 88.481ZM124.105 88.0397L118.072 93.293C118.486 93.7681 119.258 94.6236 120.315 95.3644C121.522 96.2096 123.408 97.1202 125.835 97.0457C128.072 96.9771 129.725 96.0911 130.578 95.5562C131.42 95.0275 132.131 94.4177 132.535 94.0658L127.281 88.0324L122.028 81.9989C121.684 82.2984 121.776 82.1902 122.073 82.0038C122.38 81.8111 123.562 81.1079 125.344 81.0533C127.316 80.9928 128.765 81.7484 129.496 82.2601C130.077 82.6675 130.335 83.0111 130.139 82.7863L124.105 88.0397ZM127.281 88.0324L132.535 94.0658L140.523 87.1103L135.27 81.0769L130.016 75.0435L122.028 81.9989L127.281 88.0324ZM135.27 81.0769L140.523 87.1103C140.742 86.9195 141.345 86.4071 141.809 85.9443C142.067 85.6861 142.523 85.211 142.971 84.5689C143.404 83.9475 144.122 82.76 144.406 81.0988C145.162 76.6856 142.378 73.9267 141.239 73.0296C140.213 72.221 139.1 71.7207 138.71 71.542L135.381 78.8164L132.051 86.0908C132.508 86.2996 131.991 86.1126 131.336 85.5969C130.958 85.2985 130.11 84.5688 129.435 83.3116C128.655 81.8576 128.34 80.128 128.636 78.3985C128.894 76.89 129.536 75.8635 129.846 75.418C130.171 74.9518 130.458 74.6675 130.504 74.6218C130.542 74.5839 130.545 74.5829 130.016 75.0435L135.27 81.0769ZM135.381 78.8164L142.711 82.0202L142.98 81.4037L135.65 78.2L128.319 74.9962L128.05 75.6127L135.381 78.8164ZM135.65 78.2L132.373 85.4982L135.717 86.9994L138.994 79.7012L142.27 72.403L138.927 70.9018L135.65 78.2ZM138.994 79.7012L131.013 79.1496L130.975 79.6914L138.956 80.243L146.937 80.7946L146.975 80.2528L138.994 79.7012ZM142.59 100.739L149.034 95.998L144.326 89.5978L137.893 94.263L142.59 100.739ZM142.989 101.28L147.688 107.754L154.204 103.025L149.433 96.5392L142.989 101.28ZM145.94 90.7661L150.681 97.2099L157.125 92.469L152.384 86.0251L145.94 90.7661ZM144.366 88.6267L139.625 82.1829L133.181 86.9238L137.922 93.3677L144.366 88.6267ZM145.242 87.982L151.631 83.1664L146.871 76.8519L140.501 81.5381L145.242 87.982ZM151.09 88.2085L157.534 83.4676L152.926 77.2052L146.535 81.6319L151.09 88.2085ZM151.545 88.8271L156.286 95.271L162.73 90.53L157.989 84.0862L151.545 88.8271ZM147.859 91.539L143.118 85.0951L136.674 89.8361L141.415 96.2799L147.859 91.539ZM150.154 94.6578L154.895 101.102L161.339 96.3607L156.598 89.9168L150.154 94.6578ZM149.278 95.3026L142.834 100.044L147.575 106.487L154.018 101.746L149.278 95.3026ZM146.983 92.1837L153.427 87.4428L148.686 80.9989L142.242 85.7399L146.983 92.1837ZM142.59 100.739L136.147 105.48L136.545 106.021L142.989 101.28L149.433 96.5392L149.034 95.998L142.59 100.739ZM142.989 101.28L138.289 94.8061C137.375 95.47 136.702 95.9176 136.2 96.2106C135.665 96.5235 135.583 96.5061 135.833 96.4357C136.119 96.3553 137.145 96.124 138.502 96.5286C139.959 96.963 140.859 97.8457 141.274 98.4099L134.83 103.151L128.387 107.892C129.608 109.551 131.425 111.115 133.932 111.862C136.339 112.579 138.546 112.293 140.165 111.838C143.043 111.029 145.733 109.174 147.688 107.754L142.989 101.28ZM134.83 103.151L141.274 98.4099C141.505 98.7233 141.925 99.4116 142.103 100.445C142.291 101.538 142.125 102.536 141.835 103.276C141.578 103.933 141.291 104.223 141.348 104.161C141.398 104.106 141.635 103.865 142.201 103.449L137.46 97.0052L132.719 90.5613C130.656 92.079 128.17 94.2907 126.936 97.4429C125.371 101.441 126.415 105.212 128.387 107.892L134.83 103.151ZM137.46 97.0052L142.201 103.449L150.681 97.2099L145.94 90.7661L141.199 84.3222L132.719 90.5613L137.46 97.0052ZM145.94 90.7661L152.384 86.0251L150.81 83.8858L144.366 88.6267L137.922 93.3677L139.496 95.507L145.94 90.7661ZM144.366 88.6267L149.107 95.0706L149.983 94.4258L145.242 87.982L140.501 81.5381L139.625 82.1829L144.366 88.6267ZM145.242 87.982L138.854 92.7975C140.241 94.638 143.015 97.5291 147.565 97.6349C151.271 97.7212 154.201 95.7855 155.645 94.7852L151.09 88.2085L146.535 81.6319C146.047 81.9701 145.916 82.0134 146.034 81.9617C146.167 81.9035 146.865 81.6143 147.937 81.6393C149.138 81.6672 150.176 82.0711 150.909 82.5606C151.518 82.9675 151.744 83.3172 151.631 83.1664L145.242 87.982ZM151.09 88.2085L144.646 92.9495L145.101 93.5681L151.545 88.8271L157.989 84.0862L157.534 83.4676L151.09 88.2085ZM151.545 88.8271L146.804 82.3833L143.118 85.0951L147.859 91.539L152.6 97.9828L156.286 95.271L151.545 88.8271ZM147.859 91.539L141.415 96.2799L143.71 99.3988L150.154 94.6578L156.598 89.9168L154.303 86.798L147.859 91.539ZM150.154 94.6578L145.413 88.2139L144.537 88.8587L149.278 95.3026L154.018 101.746L154.895 101.102L150.154 94.6578ZM149.278 95.3026L155.721 90.5616L153.427 87.4428L146.983 92.1837L140.539 96.9247L142.834 100.044L149.278 95.3026ZM146.983 92.1837L142.242 85.7399L134.716 91.2773L139.456 97.7212L144.197 104.165L151.724 98.6276L146.983 92.1837ZM139.456 97.7212L134.716 91.2773C133.613 92.0882 131.51 93.599 130.084 95.4477C129.274 96.4979 128.161 98.2949 127.935 100.742C127.688 103.419 128.601 105.7 129.819 107.355L136.263 102.614L142.706 97.8727C143.355 98.7538 144.045 100.286 143.867 102.212C143.711 103.907 142.96 104.951 142.752 105.221C142.537 105.5 142.452 105.526 142.79 105.243C143.097 104.986 143.53 104.656 144.197 104.165L139.456 97.7212ZM136.263 102.614L129.819 107.355C130.866 108.778 132.514 110.232 134.874 110.915C137.097 111.559 139.103 111.27 140.499 110.879C142.993 110.18 145.355 108.616 147.287 107.215L142.59 100.739L137.893 94.263C137.073 94.8584 136.509 95.2215 136.143 95.4316C135.74 95.6626 135.794 95.5812 136.181 95.4728C136.585 95.3596 137.779 95.099 139.325 95.5469C141.009 96.0345 142.114 97.0678 142.706 97.8727L136.263 102.614ZM137.532 106.511L133.345 99.6936L126.528 103.88L130.715 110.697L137.532 106.511ZM142.876 103.228L149.693 99.0413L145.506 92.2244L138.689 96.4112L142.876 103.228ZM143.228 103.801L148.128 110.124L153.801 105.729L150.045 99.6139L143.228 103.801ZM146.745 104.758L154.597 106.289L154.599 106.28L154.6 106.272L146.745 104.758ZM154.487 100.303L147.67 104.49L154.487 100.303ZM155.071 103.7L148.254 107.887L155.071 103.7ZM156.073 103.497L162.89 99.3107L158.703 92.4937L151.886 96.6806L156.073 103.497ZM156.425 104.07L160.611 110.887L167.428 106.7L163.241 99.8833L156.425 104.07ZM152.062 106.75L145.245 110.937L149.432 117.753L156.249 113.567L152.062 106.75ZM151.71 106.177L146.499 100.107L141.323 104.551L144.893 110.364L151.71 106.177ZM153.61 100.955L146.793 105.141L153.61 100.955ZM150.782 100.325L146.595 93.5083L150.782 100.325ZM148.486 105.453L140.597 104.125L140.597 104.128L148.486 105.453ZM137.884 107.083L131.067 111.27L135.253 118.087L142.07 113.9L137.884 107.083ZM137.532 106.511L141.719 113.328L147.063 110.045L142.876 103.228L138.689 96.4112L133.345 99.6936L137.532 106.511ZM142.876 103.228L136.059 107.415L136.411 107.988L143.228 103.801L150.045 99.6139L149.693 99.0413L142.876 103.228ZM143.228 103.801L138.328 97.4772C136.356 99.0049 134.337 101.136 133.172 103.902C131.914 106.89 131.663 110.773 133.865 114.358L140.682 110.172L147.499 105.985C147.929 106.685 148.184 107.521 148.212 108.372C148.239 109.183 148.056 109.784 147.918 110.112C147.681 110.675 147.53 110.588 148.128 110.124L143.228 103.801ZM140.682 110.172L133.865 114.358C135.299 116.694 137.801 118.768 141.262 119.149C144.285 119.482 146.729 118.362 148.172 117.476L143.985 110.659L139.798 103.842C139.932 103.759 141.118 103.037 143.013 103.245C144.028 103.357 145.026 103.721 145.888 104.316C146.718 104.889 147.222 105.534 147.499 105.985L140.682 110.172ZM143.985 110.659L148.172 117.476C150.983 115.749 152.492 113.321 153.33 111.175C154.042 109.349 154.394 107.331 154.597 106.289L146.745 104.758L138.893 103.226C138.824 103.581 138.769 103.863 138.713 104.145C138.658 104.418 138.611 104.639 138.567 104.828C138.475 105.225 138.424 105.359 138.424 105.359C138.432 105.34 138.53 105.092 138.784 104.76C139.058 104.402 139.411 104.08 139.798 103.842L143.985 110.659ZM146.745 104.758L154.6 106.272C154.726 105.619 154.808 105.206 154.892 104.862C154.972 104.531 155.012 104.444 154.995 104.486C154.969 104.547 154.857 104.8 154.603 105.119C154.334 105.457 154.007 105.743 153.672 105.948L149.486 99.1312L145.299 92.3143C139.942 95.6046 139.219 101.535 138.889 103.244L146.745 104.758ZM149.486 99.1312L153.672 105.948C152.883 106.433 151.724 106.724 150.449 106.432C149.152 106.135 148.19 105.337 147.67 104.49L154.487 100.303L161.304 96.1165C157.813 90.4331 150.716 88.9871 145.299 92.3143L149.486 99.1312ZM154.487 100.303L147.67 104.49C147.487 104.194 147.307 103.788 147.195 103.299C147.085 102.818 147.077 102.418 147.086 102.195C147.089 102.098 147.096 102.044 147.091 102.095C147.086 102.141 147.086 102.143 147.075 102.243C147.068 102.312 147.055 102.44 147.043 102.584C147.024 102.816 146.975 103.449 147.045 104.219C147.116 105.003 147.346 106.409 148.254 107.887L155.071 103.7L161.888 99.5131C162.728 100.882 162.924 102.155 162.98 102.782C163.036 103.395 162.993 103.848 162.991 103.877C162.987 103.92 162.985 103.941 162.989 103.897C162.991 103.885 163.003 103.77 163.011 103.692C163.03 103.497 163.06 103.175 163.074 102.79C163.104 101.99 163.068 100.932 162.789 99.7189C162.509 98.4973 162.022 97.2856 161.304 96.1165L154.487 100.303ZM155.071 103.7L148.254 107.887C148.932 108.991 150.266 110.571 152.558 111.383C154.766 112.165 156.677 111.807 157.666 111.52C158.613 111.245 159.325 110.857 159.582 110.714C159.882 110.549 160.172 110.368 160.26 110.314L156.073 103.497L151.886 96.6806C151.701 96.7943 151.753 96.7604 151.842 96.7111C151.889 96.6849 152.419 96.3823 153.207 96.1537C154.036 95.9131 155.811 95.5614 157.899 96.3009C160.071 97.0701 161.301 98.5585 161.888 99.5131L155.071 103.7ZM156.073 103.497L149.256 107.684L149.608 108.257L156.425 104.07L163.241 99.8833L162.89 99.3107L156.073 103.497ZM156.425 104.07L152.238 97.2532L147.875 99.9328L152.062 106.75L156.249 113.567L160.611 110.887L156.425 104.07ZM152.062 106.75L158.879 102.563L158.527 101.99L151.71 106.177L144.893 110.364L145.245 110.937L152.062 106.75ZM151.71 106.177L156.921 112.247C158.428 110.953 160.123 109.078 161.131 106.618C162.224 103.951 162.571 100.259 160.427 96.7677L153.61 100.955L146.793 105.141C146.301 104.341 146.027 103.407 146 102.474C145.974 101.592 146.171 100.929 146.325 100.553C146.593 99.8993 146.836 99.8179 146.499 100.107L151.71 106.177ZM153.61 100.955L160.427 96.7677C158.716 93.9832 155.944 92.3031 152.901 92.0201C150.289 91.7772 148.072 92.6014 146.595 93.5083L150.782 100.325L154.969 107.142C154.201 107.614 152.997 108.098 151.42 107.951C150.553 107.871 149.597 107.594 148.693 107.03C147.787 106.464 147.173 105.76 146.793 105.141L153.61 100.955ZM150.782 100.325L146.595 93.5083C143.863 95.1866 142.478 97.6074 141.751 99.4989C141.085 101.23 140.78 103.039 140.597 104.125L148.486 105.453L156.375 106.781C156.468 106.232 156.537 105.859 156.603 105.565C156.669 105.273 156.702 105.195 156.684 105.243C156.663 105.296 156.549 105.582 156.27 105.959C155.969 106.363 155.536 106.794 154.969 107.142L150.782 100.325ZM148.486 105.453L140.597 104.128C140.462 104.932 140.355 105.445 140.265 105.792C140.177 106.131 140.141 106.166 140.2 106.046C140.277 105.888 140.428 105.641 140.659 105.396C140.876 105.164 141.033 105.074 140.986 105.103L145.173 111.92L149.359 118.737C151.539 117.398 153.343 115.597 154.58 113.061C155.621 110.927 156.066 108.623 156.376 106.778L148.486 105.453ZM145.173 111.92L140.986 105.103C141.398 104.85 142.53 104.403 144.017 104.786C145.399 105.143 146.231 105.999 146.622 106.636L139.805 110.823L132.988 115.01C134.417 117.337 136.788 119.445 140.022 120.279C143.36 121.14 146.657 120.396 149.359 118.737L145.173 111.92ZM139.805 110.823L146.622 106.636C146.739 106.827 146.861 107.092 146.947 107.411C147.03 107.722 147.048 107.967 147.052 108.059C147.053 108.092 147.052 108.093 147.053 107.999C147.053 107.982 147.058 107.668 147.055 107.43C147.051 107.174 147.038 106.597 146.924 105.911C146.809 105.22 146.535 104.048 145.77 102.803L138.953 106.99L132.136 111.177C131.45 110.061 131.226 109.046 131.141 108.539C131.058 108.036 131.056 107.669 131.056 107.648C131.056 107.645 131.056 107.589 131.053 107.855C131.052 108.043 131.05 108.35 131.065 108.71C131.096 109.458 131.193 110.444 131.497 111.572C131.803 112.707 132.284 113.864 132.988 115.01L139.805 110.823ZM138.953 106.99L145.77 102.803C145.135 101.769 144.041 100.487 142.288 99.6307C140.516 98.7653 138.797 98.6902 137.527 98.8536C135.48 99.1168 133.961 100.104 133.697 100.266L137.884 107.083L142.07 113.9C142.066 113.903 141.874 114.023 141.561 114.165C141.281 114.292 140.569 114.594 139.568 114.723C138.472 114.864 136.905 114.808 135.267 114.008C133.649 113.217 132.67 112.047 132.136 111.177L138.953 106.99ZM137.884 107.083L144.7 102.896L144.349 102.324L137.532 106.511L130.715 110.697L131.067 111.27L137.884 107.083Z" fill="#FF70CF" mask="url(#path-1-outside-1_2570_193)"/>
</svg>
