<svg width="143" height="71" viewBox="0 0 143 71" fill="none" xmlns="http://www.w3.org/2000/svg">
<mask id="path-1-outside-1_2570_194" maskUnits="userSpaceOnUse" x="-6.43308" y="-41.9805" width="159.73" height="159.879" fill="black">
<rect fill="white" x="-6.43308" y="-41.9805" width="159.73" height="159.879"/>
<path d="M32.7639 16.0279L32.3827 16.5814C29.8528 14.8387 29.3878 15.0624 28.2805 16.6699L17.2073 32.7452C16.2997 34.0629 16.3553 34.4898 17.4885 35.2704L22.2848 38.5742C23.8923 39.6815 24.7115 39.5075 28.7164 35.8936L29.179 36.4066L24.4006 40.6922L23.9866 41.0676L11.1264 32.2091L11.5076 31.6556C14.0375 33.3983 14.5024 33.1746 15.6098 31.5671L26.6466 15.5445C27.7539 13.9369 27.7973 13.4228 25.2674 11.6801L25.6486 11.1267L32.7639 16.0279ZM39.83 23.4344C39.1102 23.0171 38.8776 22.1424 39.2949 21.4226C39.6961 20.7305 40.5869 20.4702 41.3066 20.8875C41.9987 21.2887 42.243 22.2071 41.8418 22.8992C41.4245 23.619 40.5221 23.8356 39.83 23.4344ZM30.6829 41.5083C29.6878 43.2247 29.6729 43.6969 31.2786 44.6279L30.9415 45.2092L25.7923 42.2239L26.1294 41.6425C27.735 42.5734 28.1375 42.3259 29.1326 40.6095L34.4452 31.4462C35.4403 29.7298 35.6723 29.4574 33.8198 29.2711L33.8756 28.6007L37.5251 28.9411L37.6647 29.4659L30.6829 41.5083ZM41.8636 42.8472L42.4624 43.1521C40.1684 47.5859 38.4353 49.7198 36.0115 48.4854C34.0725 47.4979 33.686 45.5773 35.603 41.8133L40.3808 32.4319L38.0141 31.2266L38.5078 30.2571C40.9746 31.4775 42.2248 30.7855 43.8352 27.835L44.5196 28.1835L42.4429 32.2611L45.8932 34.0184L45.3994 34.9879L41.9491 33.2307L37.7086 41.557C36.1838 44.5511 35.3394 46.4912 37.0503 47.3625C38.419 48.0596 39.7003 47.0243 41.8636 42.8472ZM49.5257 46.1622L50.1415 46.4312C48.1137 50.9929 46.5098 53.2255 44.0172 52.1366C42.0232 51.2655 41.5238 49.3711 43.2148 45.5004L47.4295 35.8528L44.9956 34.7896L45.4312 33.7926C47.9658 34.8649 49.1729 34.1002 50.606 31.0596L51.3098 31.3671L49.4779 35.5604L53.0261 37.1105L52.5905 38.1075L49.0423 36.5574L45.3016 45.12C43.9565 48.199 43.2283 50.1856 44.9877 50.9543C46.3953 51.5692 47.6132 50.46 49.5257 46.1622ZM52.3213 51.4135C51.6345 53.2748 51.7007 53.7426 53.442 54.3851L53.2093 55.0155L47.6253 52.9553L47.8579 52.3248C49.5992 52.9673 49.9533 52.6545 50.64 50.7932L57.3745 32.5399C58.0723 30.6485 58.2542 30.3404 56.3862 30.5039L56.3375 29.8038L59.9804 29.5447L60.2188 30.0079L52.3213 51.4135ZM65.2303 51.4341L65.8748 51.6244C63.9614 56.2979 61.278 58.0415 58.8841 57.3349C55.6616 56.3836 54.945 52.3685 56.4489 47.2738C57.844 42.5474 60.9155 39.15 64.2608 40.1375C67.1151 40.98 67.8881 44.578 66.5382 49.151L58.5586 46.7955L58.3593 47.4707C57.1906 51.4298 57.5047 55.2261 59.7758 55.8965C61.2797 56.3404 63.231 55.3816 65.2303 51.4341ZM63.8607 41.1538C61.8965 40.574 60.1102 42.7826 58.928 45.7701L65.0355 47.573C65.8599 44.7801 65.9477 41.7698 63.8607 41.1538ZM72.1531 59.8981L73.3445 50.8562L74.0107 50.944C73.3443 56.2464 75.8643 59.9029 79.0686 60.3251C81.8922 60.6971 83.852 59.051 84.2199 56.2592C84.6253 53.1818 81.8214 50.4561 78.9214 47.2337C75.8922 43.7683 74.4664 42.0957 74.8635 39.0818C75.2983 35.7823 77.9961 34.1689 81.2956 34.6036C84.7537 35.0593 85.6734 37.6334 86.3396 37.7212C86.6251 37.7588 86.7771 37.5852 86.9903 35.9672L87.6883 36.0592L86.7185 43.4195L86.0205 43.3276C86.5155 39.3259 84.5164 36.1254 81.2487 35.6948C78.3616 35.3145 76.9411 37.0316 76.7029 38.84C76.3309 41.6636 78.9312 43.9751 80.9755 46.3424C84.6742 50.6061 86.5399 52.3689 86.0258 56.2712C85.52 60.11 82.226 61.8385 79.212 61.4414C75.4049 60.9398 74.6523 58.3231 73.7322 58.2018C73.2246 58.135 73.0033 58.59 72.8194 59.9859L72.1531 59.8981ZM98.8686 59.8161L99.5405 59.824C99.1066 61.355 98.7087 62.5344 97.2368 62.5172C95.7009 62.4992 95.2988 61.3104 95.3172 59.7425L95.3243 59.1346L95.2603 59.1338C94.7051 60.0874 93.3331 62.4715 90.7413 62.4411C88.5014 62.4149 87.4322 60.8023 87.4596 58.4665C87.5068 54.4347 90.7863 53.129 93.94 51.6298L95.4202 50.9431L95.4389 49.3432C95.4644 47.1674 95.261 45.4049 92.7972 45.376C91.3893 45.3596 90.2615 46.0184 90.2495 47.0423C90.2409 47.7783 90.8432 48.2654 90.8346 49.0013C90.8279 49.5773 90.3754 49.956 89.6714 49.9478C88.8715 49.9384 88.3998 49.2288 88.4151 47.9169C88.4402 45.7731 90.3442 44.4193 92.968 44.45C95.5918 44.4807 97.2712 45.9084 97.2297 49.4602L97.1079 59.8595C97.0956 60.9154 97.1536 61.4281 97.7295 61.4349C98.2095 61.4405 98.4391 60.9631 98.8686 59.8161ZM91.464 60.8495C92.9039 60.8663 93.8739 60.0136 95.3363 58.1106L95.4082 51.967L93.9601 52.6541C91.3209 53.9353 89.3507 55.4804 89.3199 58.1042C89.299 59.8961 90.088 60.8334 91.464 60.8495ZM100.273 38.3982C99.4428 38.4549 98.7606 37.86 98.7039 37.0299C98.6494 36.2318 99.2421 35.5177 100.072 35.461C100.87 35.4065 101.587 36.0311 101.641 36.8293C101.698 37.6593 101.071 38.3436 100.273 38.3982ZM102.801 58.4966C102.936 60.476 103.188 60.8758 105.039 60.7493L105.085 61.4197L99.1471 61.8254L99.1013 61.155C100.953 61.0285 101.148 60.5982 101.013 58.6188L100.291 48.0514C100.156 46.072 100.195 45.7165 98.5558 46.5983L98.227 46.0113L101.443 44.2521L101.852 44.609L102.801 58.4966ZM106.512 43.923L106.924 46.4821L107.019 46.4668C107.887 44.6094 109.074 43.122 110.78 42.8476C113.054 42.4817 114.15 44.0557 114.557 46.5832L116.148 56.4721C116.463 58.4309 116.75 58.806 118.614 58.5062L118.721 59.1697L112.876 60.1098L112.769 59.4464C114.57 59.1567 114.725 58.7104 114.41 56.7516L112.819 46.8627C112.519 44.9986 111.767 44.1474 110.471 44.3557C109.113 44.5743 107.979 45.9883 107.097 47.5563L108.723 57.6663C109.038 59.6251 109.325 60.0003 111.095 59.7157L111.201 60.3792L105.388 61.3142L105.281 60.6508C107.114 60.356 107.269 59.9097 106.954 57.9509L105.272 47.4933C104.957 45.5345 104.964 45.1768 103.411 46.2044L103.03 45.6499L106.072 43.6048L106.512 43.923ZM124.19 50.1867L124.837 50.0071C126.141 54.826 126.304 57.5702 123.683 58.2972C121.586 58.8787 120.004 57.7236 118.875 53.6533L116.061 43.5083L113.502 44.2181L113.211 43.1697C115.854 42.4034 116.309 41.0486 115.503 37.7852L116.243 37.5799L117.466 41.9895L121.197 40.9546L121.488 42.003L117.757 43.0379L120.254 52.042C121.153 55.2797 121.84 57.2807 123.69 56.7675C125.171 56.357 125.416 54.7281 124.19 50.1867ZM127.755 56.6532L125.444 50.8225L126.069 50.5749C127.587 53.4498 129.793 55.0195 131.905 54.1823C133.303 53.6281 133.52 52.4404 132.955 51.0124C132.141 48.9598 130.135 48.2404 127.618 47.2758C125.226 46.3651 123.351 45.6283 122.549 43.6054C121.783 41.6718 122.603 39.6599 124.566 38.8817C126.47 38.1271 127.537 39.0812 128.013 38.8925C128.34 38.7628 128.222 38.4653 127.986 37.8704L128.611 37.6228L130.498 42.3825L129.873 42.6301C128.632 40.5405 126.841 39.1503 125.057 39.8578C123.629 40.4238 123.642 41.7608 123.949 42.5343C124.597 44.1704 126.402 44.9011 128.604 45.6805C132.046 46.8975 133.494 47.7697 134.401 50.0603C135.392 52.5591 134.239 54.4273 132.395 55.1584C130.312 55.9838 129.038 55.1122 128.472 55.3363C128.115 55.4778 128.144 55.8106 128.38 56.4056L127.755 56.6532Z"/>
</mask>
<path d="M32.7639 16.0279L32.3827 16.5814C29.8528 14.8387 29.3878 15.0624 28.2805 16.6699L17.2073 32.7452C16.2997 34.0629 16.3553 34.4898 17.4885 35.2704L22.2848 38.5742C23.8923 39.6815 24.7115 39.5075 28.7164 35.8936L29.179 36.4066L24.4006 40.6922L23.9866 41.0676L11.1264 32.2091L11.5076 31.6556C14.0375 33.3983 14.5024 33.1746 15.6098 31.5671L26.6466 15.5445C27.7539 13.9369 27.7973 13.4228 25.2674 11.6801L25.6486 11.1267L32.7639 16.0279ZM39.83 23.4344C39.1102 23.0171 38.8776 22.1424 39.2949 21.4226C39.6961 20.7305 40.5869 20.4702 41.3066 20.8875C41.9987 21.2887 42.243 22.2071 41.8418 22.8992C41.4245 23.619 40.5221 23.8356 39.83 23.4344ZM30.6829 41.5083C29.6878 43.2247 29.6729 43.6969 31.2786 44.6279L30.9415 45.2092L25.7923 42.2239L26.1294 41.6425C27.735 42.5734 28.1375 42.3259 29.1326 40.6095L34.4452 31.4462C35.4403 29.7298 35.6723 29.4574 33.8198 29.2711L33.8756 28.6007L37.5251 28.9411L37.6647 29.4659L30.6829 41.5083ZM41.8636 42.8472L42.4624 43.1521C40.1684 47.5859 38.4353 49.7198 36.0115 48.4854C34.0725 47.4979 33.686 45.5773 35.603 41.8133L40.3808 32.4319L38.0141 31.2266L38.5078 30.2571C40.9746 31.4775 42.2248 30.7855 43.8352 27.835L44.5196 28.1835L42.4429 32.2611L45.8932 34.0184L45.3994 34.9879L41.9491 33.2307L37.7086 41.557C36.1838 44.5511 35.3394 46.4912 37.0503 47.3625C38.419 48.0596 39.7003 47.0243 41.8636 42.8472ZM49.5257 46.1622L50.1415 46.4312C48.1137 50.9929 46.5098 53.2255 44.0172 52.1366C42.0232 51.2655 41.5238 49.3711 43.2148 45.5004L47.4295 35.8528L44.9956 34.7896L45.4312 33.7926C47.9658 34.8649 49.1729 34.1002 50.606 31.0596L51.3098 31.3671L49.4779 35.5604L53.0261 37.1105L52.5905 38.1075L49.0423 36.5574L45.3016 45.12C43.9565 48.199 43.2283 50.1856 44.9877 50.9543C46.3953 51.5692 47.6132 50.46 49.5257 46.1622ZM52.3213 51.4135C51.6345 53.2748 51.7007 53.7426 53.442 54.3851L53.2093 55.0155L47.6253 52.9553L47.8579 52.3248C49.5992 52.9673 49.9533 52.6545 50.64 50.7932L57.3745 32.5399C58.0723 30.6485 58.2542 30.3404 56.3862 30.5039L56.3375 29.8038L59.9804 29.5447L60.2188 30.0079L52.3213 51.4135ZM65.2303 51.4341L65.8748 51.6244C63.9614 56.2979 61.278 58.0415 58.8841 57.3349C55.6616 56.3836 54.945 52.3685 56.4489 47.2738C57.844 42.5474 60.9155 39.15 64.2608 40.1375C67.1151 40.98 67.8881 44.578 66.5382 49.151L58.5586 46.7955L58.3593 47.4707C57.1906 51.4298 57.5047 55.2261 59.7758 55.8965C61.2797 56.3404 63.231 55.3816 65.2303 51.4341ZM63.8607 41.1538C61.8965 40.574 60.1102 42.7826 58.928 45.7701L65.0355 47.573C65.8599 44.7801 65.9477 41.7698 63.8607 41.1538ZM72.1531 59.8981L73.3445 50.8562L74.0107 50.944C73.3443 56.2464 75.8643 59.9029 79.0686 60.3251C81.8922 60.6971 83.852 59.051 84.2199 56.2592C84.6253 53.1818 81.8214 50.4561 78.9214 47.2337C75.8922 43.7683 74.4664 42.0957 74.8635 39.0818C75.2983 35.7823 77.9961 34.1689 81.2956 34.6036C84.7537 35.0593 85.6734 37.6334 86.3396 37.7212C86.6251 37.7588 86.7771 37.5852 86.9903 35.9672L87.6883 36.0592L86.7185 43.4195L86.0205 43.3276C86.5155 39.3259 84.5164 36.1254 81.2487 35.6948C78.3616 35.3145 76.9411 37.0316 76.7029 38.84C76.3309 41.6636 78.9312 43.9751 80.9755 46.3424C84.6742 50.6061 86.5399 52.3689 86.0258 56.2712C85.52 60.11 82.226 61.8385 79.212 61.4414C75.4049 60.9398 74.6523 58.3231 73.7322 58.2018C73.2246 58.135 73.0033 58.59 72.8194 59.9859L72.1531 59.8981ZM98.8686 59.8161L99.5405 59.824C99.1066 61.355 98.7087 62.5344 97.2368 62.5172C95.7009 62.4992 95.2988 61.3104 95.3172 59.7425L95.3243 59.1346L95.2603 59.1338C94.7051 60.0874 93.3331 62.4715 90.7413 62.4411C88.5014 62.4149 87.4322 60.8023 87.4596 58.4665C87.5068 54.4347 90.7863 53.129 93.94 51.6298L95.4202 50.9431L95.4389 49.3432C95.4644 47.1674 95.261 45.4049 92.7972 45.376C91.3893 45.3596 90.2615 46.0184 90.2495 47.0423C90.2409 47.7783 90.8432 48.2654 90.8346 49.0013C90.8279 49.5773 90.3754 49.956 89.6714 49.9478C88.8715 49.9384 88.3998 49.2288 88.4151 47.9169C88.4402 45.7731 90.3442 44.4193 92.968 44.45C95.5918 44.4807 97.2712 45.9084 97.2297 49.4602L97.1079 59.8595C97.0956 60.9154 97.1536 61.4281 97.7295 61.4349C98.2095 61.4405 98.4391 60.9631 98.8686 59.8161ZM91.464 60.8495C92.9039 60.8663 93.8739 60.0136 95.3363 58.1106L95.4082 51.967L93.9601 52.6541C91.3209 53.9353 89.3507 55.4804 89.3199 58.1042C89.299 59.8961 90.088 60.8334 91.464 60.8495ZM100.273 38.3982C99.4428 38.4549 98.7606 37.86 98.7039 37.0299C98.6494 36.2318 99.2421 35.5177 100.072 35.461C100.87 35.4065 101.587 36.0311 101.641 36.8293C101.698 37.6593 101.071 38.3436 100.273 38.3982ZM102.801 58.4966C102.936 60.476 103.188 60.8758 105.039 60.7493L105.085 61.4197L99.1471 61.8254L99.1013 61.155C100.953 61.0285 101.148 60.5982 101.013 58.6188L100.291 48.0514C100.156 46.072 100.195 45.7165 98.5558 46.5983L98.227 46.0113L101.443 44.2521L101.852 44.609L102.801 58.4966ZM106.512 43.923L106.924 46.4821L107.019 46.4668C107.887 44.6094 109.074 43.122 110.78 42.8476C113.054 42.4817 114.15 44.0557 114.557 46.5832L116.148 56.4721C116.463 58.4309 116.75 58.806 118.614 58.5062L118.721 59.1697L112.876 60.1098L112.769 59.4464C114.57 59.1567 114.725 58.7104 114.41 56.7516L112.819 46.8627C112.519 44.9986 111.767 44.1474 110.471 44.3557C109.113 44.5743 107.979 45.9883 107.097 47.5563L108.723 57.6663C109.038 59.6251 109.325 60.0003 111.095 59.7157L111.201 60.3792L105.388 61.3142L105.281 60.6508C107.114 60.356 107.269 59.9097 106.954 57.9509L105.272 47.4933C104.957 45.5345 104.964 45.1768 103.411 46.2044L103.03 45.6499L106.072 43.6048L106.512 43.923ZM124.19 50.1867L124.837 50.0071C126.141 54.826 126.304 57.5702 123.683 58.2972C121.586 58.8787 120.004 57.7236 118.875 53.6533L116.061 43.5083L113.502 44.2181L113.211 43.1697C115.854 42.4034 116.309 41.0486 115.503 37.7852L116.243 37.5799L117.466 41.9895L121.197 40.9546L121.488 42.003L117.757 43.0379L120.254 52.042C121.153 55.2797 121.84 57.2807 123.69 56.7675C125.171 56.357 125.416 54.7281 124.19 50.1867ZM127.755 56.6532L125.444 50.8225L126.069 50.5749C127.587 53.4498 129.793 55.0195 131.905 54.1823C133.303 53.6281 133.52 52.4404 132.955 51.0124C132.141 48.9598 130.135 48.2404 127.618 47.2758C125.226 46.3651 123.351 45.6283 122.549 43.6054C121.783 41.6718 122.603 39.6599 124.566 38.8817C126.47 38.1271 127.537 39.0812 128.013 38.8925C128.34 38.7628 128.222 38.4653 127.986 37.8704L128.611 37.6228L130.498 42.3825L129.873 42.6301C128.632 40.5405 126.841 39.1503 125.057 39.8578C123.629 40.4238 123.642 41.7608 123.949 42.5343C124.597 44.1704 126.402 44.9011 128.604 45.6805C132.046 46.8975 133.494 47.7697 134.401 50.0603C135.392 52.5591 134.239 54.4273 132.395 55.1584C130.312 55.9838 129.038 55.1122 128.472 55.3363C128.115 55.4778 128.144 55.8106 128.38 56.4056L127.755 56.6532Z" fill="#FFFEFC"/>
<path d="M32.7639 16.0279L39.3521 20.5661L43.8903 13.9779L37.3021 9.4397L32.7639 16.0279ZM32.3827 16.5813L27.8445 23.1696L34.4327 27.7078L38.9709 21.1195L32.3827 16.5813ZM28.7164 35.8936L34.6571 30.5356L29.2977 24.5933L23.3568 29.9543L28.7164 35.8936ZM29.179 36.4066L34.5205 42.3621L40.4926 37.0059L35.1197 31.0486L29.179 36.4066ZM24.4006 40.6922L19.0592 34.7366L19.043 34.7511L19.027 34.7657L24.4006 40.6922ZM23.9866 41.0676L19.4484 47.6558L24.6664 51.2501L29.3603 46.9941L23.9866 41.0676ZM11.1264 32.2091L4.53814 27.6709L-4.02701e-05 34.2591L6.58819 38.7973L11.1264 32.2091ZM11.5076 31.6556L16.0458 25.0674L9.45754 20.5292L4.91936 27.1175L11.5076 31.6556ZM25.2674 11.6801L18.6791 7.14192L14.1409 13.7302L20.7292 18.2684L25.2674 11.6801ZM25.6486 11.1267L30.1868 4.53846L23.5985 0.000277537L19.0603 6.58851L25.6486 11.1267ZM32.7639 16.0279L26.1756 11.4898L25.7944 12.0432L32.3827 16.5813L38.9709 21.1195L39.3521 20.5661L32.7639 16.0279ZM32.3827 16.5813L36.9209 9.99312C36.2031 9.49873 35.2804 8.89376 34.2775 8.41486C33.3168 7.95606 31.5202 7.23288 29.2524 7.38796C26.6748 7.56422 24.7923 8.76325 23.6154 9.84632C22.6455 10.7389 21.9651 11.7357 21.6923 12.1317L28.2805 16.6699L34.8687 21.2081C35.1496 20.8004 34.9425 21.1664 34.4503 21.6194C33.7511 22.2628 32.3506 23.2135 30.3439 23.3507C28.647 23.4667 27.5101 22.9139 27.3827 22.853C27.2132 22.7721 27.2973 22.7926 27.8445 23.1696L32.3827 16.5813ZM28.2805 16.6699L21.6923 12.1317L10.6191 28.207L17.2073 32.7452L23.7956 37.2834L34.8687 21.2081L28.2805 16.6699ZM17.2073 32.7452L10.6191 28.207C10.3095 28.6564 9.80139 29.4229 9.38884 30.3586C8.96299 31.3245 8.394 33.0111 8.63419 35.1162C9.13114 39.4713 12.5837 41.6061 12.9503 41.8586L17.4885 35.2704L22.0267 28.6821C21.9003 28.595 22.33 28.8637 22.8366 29.4377C23.451 30.1338 24.3183 31.4379 24.531 33.3023C24.7291 35.0383 24.2456 36.3223 24.0292 36.8132C23.826 37.2739 23.6513 37.4929 23.7956 37.2834L17.2073 32.7452ZM17.4885 35.2704L12.9503 41.8586L17.7466 45.1624L22.2848 38.5742L26.8229 31.9859L22.0267 28.6821L17.4885 35.2704ZM22.2848 38.5742L17.7466 45.1624C18.3695 45.5915 19.7438 46.5033 21.634 46.9323C23.8133 47.4269 25.8372 47.1155 27.5321 46.4483C29.0023 45.8695 30.2184 45.0257 31.0991 44.354C32.0326 43.6422 33.0307 42.776 34.0759 41.8329L28.7164 35.8936L23.3568 29.9543C22.3996 30.8181 21.7935 31.329 21.3967 31.6315C20.9473 31.9743 21.1072 31.7824 21.671 31.5604C22.0055 31.4288 22.5187 31.2706 23.1757 31.2051C23.8555 31.1372 24.5357 31.1839 25.1753 31.3291C26.3347 31.5922 27.0038 32.1105 26.8229 31.9859L22.2848 38.5742ZM28.7164 35.8936L22.7756 41.2515L23.2383 41.7645L29.179 36.4066L35.1197 31.0486L34.6571 30.5356L28.7164 35.8936ZM29.179 36.4066L23.8375 30.451L19.0592 34.7366L24.4006 40.6922L29.7421 46.6478L34.5205 42.3621L29.179 36.4066ZM24.4006 40.6922L19.027 34.7657L18.6129 35.1411L23.9866 41.0676L29.3603 46.9941L29.7743 46.6187L24.4006 40.6922ZM23.9866 41.0676L28.5248 34.4794L15.6646 25.6208L11.1264 32.2091L6.58819 38.7973L19.4484 47.6558L23.9866 41.0676ZM11.1264 32.2091L17.7146 36.7472L18.0958 36.1938L11.5076 31.6556L4.91936 27.1175L4.53814 27.6709L11.1264 32.2091ZM11.5076 31.6556L6.9694 38.2439C7.68711 38.7383 8.60984 39.3432 9.61272 39.8221C10.5735 40.2809 12.3701 41.0041 14.6379 40.849C17.2155 40.6728 19.098 39.4737 20.2748 38.3907C21.2447 37.4981 21.9252 36.5013 22.198 36.1052L15.6097 31.5671L9.02151 27.0289C8.74067 27.4366 8.94773 27.0706 9.43996 26.6176C10.1391 25.9741 11.5397 25.0235 13.5464 24.8863C15.2433 24.7703 16.3801 25.3231 16.5075 25.3839C16.6771 25.4649 16.593 25.4444 16.0458 25.0674L11.5076 31.6556ZM15.6097 31.5671L22.198 36.1052L33.2349 20.0826L26.6466 15.5445L20.0584 11.0063L9.02151 27.0289L15.6097 31.5671ZM26.6466 15.5445L33.2349 20.0826C33.5077 19.6866 34.1965 18.6956 34.6848 17.4713C35.2773 15.9857 35.7267 13.7994 34.9727 11.3283C34.3093 9.15416 32.9933 7.73325 32.2223 6.99911C31.4174 6.23279 30.5233 5.58625 29.8056 5.09187L25.2674 11.6801L20.7292 18.2684C21.2764 18.6453 21.3256 18.7165 21.1895 18.587C21.0872 18.4896 20.1656 17.6245 19.6692 15.9976C19.0822 14.0738 19.4712 12.4264 19.8233 11.5438C20.0711 10.9225 20.3392 10.5986 20.0584 11.0063L26.6466 15.5445ZM25.2674 11.6801L31.8556 16.2183L32.2368 15.6649L25.6486 11.1267L19.0603 6.58851L18.6791 7.14192L25.2674 11.6801ZM25.6486 11.1267L21.1104 17.7149L28.2257 22.6162L32.7639 16.0279L37.3021 9.4397L30.1868 4.53846L25.6486 11.1267ZM39.83 23.4344L35.8175 30.3553L39.83 23.4344ZM41.3066 20.8875L37.2941 27.8084L41.3066 20.8875ZM31.2786 44.6279L38.1995 48.6404L42.212 41.7195L35.2911 37.7069L31.2786 44.6279ZM30.9415 45.2092L26.9289 52.1301L33.8499 56.1427L37.8624 49.2218L30.9415 45.2092ZM25.7923 42.2239L18.8714 38.2113L14.8588 45.1322L21.7797 49.1448L25.7923 42.2239ZM26.1294 41.6425L30.1419 34.7216L23.221 30.709L19.2084 37.6299L26.1294 41.6425ZM34.4452 31.4462L27.5243 27.4336L34.4452 31.4462ZM33.8198 29.2711L25.8474 28.6076L25.1951 36.4443L33.0195 37.231L33.8198 29.2711ZM33.8756 28.6007L34.6186 20.6352L26.5734 19.8848L25.9032 27.9371L33.8756 28.6007ZM37.5251 28.9411L45.2563 26.8846L43.8223 21.4937L38.2681 20.9756L37.5251 28.9411ZM37.6647 29.4659L44.5857 33.4784L46.2477 30.6117L45.3959 27.4094L37.6647 29.4659ZM39.83 23.4344L43.8426 16.5134C46.9451 18.3122 48.0146 22.3326 46.2158 25.4352L39.2949 21.4226L32.3739 17.41C29.7406 21.9521 31.2754 27.7219 35.8175 30.3553L39.83 23.4344ZM39.2949 21.4226L46.2158 25.4352C44.4581 28.4669 40.4944 29.6638 37.2941 27.8084L41.3066 20.8875L45.3192 13.9665C40.6794 11.2765 34.9342 12.9941 32.3739 17.41L39.2949 21.4226ZM41.3066 20.8875L37.2941 27.8084C34.1638 25.9936 33.106 22.0169 34.9209 18.8867L41.8418 22.8992L48.7627 26.9118C51.38 22.3974 49.8336 16.5839 45.3192 13.9665L41.3066 20.8875ZM41.8418 22.8992L34.9209 18.8867C36.7763 15.6864 40.8108 14.7557 43.8426 16.5134L39.83 23.4344L35.8175 30.3553C40.2334 32.9155 46.0727 31.5516 48.7627 26.9118L41.8418 22.8992ZM30.6829 41.5083L23.7619 37.4957C23.4931 37.9594 23.0293 38.7727 22.6702 39.7001C22.3067 40.6385 21.7507 42.4302 22.108 44.6397C22.4956 47.0365 23.7476 48.7154 24.8064 49.7395C25.7346 50.6372 26.7211 51.2329 27.266 51.5488L31.2786 44.6279L35.2911 37.7069C35.0332 37.5574 35.4194 37.745 35.9299 38.2387C36.571 38.8587 37.5879 40.1378 37.9028 42.0856C38.1875 43.8461 37.7214 45.1397 37.5905 45.4778C37.4639 45.8048 37.3751 45.9154 37.6038 45.5209L30.6829 41.5083ZM31.2786 44.6279L24.3576 40.6153L24.0206 41.1966L30.9415 45.2092L37.8624 49.2218L38.1995 48.6404L31.2786 44.6279ZM30.9415 45.2092L34.9541 38.2883L29.8049 35.3029L25.7923 42.2239L21.7797 49.1448L26.9289 52.1301L30.9415 45.2092ZM25.7923 42.2239L32.7133 46.2364L33.0503 45.6551L26.1294 41.6425L19.2084 37.6299L18.8714 38.2113L25.7923 42.2239ZM26.1294 41.6425L22.1168 48.5634C22.6618 48.8794 23.6689 49.4395 24.9091 49.799C26.3239 50.209 28.4029 50.4614 30.6755 49.6069C32.7706 48.8192 34.0491 47.4464 34.683 46.6648C35.3094 45.8924 35.7847 45.0857 36.0535 44.6221L29.1326 40.6095L22.2117 36.5969C21.9829 36.9915 22.0348 36.8594 22.2556 36.5871C22.484 36.3055 23.375 35.2582 25.0443 34.6306C26.8912 33.9361 28.5064 34.1831 29.3631 34.4314C30.0451 34.6291 30.3998 34.8711 30.1419 34.7216L26.1294 41.6425ZM29.1326 40.6095L36.0535 44.6221L41.3662 35.4587L34.4452 31.4462L27.5243 27.4336L22.2117 36.5969L29.1326 40.6095ZM34.4452 31.4462L41.3662 35.4587C41.5119 35.2073 41.9171 34.5275 42.2062 33.9398C42.3675 33.6119 42.6456 33.0149 42.8618 32.2626C43.0711 31.5346 43.3665 30.179 43.0989 28.515C42.3882 24.0943 38.8618 22.3829 37.4946 21.9018C36.2623 21.4681 35.0473 21.3542 34.6201 21.3112L33.8198 29.2711L33.0195 37.231C33.5186 37.2812 32.9693 37.2711 32.1833 36.9945C31.7285 36.8345 30.6901 36.418 29.6453 35.4461C28.4372 34.3223 27.5803 32.7871 27.3018 31.0547C27.0588 29.5436 27.3343 28.3649 27.4843 27.843C27.6413 27.2968 27.8208 26.9351 27.8494 26.877C27.8731 26.8289 27.8761 26.8268 27.5243 27.4336L34.4452 31.4462ZM33.8198 29.2711L41.7922 29.9347L41.8481 29.2642L33.8756 28.6007L25.9032 27.9371L25.8474 28.6076L33.8198 29.2711ZM33.8756 28.6007L33.1326 36.5661L36.7822 36.9065L37.5251 28.9411L38.2681 20.9756L34.6186 20.6352L33.8756 28.6007ZM37.5251 28.9411L29.794 30.9976L29.9336 31.5224L37.6647 29.4659L45.3959 27.4094L45.2563 26.8846L37.5251 28.9411ZM37.6647 29.4659L30.7438 25.4533L23.7619 37.4957L30.6829 41.5083L37.6038 45.5209L44.5857 33.4784L37.6647 29.4659ZM41.8636 42.8472L45.4942 35.7184L38.4138 32.1125L34.7598 39.1682L41.8636 42.8472ZM42.4625 43.1521L49.5678 46.8283L53.2676 39.6773L46.093 36.0234L42.4625 43.1521ZM40.3808 32.4319L47.5096 36.0625L51.1401 28.9338L44.0114 25.3032L40.3808 32.4319ZM38.0141 31.2266L30.8853 27.596L27.2548 34.7247L34.3835 38.3553L38.0141 31.2266ZM38.5078 30.2571L42.0553 23.0866L34.9677 19.5802L31.3791 26.6265L38.5078 30.2571ZM43.8352 27.835L47.4658 20.7062L40.5378 17.1779L36.8131 24.0023L43.8352 27.835ZM44.5196 28.1835L51.6483 31.8141L55.2789 24.6854L48.1502 21.0548L44.5196 28.1835ZM42.4429 32.2611L35.3142 28.6306L31.6836 35.7593L38.8123 39.3899L42.4429 32.2611ZM45.8932 34.0184L53.0219 37.6489L56.6525 30.5202L49.5238 26.8896L45.8932 34.0184ZM45.3994 34.9879L41.7689 42.1166L48.8976 45.7472L52.5282 38.6184L45.3994 34.9879ZM41.9491 33.2307L45.5797 26.1019L38.451 22.4713L34.8204 29.6001L41.9491 33.2307ZM41.8636 42.8472L38.2331 49.9759L38.8319 50.2809L42.4625 43.1521L46.093 36.0234L45.4942 35.7184L41.8636 42.8472ZM42.4625 43.1521L35.3571 39.4759C34.8378 40.4797 34.4373 41.1817 34.1207 41.6686C33.7826 42.1886 33.7015 42.2099 33.8936 42.0346C34.113 41.8344 34.926 41.1672 36.3208 40.9196C37.8178 40.6537 39.0179 41.0388 39.6421 41.3567L36.0115 48.4854L32.3809 55.6141C34.217 56.5492 36.5427 57.1305 39.1181 56.6731C41.5912 56.234 43.4353 54.9877 44.6777 53.8541C46.8859 51.8394 48.4574 48.9745 49.5678 46.8283L42.4625 43.1521ZM36.0115 48.4854L39.6421 41.3567C39.9889 41.5333 40.6728 41.9599 41.2955 42.8031C41.9548 43.696 42.254 44.6621 42.3272 45.4535C42.3922 46.1557 42.2661 46.5443 42.2889 46.4629C42.309 46.3909 42.413 46.0697 42.7317 45.4439L35.603 41.8133L28.4742 38.1828C27.312 40.4648 26.0834 43.5568 26.3953 46.9276C26.7909 51.2033 29.4163 54.1043 32.3809 55.6141L36.0115 48.4854ZM35.603 41.8133L42.7317 45.4439L47.5096 36.0625L40.3808 32.4319L33.2521 28.8013L28.4742 38.1828L35.603 41.8133ZM40.3808 32.4319L44.0114 25.3032L41.6447 24.0978L38.0141 31.2266L34.3835 38.3553L36.7502 39.5607L40.3808 32.4319ZM38.0141 31.2266L45.1428 34.8572L45.6366 33.8876L38.5078 30.2571L31.3791 26.6265L30.8853 27.596L38.0141 31.2266ZM38.5078 30.2571L34.9604 37.4275C37.0262 38.4496 40.8027 39.788 44.9159 37.8407C48.2664 36.2545 50.0157 33.2098 50.8574 31.6677L43.8352 27.835L36.8131 24.0023C36.5285 24.5237 36.431 24.6211 36.5133 24.5219C36.6059 24.4102 37.0997 23.8387 38.0694 23.3795C39.1547 22.8657 40.2638 22.7607 41.1385 22.8691C41.8657 22.9593 42.2246 23.1704 42.0553 23.0866L38.5078 30.2571ZM43.8352 27.835L40.2047 34.9637L40.889 35.3123L44.5196 28.1835L48.1502 21.0548L47.4658 20.7062L43.8352 27.835ZM44.5196 28.1835L37.3909 24.5529L35.3142 28.6306L42.4429 32.2611L49.5716 35.8917L51.6483 31.8141L44.5196 28.1835ZM42.4429 32.2611L38.8123 39.3899L42.2626 41.1471L45.8932 34.0184L49.5238 26.8896L46.0735 25.1324L42.4429 32.2611ZM45.8932 34.0184L38.7645 30.3878L38.2707 31.3573L45.3994 34.9879L52.5282 38.6184L53.0219 37.6489L45.8932 34.0184ZM45.3994 34.9879L49.03 27.8591L45.5797 26.1019L41.9491 33.2307L38.3186 40.3594L41.7689 42.1166L45.3994 34.9879ZM41.9491 33.2307L34.8204 29.6001L30.5799 37.9264L37.7086 41.557L44.8373 45.1876L49.0779 36.8612L41.9491 33.2307ZM37.7086 41.557L30.5799 37.9264C29.9589 39.1457 28.7572 41.4399 28.3125 43.7321C28.0599 45.0341 27.8718 47.1395 28.7683 49.4274C29.7491 51.9307 31.5894 53.5591 33.4197 54.4912L37.0503 47.3625L40.6808 40.2338C41.6557 40.7302 42.9599 41.7894 43.6655 43.5903C44.2868 45.1758 44.0844 46.4456 44.0196 46.7795C43.9524 47.1256 43.8886 47.1868 44.0636 46.7825C44.2227 46.4151 44.4615 45.9257 44.8373 45.1876L37.7086 41.557ZM37.0503 47.3625L33.4197 54.4912C34.9944 55.2932 37.1192 55.8526 39.5355 55.4041C41.811 54.9818 43.4738 53.8236 44.5456 52.8474C46.4604 51.1036 47.8698 48.6458 48.9675 46.5262L41.8636 42.8472L34.7598 39.1682C34.2934 40.0687 33.9528 40.6461 33.7198 40.9982C33.4635 41.3855 33.4753 41.2884 33.7723 41.0179C34.0824 40.7356 35.0329 39.9666 36.6156 39.6728C38.3391 39.3529 39.7904 39.7803 40.6808 40.2338L37.0503 47.3625ZM49.5257 46.1622L52.7283 38.8312L45.447 35.6503L42.2166 42.9097L49.5257 46.1622ZM50.1415 46.4312L57.4517 49.6808L60.7222 42.3235L53.3441 39.1002L50.1415 46.4312ZM47.4295 35.8528L54.7605 39.0555L57.9631 31.7245L50.6321 28.5219L47.4295 35.8528ZM44.9956 34.7896L37.6646 31.5869L34.462 38.9179L41.793 42.1205L44.9956 34.7896ZM45.4312 33.7925L48.5484 26.4248L41.2658 23.3437L38.1002 30.5899L45.4312 33.7925ZM50.606 31.0596L53.8087 23.7287L46.6842 20.6162L43.3695 27.6489L50.606 31.0596ZM51.3098 31.3671L58.6408 34.5698L61.8434 27.2388L54.5124 24.0361L51.3098 31.3671ZM49.4779 35.5604L42.1469 32.3578L38.9443 39.6887L46.2752 42.8914L49.4779 35.5604ZM53.0261 37.1105L60.357 40.3131L63.5597 32.9822L56.2287 29.7795L53.0261 37.1105ZM52.5905 38.1075L49.3878 45.4385L56.7188 48.6411L59.9215 41.3102L52.5905 38.1075ZM49.0423 36.5574L52.245 29.2265L44.914 26.0238L41.7113 33.3548L49.0423 36.5574ZM49.5257 46.1622L46.323 53.4931L46.9388 53.7622L50.1415 46.4312L53.3441 39.1002L52.7283 38.8312L49.5257 46.1622ZM50.1415 46.4312L42.8312 43.1816C42.3721 44.2144 42.0138 44.9388 41.7265 45.4436C41.4198 45.9827 41.3401 46.0087 41.5215 45.8223C41.7287 45.6095 42.5008 44.8954 43.8785 44.5657C45.3572 44.2118 46.578 44.5252 47.2199 44.8056L44.0172 52.1366L40.8146 59.4676C42.7027 60.2924 45.0587 60.7351 47.6026 60.1263C50.0453 59.5417 51.8125 58.1885 52.9858 56.9834C55.071 54.8416 56.4702 51.8888 57.4517 49.6808L50.1415 46.4312ZM44.0172 52.1366L47.2199 44.8056C47.5764 44.9614 48.2844 45.3469 48.9559 46.1518C49.6669 47.0041 50.0227 47.9508 50.1426 48.7365C50.249 49.4337 50.146 49.829 50.164 49.7464C50.1798 49.6734 50.2646 49.3465 50.5458 48.703L43.2148 45.5004L35.8838 42.2977C34.8586 44.6445 33.815 47.8038 34.3257 51.1502C34.9735 55.3951 37.7658 58.1357 40.8146 59.4676L44.0172 52.1366ZM43.2148 45.5004L50.5458 48.703L54.7605 39.0555L47.4295 35.8528L40.0985 32.6502L35.8838 42.2977L43.2148 45.5004ZM47.4295 35.8528L50.6321 28.5219L48.1983 27.4586L44.9956 34.7896L41.793 42.1205L44.2268 43.1838L47.4295 35.8528ZM44.9956 34.7896L52.3266 37.9922L52.7621 36.9952L45.4312 33.7925L38.1002 30.5899L37.6646 31.5869L44.9956 34.7896ZM45.4312 33.7925L42.314 41.1603C44.4367 42.0583 48.2857 43.1711 52.2765 40.9839C55.5273 39.2024 57.0935 36.0596 57.8425 34.4704L50.606 31.0596L43.3695 27.6489C43.1163 28.1862 43.0246 28.2893 43.1009 28.1854C43.1868 28.0684 43.6459 27.4687 44.5868 26.953C45.6398 26.3759 46.7407 26.2055 47.6203 26.262C48.3516 26.309 48.7223 26.4985 48.5484 26.4248L45.4312 33.7925ZM50.606 31.0596L47.4034 38.3906L48.1071 38.6981L51.3098 31.3671L54.5124 24.0361L53.8087 23.7287L50.606 31.0596ZM51.3098 31.3671L43.9788 28.1645L42.1469 32.3578L49.4779 35.5604L56.8088 38.7631L58.6408 34.5698L51.3098 31.3671ZM49.4779 35.5604L46.2752 42.8914L49.8234 44.4415L53.0261 37.1105L56.2287 29.7795L52.6805 28.2295L49.4779 35.5604ZM53.0261 37.1105L45.6951 33.9079L45.2595 34.9048L52.5905 38.1075L59.9215 41.3102L60.357 40.3131L53.0261 37.1105ZM52.5905 38.1075L55.7931 30.7765L52.245 29.2265L49.0423 36.5574L45.8397 43.8884L49.3878 45.4385L52.5905 38.1075ZM49.0423 36.5574L41.7113 33.3548L37.9706 41.9173L45.3016 45.12L52.6326 48.3226L56.3733 39.7601L49.0423 36.5574ZM45.3016 45.12L37.9706 41.9173C37.4229 43.1712 36.3589 45.5324 36.0505 47.8469C35.8754 49.1616 35.8122 51.2744 36.8423 53.5053C37.9695 55.9462 39.9029 57.4629 41.7851 58.2852L44.9877 50.9542L48.1904 43.6233C49.1928 44.0612 50.5574 45.0414 51.3684 46.7975C52.0823 48.3435 51.9553 49.623 51.9104 49.9601C51.8638 50.3095 51.8037 50.3745 51.9545 49.9605C52.0916 49.5843 52.301 49.0816 52.6326 48.3226L45.3016 45.12ZM44.9877 50.9542L41.7851 58.2852C43.4045 58.9927 45.5586 59.4254 47.9442 58.8348C50.1907 58.2787 51.7821 57.0241 52.7943 55.9863C54.6026 54.1323 55.8642 51.5955 56.8347 49.4146L49.5257 46.1622L42.2166 42.9097C41.8044 43.8362 41.4985 44.4328 41.2867 44.798C41.0538 45.1998 41.0598 45.1022 41.3403 44.8146C41.6331 44.5145 42.5366 43.6906 44.0991 43.3037C45.8007 42.8825 47.2747 43.2233 48.1904 43.6233L44.9877 50.9542ZM52.3213 51.4135L44.8158 48.6443L52.3213 51.4135ZM53.442 54.3851L60.9474 57.1542L63.7165 49.6487L56.2111 46.8796L53.442 54.3851ZM53.2093 55.0155L50.4402 62.521L57.9457 65.2901L60.7148 57.7846L53.2093 55.0155ZM47.6253 52.9553L40.1198 50.1862L37.3507 57.6917L44.8562 60.4608L47.6253 52.9553ZM47.8579 52.3248L50.627 44.8194L43.1215 42.0503L40.3524 49.5557L47.8579 52.3248ZM50.64 50.7932L43.1346 48.0241L50.64 50.7932ZM56.3862 30.5039L48.4054 31.0587L48.9702 39.1836L57.0837 38.4734L56.3862 30.5039ZM56.3375 29.8038L55.77 21.8239L47.8029 22.3906L48.3568 30.3585L56.3375 29.8038ZM59.9804 29.5447L67.0933 25.8832L64.6776 21.1904L59.4128 21.5649L59.9804 29.5447ZM60.2188 30.0079L67.7242 32.777L68.9424 29.4753L67.3317 26.3464L60.2188 30.0079ZM52.3213 51.4135L44.8158 48.6443C44.6303 49.1471 44.3124 50.0278 44.1173 51.003C43.9198 51.9898 43.6786 53.8501 44.4087 55.9659C45.2007 58.261 46.7215 59.701 47.9399 60.5288C49.008 61.2544 50.0819 61.6725 50.6728 61.8905L53.442 54.3851L56.2111 46.8796C55.9314 46.7764 56.344 46.8951 56.9314 47.2942C57.6692 47.7954 58.8899 48.8816 59.5335 50.7468C60.1153 52.4326 59.8774 53.7869 59.8063 54.1424C59.7375 54.4862 59.6689 54.6105 59.8267 54.1826L52.3213 51.4135ZM53.442 54.3851L45.9365 51.616L45.7039 52.2464L53.2093 55.0155L60.7148 57.7846L60.9474 57.1542L53.442 54.3851ZM53.2093 55.0155L55.9785 47.5101L50.3944 45.4498L47.6253 52.9553L44.8562 60.4608L50.4402 62.521L53.2093 55.0155ZM47.6253 52.9553L55.1307 55.7244L55.3634 55.094L47.8579 52.3248L40.3524 49.5557L40.1198 50.1862L47.6253 52.9553ZM47.8579 52.3248L45.0888 59.8303C45.6797 60.0484 46.7678 60.4279 48.0513 60.5698C49.5153 60.7317 51.607 60.6246 53.6998 59.3939C55.6291 58.2592 56.654 56.688 57.1447 55.8094C57.6297 54.9412 57.96 54.0651 58.1455 53.5623L50.64 50.7932L43.1346 48.0241C42.9767 48.4519 43.0052 48.3129 43.1762 48.0068C43.353 47.6903 44.0517 46.5061 45.589 45.602C47.2898 44.6018 48.9235 44.5687 49.81 44.6668C50.5158 44.7448 50.9067 44.9226 50.627 44.8194L47.8579 52.3248ZM50.64 50.7932L58.1455 53.5623L64.88 35.309L57.3745 32.5399L49.8691 29.7708L43.1346 48.0241L50.64 50.7932ZM57.3745 32.5399L64.88 35.309C64.9842 35.0266 65.2673 34.2865 65.452 33.6587C65.5546 33.3098 65.7268 32.676 65.8125 31.9009C65.8949 31.1557 65.961 29.7579 65.4073 28.1486C63.92 23.8256 60.0407 22.7911 58.6212 22.5768C57.3304 22.3818 56.1128 22.4973 55.6887 22.5344L56.3862 30.5039L57.0837 38.4734C57.5936 38.4288 57.0538 38.5214 56.2324 38.3974C55.759 38.3259 54.6434 38.11 53.4188 37.3332C51.9949 36.43 50.8585 35.0419 50.2778 33.354C49.7745 31.8912 49.8509 30.672 49.9095 30.142C49.9714 29.5819 50.0858 29.1996 50.1024 29.143C50.1151 29.0998 50.1138 29.1075 49.8691 29.7708L57.3745 32.5399ZM56.3862 30.5039L64.3669 29.9492L64.3182 29.249L56.3375 29.8038L48.3568 30.3585L48.4054 31.0587L56.3862 30.5039ZM56.3375 29.8038L56.905 37.7836L60.5479 37.5246L59.9804 29.5447L59.4128 21.5649L55.77 21.8239L56.3375 29.8038ZM59.9804 29.5447L52.8675 33.2062L53.1059 33.6694L60.2188 30.0079L67.3317 26.3464L67.0933 25.8832L59.9804 29.5447ZM60.2188 30.0079L52.7133 27.2388L44.8158 48.6443L52.3213 51.4135L59.8267 54.1826L67.7242 32.777L60.2188 30.0079ZM65.2303 51.4341L67.4952 43.7614L61.1044 41.8749L58.0935 47.8194L65.2303 51.4341ZM65.8748 51.6244L73.2784 54.6555L76.6341 46.4591L68.1397 43.9517L65.8748 51.6244ZM66.5382 49.151L64.2733 56.8237L71.946 59.0886L74.2109 51.4158L66.5382 49.151ZM58.5586 46.7955L60.8235 39.1228L53.1508 36.8579L50.8859 44.5306L58.5586 46.7955ZM59.7758 55.8965L62.0407 48.2238L59.7758 55.8965ZM63.8607 41.1538L66.1256 33.4811L63.8607 41.1538ZM58.928 45.7701L51.4892 42.8266L48.2689 50.965L56.6631 53.4428L58.928 45.7701ZM65.0355 47.573L62.7706 55.2457L70.4433 57.5105L72.7082 49.8378L65.0355 47.573ZM65.2303 51.4341L62.9655 59.1068L63.61 59.2971L65.8748 51.6244L68.1397 43.9517L67.4952 43.7614L65.2303 51.4341ZM65.8748 51.6244L58.4713 48.5933C58.1706 49.3276 57.9031 49.7892 57.725 50.0476C57.5438 50.3105 57.5035 50.2937 57.6768 50.1601C57.8616 50.0178 58.2966 49.7404 58.9847 49.5878C59.6995 49.4292 60.4583 49.4583 61.149 49.6622L58.8841 57.3349L56.6193 65.0076C60.6479 66.1968 64.5311 65.0775 67.4425 62.8342C70.1508 60.7474 72.006 57.7633 73.2784 54.6555L65.8748 51.6244ZM58.8841 57.3349L61.149 49.6622C61.808 49.8567 62.512 50.284 63.051 50.9237C63.546 51.5114 63.6781 52.009 63.7008 52.1101C63.7208 52.1995 63.6711 52.0329 63.7132 51.5375C63.7539 51.0568 63.8711 50.3872 64.1216 49.5387L56.4489 47.2738L48.7762 45.0089C47.8147 48.266 47.2851 52.0231 48.0874 55.6061C48.9695 59.5455 51.6331 63.5357 56.6193 65.0076L58.8841 57.3349ZM56.4489 47.2738L64.1216 49.5387C64.3218 48.8604 64.5595 48.3106 64.7846 47.9044C64.8954 47.7046 64.9937 47.5564 65.0701 47.4538C65.147 47.3504 65.1901 47.3087 65.1873 47.3114C65.1849 47.3137 65.1195 47.377 64.9799 47.4658C64.8385 47.5557 64.6112 47.6777 64.2972 47.7797C63.5965 48.0074 62.7639 48.0368 61.996 47.8102L64.2608 40.1375L66.5257 32.4648C61.2763 30.9152 56.8032 33.1592 54.0598 35.8145C51.4267 38.363 49.7364 41.7558 48.7762 45.0089L56.4489 47.2738ZM64.2608 40.1375L61.996 47.8102C61.2491 47.5897 60.5054 47.127 59.9413 46.47C59.4167 45.8592 59.2464 45.3167 59.2003 45.1261C59.1566 44.9453 59.2003 44.9958 59.1746 45.3476C59.1498 45.6866 59.0674 46.2022 58.8655 46.8861L66.5382 49.151L74.2109 51.4158C75.1197 48.3373 75.5777 44.779 74.7518 41.3646C73.8533 37.6494 71.2675 33.8645 66.5257 32.4648L64.2608 40.1375ZM66.5382 49.151L68.8031 41.4783L60.8235 39.1228L58.5586 46.7955L56.2937 54.4682L64.2733 56.8237L66.5382 49.151ZM58.5586 46.7955L50.8859 44.5306L50.6866 45.2058L58.3593 47.4707L66.032 49.7356L66.2313 49.0604L58.5586 46.7955ZM58.3593 47.4707L50.6866 45.2058C49.8917 47.8986 49.4317 51.0377 49.8567 54.0385C50.2395 56.742 51.8672 61.9032 57.511 63.5692L59.7758 55.8965L62.0407 48.2238C63.5586 48.6718 64.5952 49.6507 65.1531 50.5148C65.4055 50.9058 65.5392 51.2358 65.6074 51.4394C65.676 51.6443 65.6953 51.7715 65.6986 51.7952C65.7028 51.825 65.677 51.6396 65.7222 51.2198C65.7655 50.8177 65.8624 50.31 66.032 49.7356L58.3593 47.4707ZM59.7758 55.8965L57.511 63.5692C61.0301 64.608 64.4418 63.6712 67.0426 61.7673C69.3901 60.0489 71.0801 57.5899 72.3671 55.0488L65.2303 51.4341L58.0935 47.8194C57.3812 49.2258 57.0958 49.2199 57.5919 48.8568C57.8926 48.6367 58.4783 48.2923 59.3416 48.1115C60.2342 47.9245 61.1715 47.9672 62.0407 48.2238L59.7758 55.8965ZM63.8607 41.1538L66.1256 33.4811C61.1848 32.0226 57.3315 34.55 55.4002 36.5117C53.5055 38.4363 52.2772 40.8353 51.4892 42.8266L58.928 45.7701L66.3668 48.7137C66.761 47.7175 67.0169 47.5184 66.802 47.7367C66.6625 47.8784 66.1554 48.3586 65.2208 48.7069C64.168 49.0992 62.8723 49.2033 61.5959 48.8265L63.8607 41.1538ZM58.928 45.7701L56.6631 53.4428L62.7706 55.2457L65.0355 47.573L67.3003 39.9003L61.1929 38.0974L58.928 45.7701ZM65.0355 47.573L72.7082 49.8378C73.2639 47.9551 73.7978 45.3256 73.4873 42.631C73.1677 39.859 71.5389 35.079 66.1256 33.4811L63.8607 41.1538L61.5959 48.8265C60.2417 48.4268 59.0929 47.5349 58.3647 46.4321C57.735 45.4784 57.6172 44.6779 57.5925 44.4631C57.5536 44.1259 57.6314 44.398 57.3628 45.3081L65.0355 47.573ZM72.1531 59.8981L64.2217 58.8531L63.1767 66.7845L71.1081 67.8296L72.1531 59.8981ZM73.3444 50.8562L74.3895 42.9248L66.458 41.8798L65.413 49.8112L73.3444 50.8562ZM74.0107 50.944L81.9483 51.9415L82.9398 44.0514L75.0557 43.0126L74.0107 50.944ZM78.9214 47.2337L72.8983 52.4988L72.9362 52.5423L72.9748 52.5852L78.9214 47.2337ZM86.9903 35.9672L88.0353 28.0357L80.1039 26.9907L79.0588 34.9222L86.9903 35.9672ZM87.6883 36.0592L95.6197 37.1042L96.6647 29.1727L88.7333 28.1277L87.6883 36.0592ZM86.7185 43.4195L85.6735 51.351L93.6049 52.396L94.6499 44.4646L86.7185 43.4195ZM86.0205 43.3276L78.081 42.3455L77.1067 50.2223L84.9755 51.259L86.0205 43.3276ZM76.7029 38.84L68.7714 37.795L76.7029 38.84ZM80.9755 46.3424L74.9206 51.571L74.9265 51.5779L74.9324 51.5847L80.9755 46.3424ZM72.8194 59.9859L71.7743 67.9173L79.7058 68.9624L80.7508 61.0309L72.8194 59.9859ZM72.1531 59.8981L80.0846 60.9431L81.2759 51.9013L73.3444 50.8562L65.413 49.8112L64.2217 58.8531L72.1531 59.8981ZM73.3444 50.8562L72.2994 58.7877L72.9657 58.8755L74.0107 50.944L75.0557 43.0126L74.3895 42.9248L73.3444 50.8562ZM74.0107 50.944L66.0731 49.9465C65.1191 57.5382 68.6396 67.0202 78.0236 68.2566L79.0686 60.3251L80.1136 52.3937C80.6859 52.4691 81.1589 52.6848 81.4944 52.9254C81.8201 53.1589 81.9645 53.3753 82.0047 53.4445C82.0831 53.5794 81.7948 53.1627 81.9483 51.9415L74.0107 50.944ZM79.0686 60.3251L78.0236 68.2566C81.2494 68.6816 84.7262 68.004 87.5751 65.7156C90.375 63.4666 91.7542 60.3183 92.1513 57.3042L84.2199 56.2592L76.2884 55.2141C76.3177 54.9919 76.533 54.0627 77.5552 53.2416C78.6263 52.3812 79.7114 52.3407 80.1136 52.3937L79.0686 60.3251ZM84.2199 56.2592L92.1513 57.3042C92.733 52.8893 90.8709 49.3983 89.3963 47.2596C87.9992 45.2334 86.0241 43.1669 84.868 41.8823L78.9214 47.2337L72.9748 52.5852C73.8258 53.5308 74.3835 54.126 75.0177 54.8484C75.6022 55.5143 75.977 55.9838 76.224 56.342C76.775 57.1411 76.1122 56.5516 76.2884 55.2141L84.2199 56.2592ZM78.9214 47.2337L84.9446 41.9686C84.1632 41.0747 83.6243 40.4536 83.1984 39.9217C82.7777 39.3963 82.6308 39.157 82.5931 39.0894C82.5808 39.0674 82.6869 39.2573 82.753 39.5923C82.8196 39.9301 82.7924 40.1461 82.795 40.1268L74.8635 39.0818L66.9321 38.0368C66.5005 41.3127 67.1285 44.2117 68.6221 46.8875C69.8068 49.01 71.5763 50.9866 72.8983 52.4988L78.9214 47.2337ZM74.8635 39.0818L82.795 40.1268C82.7733 40.2913 82.6939 40.6356 82.4452 41.0494C82.1931 41.469 81.8431 41.8318 81.4454 42.0971C80.654 42.6251 80.1053 42.5159 80.2506 42.5351L81.2956 34.6036L82.3406 26.6722C79.1865 26.2566 75.639 26.7367 72.5652 28.7876C69.3565 30.9285 67.4263 34.2861 66.9321 38.0368L74.8635 39.0818ZM81.2956 34.6036L80.2506 42.5351C79.9002 42.4889 79.4979 42.2372 79.3411 42.0876C79.335 42.0817 79.3552 42.1003 79.4234 42.1759C79.4594 42.2158 79.4992 42.2608 79.5621 42.3324C79.6132 42.3905 79.7089 42.4998 79.8015 42.6031C79.9371 42.7541 80.3737 43.2449 80.9534 43.7278C81.4224 44.1184 82.9441 45.343 85.2946 45.6527L86.3396 37.7212L87.3846 29.7898C89.5685 30.0775 90.9157 31.2025 91.1934 31.4337C91.5818 31.7572 91.8103 32.0289 91.7119 31.9192C91.6875 31.8921 91.6599 31.8606 91.5799 31.7696C91.5119 31.6922 91.4132 31.58 91.302 31.4568C91.0758 31.2061 90.7669 30.8748 90.388 30.5132C88.7404 28.9406 86.1492 27.174 82.3406 26.6722L81.2956 34.6036ZM86.3396 37.7212L85.2946 45.6527C86.2056 45.7727 88.4641 45.9243 90.7875 44.4647C92.8803 43.1499 93.758 41.3072 94.0774 40.5403C94.6515 39.1616 94.8373 37.6528 94.9217 37.0122L86.9903 35.9672L79.0588 34.9222C79.016 35.2471 78.9934 35.3643 78.9945 35.3589C78.9962 35.3501 79.0137 35.2626 79.0522 35.1226C79.0885 34.9904 79.1666 34.7265 79.3068 34.3898C79.5258 33.8639 80.2987 32.1587 82.276 30.9164C84.484 29.5293 86.6163 29.6885 87.3846 29.7898L86.3396 37.7212ZM86.9903 35.9672L85.9453 43.8986L86.6432 43.9906L87.6883 36.0592L88.7333 28.1277L88.0353 28.0357L86.9903 35.9672ZM87.6883 36.0592L79.7568 35.0141L78.787 42.3745L86.7185 43.4195L94.6499 44.4646L95.6197 37.1042L87.6883 36.0592ZM86.7185 43.4195L87.7635 35.4881L87.0655 35.3961L86.0205 43.3276L84.9755 51.259L85.6735 51.351L86.7185 43.4195ZM86.0205 43.3276L93.96 44.3096C94.8014 37.5076 91.3263 28.9535 82.2937 27.7634L81.2487 35.6949L80.2037 43.6263C79.8288 43.5769 79.4116 43.4321 79.0267 43.1773C78.6501 42.928 78.4045 42.6407 78.2617 42.4121C77.9852 41.9698 78.1405 41.8643 78.081 42.3455L86.0205 43.3276ZM81.2487 35.6949L82.2937 27.7634C79.0401 27.3347 75.6546 28.0236 72.9285 30.2452C70.3317 32.3616 69.1079 35.241 68.7714 37.795L76.7029 38.84L84.6343 39.885C84.5361 40.6306 84.1417 41.7473 83.0364 42.6481C81.802 43.6541 80.5702 43.6746 80.2037 43.6263L81.2487 35.6949ZM76.7029 38.84L68.7714 37.795C68.2043 42.0992 70.0372 45.4337 71.3802 47.3514C72.5407 49.0086 74.4318 51.005 74.9206 51.571L80.9755 46.3424L87.0303 41.1138C86.7164 40.7502 86.4047 40.4026 86.1334 40.1014C85.8457 39.7821 85.6158 39.5286 85.384 39.2666C84.9179 38.74 84.6518 38.4101 84.4859 38.1731C84.1107 37.6374 84.8294 38.4043 84.6343 39.885L76.7029 38.84ZM80.9755 46.3424L74.9324 51.5847C75.9578 52.7667 76.6295 53.5175 77.2472 54.2601C77.8365 54.9684 78.0846 55.3289 78.1949 55.5154C78.269 55.6406 78.1887 55.533 78.1374 55.2833C78.0875 55.0402 78.1282 54.9688 78.0943 55.2262L86.0258 56.2712L93.9572 57.3162C94.4497 53.5781 93.7359 50.3613 91.966 47.3693C90.6232 45.0994 88.5082 42.8173 87.0185 41.1001L80.9755 46.3424ZM86.0258 56.2712L78.0943 55.2262C78.1071 55.129 78.1642 54.8779 78.3536 54.5693C78.5401 54.2654 78.7877 54.0158 79.0496 53.8371C79.5342 53.5064 79.9645 53.4714 80.257 53.51L79.212 61.4414L78.167 69.3729C84.7087 70.2348 92.768 66.342 93.9572 57.3162L86.0258 56.2712ZM79.212 61.4414L80.257 53.51C80.1932 53.5015 80.3147 53.512 80.5264 53.6205C80.6204 53.6686 80.7028 53.7212 80.7688 53.7695C80.8332 53.8166 80.8682 53.8494 80.8677 53.8489C80.8625 53.8441 80.8297 53.8129 80.7308 53.7063C80.724 53.699 80.3928 53.3363 80.212 53.148C79.9966 52.9237 79.4799 52.3919 78.7709 51.878C78.0479 51.3539 76.6865 50.5219 74.7773 50.2704L73.7322 58.2018L72.6872 66.1333C71.008 65.912 69.8714 65.1884 69.3806 64.8326C69.1156 64.6405 68.9279 64.4742 68.8302 64.3841C68.7306 64.2923 68.6713 64.2301 68.6705 64.2292C68.67 64.2288 68.687 64.2465 68.7515 64.3167C68.7984 64.3678 68.9055 64.4851 69.0023 64.5894C69.2153 64.819 69.527 65.1479 69.9113 65.509C70.7027 66.2527 71.7872 67.1209 73.2318 67.8608C74.6841 68.6048 76.3273 69.1305 78.167 69.3729L79.212 61.4414ZM73.7322 58.2018L74.7773 50.2704C73.3606 50.0837 71.3714 50.1861 69.3899 51.3345C67.5165 52.4202 66.5175 53.9439 66.0178 54.9302C65.1833 56.5776 64.9695 58.3215 64.8879 58.9409L72.8194 59.9859L80.7508 61.0309C80.7808 60.8034 80.7905 60.7892 80.7659 60.8966C80.7521 60.9569 80.6368 61.4777 80.291 62.1604C79.9332 62.8669 79.0961 64.2021 77.4127 65.1777C75.6213 66.2159 73.8501 66.2865 72.6872 66.1333L73.7322 58.2018ZM72.8194 59.9859L73.8644 52.0544L73.1982 51.9666L72.1531 59.8981L71.1081 67.8296L71.7743 67.9173L72.8194 59.9859ZM98.8686 59.8161L98.9622 51.8166L93.3458 51.7509L91.3765 57.011L98.8686 59.8161ZM99.5405 59.824L107.237 62.0055L110.088 51.9469L99.6341 51.8245L99.5405 59.824ZM97.2368 62.5172L97.3305 54.5177L97.2368 62.5172ZM95.3243 59.1346L103.324 59.2282L103.417 51.2287L95.4179 51.1351L95.3243 59.1346ZM95.2603 59.1338L95.3539 51.1344L90.6924 51.0798L88.3468 55.1085L95.2603 59.1338ZM93.94 51.6298L90.5731 44.3729L90.5392 44.3886L90.5054 44.4046L93.94 51.6298ZM95.4202 50.9431L98.7871 58.2001L103.361 56.0782L103.42 51.0368L95.4202 50.9431ZM95.4389 49.3432L87.4395 49.2496L95.4389 49.3432ZM90.2495 47.0423L82.25 46.9487L90.2495 47.0423ZM90.8346 49.0013L98.834 49.0949L90.8346 49.0013ZM89.6714 49.9478L89.7651 41.9483L89.6714 49.9478ZM97.1079 59.8595L89.1085 59.7658L97.1079 59.8595ZM97.7295 61.4349L97.8232 53.4354L97.7295 61.4349ZM95.3363 58.1106L101.68 62.9852L103.305 60.8708L103.336 58.2043L95.3363 58.1106ZM95.4082 51.967L103.408 52.0607L103.558 39.2456L91.9789 44.7393L95.4082 51.967ZM93.96 52.6541L90.5307 45.4264L90.4985 45.4417L90.4664 45.4573L93.96 52.6541ZM98.8686 59.8161L98.7749 67.8155L99.4469 67.8234L99.5405 59.824L99.6341 51.8245L98.9622 51.8166L98.8686 59.8161ZM99.5405 59.824L91.8437 57.6424C91.736 58.0224 91.7055 58.1064 91.7079 58.0999C91.7093 58.0962 91.8508 57.6984 92.2166 57.1741C92.6222 56.5927 93.3304 55.8184 94.4322 55.2388C95.5412 54.6554 96.5931 54.5091 97.3305 54.5177L97.2368 62.5172L97.1432 70.5166C98.6165 70.5339 100.27 70.2465 101.881 69.3991C103.485 68.5553 104.596 67.3937 105.339 66.3282C106.581 64.5476 107.096 62.5046 107.237 62.0055L99.5405 59.824ZM97.2368 62.5172L97.3305 54.5177C97.9779 54.5253 99.0064 54.6663 100.123 55.2764C101.277 55.907 102.09 56.8021 102.597 57.6674C103.436 59.0994 103.312 60.222 103.317 59.8362L95.3172 59.7425L87.3177 59.6489C87.3039 60.8309 87.3721 63.3319 88.7913 65.7547C90.6585 68.9421 93.8967 70.4786 97.1432 70.5166L97.2368 62.5172ZM95.3172 59.7425L103.317 59.8362L103.324 59.2282L95.3243 59.1346L87.3248 59.0409L87.3177 59.6489L95.3172 59.7425ZM95.3243 59.1346L95.4179 51.1351L95.3539 51.1344L95.2603 59.1338L95.1666 67.1333L95.2306 67.134L95.3243 59.1346ZM95.2603 59.1338L88.3468 55.1085C88.2006 55.3596 88.1536 55.4359 88.1065 55.504C88.0621 55.5682 88.0904 55.5146 88.206 55.403C88.3239 55.2891 88.6078 55.0419 89.0799 54.8217C89.5881 54.5845 90.1994 54.4342 90.8349 54.4417L90.7413 62.4411L90.6476 70.4406C94.6747 70.4877 97.59 68.5843 99.3231 66.9099C100.95 65.3381 101.917 63.5994 102.174 63.1591L95.2603 59.1338ZM90.7413 62.4411L90.8349 54.4417C91.2323 54.4463 91.8814 54.5274 92.6311 54.8734C93.4025 55.2292 94.0667 55.7684 94.5622 56.4047C95.038 57.0157 95.2609 57.588 95.3621 57.9574C95.4611 58.3194 95.4593 58.5394 95.459 58.5601L87.4596 58.4665L79.4601 58.3728C79.4335 60.6464 79.9126 63.6338 81.9383 66.2351C84.1766 69.1096 87.4369 70.403 90.6476 70.4406L90.7413 62.4411ZM87.4596 58.4665L95.459 58.5601C95.4576 58.6781 95.4177 59.0671 95.1759 59.5415C94.9474 59.9898 94.6905 60.2157 94.6597 60.2414C94.6507 60.2489 94.6912 60.2143 94.8079 60.14C94.9255 60.0653 95.0934 59.9674 95.334 59.8406C95.5764 59.7128 95.8568 59.5743 96.2062 59.4074C96.38 59.3244 96.559 59.24 96.7564 59.147C96.948 59.0568 97.1613 58.9565 97.3746 58.855L93.94 51.6298L90.5054 44.4046C89.414 44.9235 86.6093 46.1207 84.41 47.9555C81.6518 50.2566 79.5148 53.7002 79.4601 58.3728L87.4596 58.4665ZM93.94 51.6298L97.307 58.8868L98.7871 58.2001L95.4202 50.9431L92.0532 43.6861L90.5731 44.3729L93.94 51.6298ZM95.4202 50.9431L103.42 51.0368L103.438 49.4369L95.4389 49.3432L87.4395 49.2496L87.4207 50.8495L95.4202 50.9431ZM95.4389 49.3432L103.438 49.4369C103.448 48.5727 103.55 45.6823 102.217 42.9965C101.407 41.3649 100.084 39.7923 98.1444 38.7123C96.3041 37.6878 94.4259 37.3945 92.8908 37.3766L92.7972 45.376L92.7035 53.3755C92.4003 53.3719 91.4715 53.3098 90.3615 52.6919C89.152 52.0185 88.3408 51.0279 87.8863 50.1125C87.4967 49.3279 87.4381 48.7441 87.4352 48.7191C87.4305 48.6778 87.4448 48.7904 87.4395 49.2496L95.4389 49.3432ZM92.7972 45.376L92.8908 37.3766C91.0263 37.3548 88.7804 37.7567 86.7229 39.0583C84.5412 40.4384 82.2949 43.1181 82.25 46.9487L90.2495 47.0423L98.2489 47.136C98.2161 49.9426 96.5396 51.7809 95.2768 52.5798C94.1382 53.3001 93.1601 53.3808 92.7035 53.3755L92.7972 45.376ZM90.2495 47.0423L82.25 46.9487C82.2346 48.2707 82.5018 49.3657 82.7715 50.1517C82.902 50.532 83.0354 50.8463 83.1337 51.0655C83.2264 51.272 83.317 51.4574 83.3452 51.5155C83.3912 51.6103 83.3748 51.5778 83.3516 51.5261C83.3227 51.4617 83.254 51.3042 83.1786 51.0845C83.0192 50.6198 82.824 49.8617 82.8351 48.9077L90.8346 49.0013L98.834 49.0949C98.8495 47.7729 98.5823 46.6779 98.3126 45.8919C98.1821 45.5116 98.0487 45.1973 97.9504 44.9781C97.8577 44.7716 97.7671 44.5862 97.7388 44.5281C97.6928 44.4333 97.7093 44.4658 97.7325 44.5176C97.7614 44.5819 97.8301 44.7394 97.9055 44.9591C98.0649 45.4238 98.2601 46.1819 98.2489 47.136L90.2495 47.0423ZM90.8346 49.0013L82.8351 48.9077C82.8579 46.9602 83.7192 44.9204 85.441 43.5082C87.0292 42.2055 88.7188 41.9361 89.7651 41.9483L89.6714 49.9478L89.5778 57.9472C91.328 57.9677 93.5958 57.5131 95.588 55.879C97.7136 54.1355 98.8045 51.6183 98.834 49.0949L90.8346 49.0013ZM89.6714 49.9478L89.7651 41.9483C90.7699 41.9601 91.9351 42.2047 93.0684 42.8445C94.1975 43.4819 94.9914 44.34 95.5045 45.1537C96.4378 46.6337 96.4161 47.8795 96.4146 48.0105L88.4151 47.9169L80.4157 47.8233C80.3988 49.2662 80.6053 51.5228 81.9706 53.6879C83.6081 56.2847 86.4161 57.9102 89.5778 57.9472L89.6714 49.9478ZM88.4151 47.9169L96.4146 48.0105C96.4068 48.6774 96.2437 49.4322 95.8624 50.1639C95.4859 50.8863 94.9841 51.4193 94.5031 51.7784C93.5848 52.4641 92.877 52.4495 92.8744 52.4494L92.968 44.45L93.0617 36.4505C90.4352 36.4198 87.4636 37.0667 84.931 38.9576C82.2226 40.9797 80.4587 44.1441 80.4157 47.8233L88.4151 47.9169ZM92.968 44.45L92.8744 52.4494C92.8063 52.4486 91.4465 52.3901 90.2192 51.0601C89.0683 49.813 89.2376 48.7361 89.2302 49.3665L97.2297 49.4602L105.229 49.5538C105.263 46.6325 104.614 43.0659 101.978 40.2093C99.2649 37.2698 95.7536 36.482 93.0617 36.4505L92.968 44.45ZM97.2297 49.4602L89.2302 49.3665L89.1085 59.7658L97.1079 59.8595L105.107 59.9531L105.229 49.5538L97.2297 49.4602ZM97.1079 59.8595L89.1085 59.7658C89.106 59.9786 89.0222 61.7691 89.5909 63.5165C89.956 64.6384 90.7644 66.3494 92.5483 67.7046C94.366 69.0855 96.2998 69.4187 97.6359 69.4343L97.7295 61.4349L97.8232 53.4354C98.8713 53.4477 100.582 53.7143 102.227 54.9641C103.839 56.1883 104.525 57.7038 104.805 58.5647C105.064 59.3607 105.098 59.962 105.102 60.0347C105.11 60.1564 105.105 60.178 105.107 59.9531L97.1079 59.8595ZM97.7295 61.4349L97.6359 69.4343C99.2175 69.4528 100.886 69.0381 102.393 68.0641C103.756 67.183 104.575 66.1081 105.017 65.4314C105.762 64.2899 106.22 62.998 106.361 62.6211L98.8686 59.8161L91.3765 57.011C91.3307 57.1333 91.2972 57.2209 91.2714 57.2865C91.2452 57.3529 91.2355 57.3751 91.2386 57.3679C91.241 57.3623 91.2693 57.2971 91.3221 57.1937C91.3738 57.0925 91.4714 56.9108 91.6194 56.684C91.8902 56.2693 92.5349 55.3845 93.7065 54.6271C95.0219 53.7768 96.4815 53.4197 97.8232 53.4354L97.7295 61.4349ZM91.464 60.8495L91.3703 68.8489C97.1236 68.9163 100.28 64.8071 101.68 62.9852L95.3363 58.1106L88.9929 53.236C88.6989 53.6186 88.5231 53.8253 88.4258 53.9312C88.3278 54.0378 88.4001 53.9419 88.6259 53.7745C88.8757 53.5892 89.3044 53.3226 89.9005 53.1204C90.5101 52.9136 91.0871 52.8445 91.5576 52.85L91.464 60.8495ZM95.3363 58.1106L103.336 58.2043L103.408 52.0607L95.4082 51.967L87.4087 51.8734L87.3368 58.017L95.3363 58.1106ZM95.4082 51.967L91.9789 44.7393L90.5307 45.4264L93.96 52.6541L97.3894 59.8819L98.8375 59.1948L95.4082 51.967ZM93.96 52.6541L90.4664 45.4573C87.5869 46.8552 81.4103 50.3382 81.3205 58.0106L89.3199 58.1042L97.3194 58.1979C97.3151 58.5671 97.2342 59.0268 97.0326 59.4944C96.8381 59.9452 96.6044 60.2349 96.4763 60.3704C96.3622 60.4911 96.3422 60.4795 96.523 60.3605C96.7029 60.2421 96.9959 60.0732 97.4538 59.8509L93.96 52.6541ZM89.3199 58.1042L81.3205 58.0106C81.2978 59.949 81.6803 62.7036 83.6104 65.1269C85.7467 67.809 88.753 68.8183 91.3703 68.8489L91.464 60.8495L91.5576 52.85C92.799 52.8646 94.7228 53.3971 96.1258 55.1587C97.3226 56.6613 97.3211 58.0513 97.3194 58.1979L89.3199 58.1042ZM100.273 38.3982L100.818 46.3796L100.273 38.3982ZM100.072 35.461L100.617 43.4424L100.072 35.461ZM101.641 36.8293L109.622 36.284L101.641 36.8293ZM105.039 60.7493L113.021 60.204L112.476 52.2226L104.494 52.7679L105.039 60.7493ZM105.085 61.4197L105.631 69.4011L113.612 68.8558L113.067 60.8744L105.085 61.4197ZM99.1471 61.8254L91.1657 62.3707L91.711 70.3521L99.6923 69.8068L99.1471 61.8254ZM99.1012 61.155L98.556 53.1736L90.5746 53.7189L91.1199 61.7003L99.1012 61.155ZM98.5558 46.5983L91.5761 50.5078L95.4191 57.3686L102.345 53.644L98.5558 46.5983ZM98.227 46.0113L94.3872 38.9931L87.2987 42.8713L91.2473 49.9208L98.227 46.0113ZM101.443 44.2521L106.701 38.2228L102.497 34.5564L97.6028 37.2338L101.443 44.2521ZM101.852 44.609L109.833 44.0637L109.607 40.7577L107.11 38.5797L101.852 44.609ZM100.273 38.3982L99.7276 30.4168C103.305 30.1723 106.441 32.9067 106.685 36.4846L98.7039 37.0299L90.7225 37.5752C91.0804 42.8133 95.5801 46.7374 100.818 46.3796L100.273 38.3982ZM98.7039 37.0299L106.685 36.4846C106.924 39.9809 104.308 43.1903 100.617 43.4424L100.072 35.461L99.5269 27.4796C94.1761 27.8452 90.3746 32.4827 90.7225 37.5752L98.7039 37.0299ZM100.072 35.461L100.617 43.4424C97.0076 43.689 93.9063 40.9844 93.6597 37.3746L101.641 36.8293L109.622 36.284C109.267 31.0778 104.733 27.1239 99.5269 27.4796L100.072 35.461ZM101.641 36.8293L93.6597 37.3746C93.4075 33.6839 96.2313 30.6556 99.7276 30.4168L100.273 38.3982L100.818 46.3796C105.911 46.0317 109.988 41.6348 109.622 36.284L101.641 36.8293ZM102.801 58.4966L94.8193 59.0419C94.8558 59.5766 94.9262 60.5103 95.1473 61.4798C95.371 62.461 95.9123 64.2572 97.4444 65.8888C99.1064 67.6587 101.083 68.3501 102.534 68.6067C103.805 68.8316 104.956 68.7736 105.585 68.7307L105.039 60.7493L104.494 52.7679C104.197 52.7882 104.622 52.7276 105.321 52.8513C106.199 53.0067 107.758 53.4981 109.108 54.9365C110.329 56.2366 110.666 57.5696 110.747 57.9231C110.825 58.2649 110.813 58.4063 110.782 57.9513L102.801 58.4966ZM105.039 60.7493L97.058 61.2946L97.1038 61.965L105.085 61.4197L113.067 60.8744L113.021 60.204L105.039 60.7493ZM105.085 61.4197L104.54 53.4383L98.6018 53.844L99.1471 61.8254L99.6923 69.8068L105.631 69.4011L105.085 61.4197ZM99.1471 61.8254L107.128 61.2801L107.083 60.6097L99.1012 61.155L91.1199 61.7003L91.1657 62.3707L99.1471 61.8254ZM99.1012 61.155L99.6465 69.1364C100.275 69.0934 101.423 68.9944 102.652 68.5986C104.054 68.1471 105.919 67.1933 107.325 65.2138C108.621 63.3889 108.913 61.5358 109.001 60.5333C109.088 59.5427 109.031 58.6082 108.994 58.0735L101.013 58.6188L93.0314 59.1641C93.0625 59.6191 93.0316 59.4806 93.0624 59.1313C93.0941 58.7701 93.247 57.4036 94.2796 55.9496C95.422 54.3409 96.8991 53.6421 97.7481 53.3687C98.424 53.1511 98.8534 53.1532 98.556 53.1736L99.1012 61.155ZM101.013 58.6188L108.994 58.0735L108.272 47.5061L100.291 48.0514L92.3095 48.5967L93.0314 59.1641L101.013 58.6188ZM100.291 48.0514L108.272 47.5061C108.252 47.2162 108.208 46.426 108.119 45.7771C108.069 45.4151 107.966 44.7647 107.724 44.0202C107.49 43.2996 106.977 42.0107 105.824 40.781C102.763 37.5143 98.8821 38.0682 97.4797 38.4342C96.2156 38.764 95.1448 39.3492 94.7667 39.5525L98.5558 46.5983L102.345 53.644C102.787 53.4065 102.326 53.7054 101.52 53.9158C101.053 54.0375 99.9592 54.2731 98.5496 54.0519C96.9195 53.7962 95.3505 53.003 94.1506 51.7227C93.1039 50.6061 92.673 49.475 92.5054 48.9584C92.3299 48.4178 92.2764 48.0176 92.2676 47.9534C92.2603 47.9004 92.2617 47.8969 92.3095 48.5967L100.291 48.0514ZM98.5558 46.5983L105.535 42.6888L105.207 42.1018L98.227 46.0113L91.2473 49.9208L91.5761 50.5078L98.5558 46.5983ZM98.227 46.0113L102.067 53.0296L105.282 51.2703L101.443 44.2521L97.6028 37.2338L94.3872 38.9931L98.227 46.0113ZM101.443 44.2521L96.1844 50.2813L96.5937 50.6383L101.852 44.609L107.11 38.5797L106.701 38.2228L101.443 44.2521ZM101.852 44.609L93.8705 45.1543L94.8193 59.0419L102.801 58.4966L110.782 57.9513L109.833 44.0637L101.852 44.609ZM106.512 43.923L114.411 42.6525L113.885 39.3808L111.199 37.4396L106.512 43.923ZM106.924 46.4821L99.0255 47.7525L100.296 55.651L108.194 54.3806L106.924 46.4821ZM107.019 46.4668L108.289 54.3653L112.473 53.6924L114.266 49.8539L107.019 46.4668ZM114.557 46.5832L106.658 47.8537L114.557 46.5832ZM118.614 58.5062L126.512 57.2357L125.242 49.3373L117.343 50.6077L118.614 58.5062ZM118.721 59.1697L119.991 67.0682L127.89 65.7977L126.619 57.8992L118.721 59.1697ZM112.876 60.1098L104.977 61.3803L106.248 69.2788L114.146 68.0083L112.876 60.1098ZM112.769 59.4464L111.499 51.5479L103.6 52.8184L104.871 60.7168L112.769 59.4464ZM110.471 44.3557L111.742 52.2542L110.471 44.3557ZM107.097 47.5563L100.125 43.6336L98.7546 46.0684L99.1983 48.8267L107.097 47.5563ZM111.095 59.7157L118.993 58.4452L117.723 50.5467L109.824 51.8172L111.095 59.7157ZM111.201 60.3792L112.472 68.2776L120.37 67.0072L119.1 59.1087L111.201 60.3792ZM105.388 61.3142L97.4895 62.5847L98.76 70.4832L106.658 69.2127L105.388 61.3142ZM105.281 60.6508L104.011 52.7523L96.1123 54.0228L97.3828 61.9212L105.281 60.6508ZM103.411 46.2044L96.817 50.7338L101.269 57.2158L107.827 52.8755L103.411 46.2044ZM103.03 45.6499L98.5669 39.0108L91.8614 43.5189L96.4361 50.1793L103.03 45.6499ZM106.072 43.6048L110.759 37.1214L106.238 33.8534L101.609 36.9657L106.072 43.6048ZM106.512 43.923L98.6139 45.1935L99.0255 47.7525L106.924 46.4821L114.822 45.2116L114.411 42.6525L106.512 43.923ZM106.924 46.4821L108.194 54.3806L108.289 54.3653L107.019 46.4668L105.748 38.5684L105.654 38.5836L106.924 46.4821ZM107.019 46.4668L114.266 49.8539C114.488 49.3796 114.552 49.402 114.33 49.6305C114.044 49.9257 113.279 50.5485 112.05 50.7461L110.78 42.8476L109.509 34.9491C103.62 35.8965 100.859 40.7519 99.7712 43.0798L107.019 46.4668ZM110.78 42.8476L112.05 50.7461C111.627 50.8141 110.834 50.8569 109.861 50.5495C108.852 50.2305 108.041 49.6568 107.475 49.0398C106.523 48.0025 106.551 47.1882 106.658 47.8537L114.557 46.5832L122.455 45.3127C122.156 43.4506 121.433 40.5856 119.263 38.221C116.61 35.3311 112.955 34.3949 109.509 34.9491L110.78 42.8476ZM114.557 46.5832L106.658 47.8537L108.249 57.7425L116.148 56.4721L124.046 55.2016L122.455 45.3127L114.557 46.5832ZM116.148 56.4721L108.249 57.7425C108.334 58.2696 108.49 59.1997 108.802 60.152C109.12 61.1208 109.834 62.8715 111.532 64.3568C113.362 65.9582 115.397 66.4482 116.846 66.5646C118.123 66.6672 119.258 66.5054 119.884 66.4047L118.614 58.5062L117.343 50.6077C117.037 50.657 117.438 50.5607 118.127 50.616C118.988 50.6852 120.582 51.0153 122.068 52.3154C123.421 53.4996 123.888 54.808 124.005 55.1649C124.117 55.5054 124.119 55.6539 124.046 55.2016L116.148 56.4721ZM118.614 58.5062L110.715 59.7767L110.822 60.4402L118.721 59.1697L126.619 57.8992L126.512 57.2357L118.614 58.5062ZM118.721 59.1697L117.45 51.2712L111.605 52.2114L112.876 60.1098L114.146 68.0083L119.991 67.0682L118.721 59.1697ZM112.876 60.1098L120.774 58.8394L120.667 58.1759L112.769 59.4464L104.871 60.7168L104.977 61.3803L112.876 60.1098ZM112.769 59.4464L114.039 67.3448C114.657 67.2454 115.798 67.0412 116.993 66.5264C118.364 65.936 120.125 64.7995 121.328 62.6958C122.43 60.7683 122.545 58.911 122.54 57.9178C122.535 56.9311 122.394 56.0123 122.308 55.4811L114.41 56.7516L106.511 58.022C106.584 58.4703 106.542 58.3418 106.54 57.9988C106.538 57.6492 106.56 56.2889 107.438 54.754C108.416 53.0429 109.82 52.1947 110.666 51.8307C111.336 51.5423 111.781 51.5025 111.499 51.5479L112.769 59.4464ZM114.41 56.7516L122.308 55.4811L120.718 45.5922L112.819 46.8627L104.921 48.1332L106.511 58.022L114.41 56.7516ZM112.819 46.8627L120.718 45.5922C120.474 44.0794 119.867 41.5391 117.896 39.4051C115.429 36.7327 112.09 35.9925 109.201 36.4573L110.471 44.3557L111.742 52.2542C111.102 52.3571 110.118 52.3927 108.978 52.0401C107.795 51.6741 106.833 51.0088 106.141 50.259C104.946 48.9646 104.864 47.7819 104.921 48.1332L112.819 46.8627ZM110.471 44.3557L109.201 36.4573C106.181 36.943 104.087 38.6273 102.883 39.8593C101.641 41.131 100.741 42.5382 100.125 43.6336L107.097 47.5563L114.069 51.479C114.335 51.0063 114.443 50.9225 114.328 51.0406C114.251 51.1189 113.403 51.987 111.742 52.2542L110.471 44.3557ZM107.097 47.5563L99.1983 48.8267L100.825 58.9368L108.723 57.6663L116.621 56.3958L114.995 46.2858L107.097 47.5563ZM108.723 57.6663L100.825 58.9368C100.91 59.47 101.064 60.38 101.365 61.3115C101.666 62.2444 102.346 63.9599 103.973 65.4436C107.476 68.6377 111.854 67.6964 112.365 67.6142L111.095 59.7157L109.824 51.8172C109.554 51.8607 110.007 51.756 110.753 51.8245C111.698 51.9112 113.3 52.2948 114.754 53.621C116.049 54.8016 116.487 56.0739 116.591 56.3944C116.694 56.7135 116.693 56.842 116.621 56.3958L108.723 57.6663ZM111.095 59.7157L103.196 60.9862L103.303 61.6496L111.201 60.3792L119.1 59.1087L118.993 58.4452L111.095 59.7157ZM111.201 60.3792L109.931 52.4807L104.117 53.4158L105.388 61.3142L106.658 69.2127L112.472 68.2776L111.201 60.3792ZM105.388 61.3142L113.286 60.0438L113.18 59.3803L105.281 60.6508L97.3828 61.9212L97.4895 62.5847L105.388 61.3142ZM105.281 60.6508L106.552 68.5492C107.174 68.4492 108.308 68.2459 109.496 67.7398C110.851 67.1624 112.621 66.0426 113.84 63.9432C114.965 62.0078 115.087 60.1358 115.083 59.1295C115.079 58.135 114.937 57.2096 114.852 56.6804L106.954 57.9509L99.0552 59.2214C99.1277 59.6717 99.0843 59.5366 99.0831 59.1859C99.0818 58.8234 99.1094 57.4487 100.005 55.9065C100.996 54.2004 102.404 53.3699 103.224 53.0203C103.877 52.7419 104.305 52.705 104.011 52.7523L105.281 60.6508ZM106.954 57.9509L114.852 56.6804L113.17 46.2228L105.272 47.4933L97.3731 48.7638L99.0552 59.2214L106.954 57.9509ZM105.272 47.4933L113.17 46.2228C113.124 45.9359 113.008 45.1531 112.86 44.5151C112.777 44.1591 112.615 43.5208 112.307 42.8014C112.008 42.1051 111.379 40.8684 110.119 39.7489C106.773 36.7748 102.959 37.6801 101.596 38.1723C100.367 38.616 99.3538 39.2964 98.9958 39.5333L103.411 46.2044L107.827 52.8755C108.245 52.5986 107.813 52.9383 107.03 53.2213C106.576 53.385 105.508 53.7194 104.085 53.6276C102.438 53.5214 100.803 52.8746 99.4915 51.709C98.3475 50.6924 97.8152 49.6053 97.6012 49.1061C97.3772 48.5838 97.2875 48.1901 97.2728 48.127C97.2608 48.0749 97.2618 48.0713 97.3731 48.7638L105.272 47.4933ZM103.411 46.2044L110.006 41.675L109.625 41.1205L103.03 45.6499L96.4361 50.1793L96.817 50.7338L103.411 46.2044ZM103.03 45.6499L107.494 52.2889L110.536 50.2439L106.072 43.6048L101.609 36.9657L98.5669 39.0108L103.03 45.6499ZM106.072 43.6048L101.386 50.0882L101.826 50.4064L106.512 43.923L111.199 37.4396L110.759 37.1214L106.072 43.6048ZM124.19 50.1867L122.052 42.4777L114.395 44.6014L116.466 52.2723L124.19 50.1867ZM124.837 50.0071L132.56 47.9184L130.458 40.1462L122.699 42.2981L124.837 50.0071ZM116.061 43.5083L123.77 41.3701L121.632 33.6611L113.923 35.7993L116.061 43.5083ZM113.502 44.2181L105.793 46.3563L107.931 54.0653L115.64 51.9271L113.502 44.2181ZM113.211 43.1697L110.983 35.4861L103.389 37.688L105.502 45.3079L113.211 43.1697ZM115.503 37.7852L113.365 30.0762L105.873 32.1542L107.736 39.7023L115.503 37.7852ZM116.243 37.5799L123.952 35.4418L121.814 27.7328L114.105 29.8709L116.243 37.5799ZM117.466 41.9895L109.757 44.1276L111.896 51.8366L119.604 49.6984L117.466 41.9895ZM121.197 40.9546L128.906 38.8164L126.768 31.1075L119.059 33.2456L121.197 40.9546ZM121.488 42.003L123.626 49.712L131.335 47.5738L129.197 39.8648L121.488 42.003ZM117.757 43.0379L115.619 35.3289L107.91 37.4671L110.048 45.176L117.757 43.0379ZM124.19 50.1867L126.328 57.8957L126.976 57.716L124.837 50.0071L122.699 42.2981L122.052 42.4777L124.19 50.1867ZM124.837 50.0071L117.115 52.0958C117.41 53.1868 117.589 53.9749 117.684 54.5478C117.786 55.1596 117.741 55.2301 117.764 54.9711C117.79 54.6752 117.939 53.6341 118.801 52.5094C119.725 51.3021 120.87 50.7754 121.545 50.5882L123.683 58.2972L125.821 66.0061C127.807 65.4554 129.914 64.3131 131.504 62.2362C133.031 60.2419 133.549 58.0773 133.7 56.4022C133.967 53.4249 133.191 50.2509 132.56 47.9184L124.837 50.0071ZM123.683 58.2972L121.545 50.5882C121.92 50.4842 122.712 50.3368 123.741 50.538C124.83 50.751 125.704 51.2613 126.292 51.7954C126.814 52.2693 126.984 52.641 126.946 52.5656C126.912 52.4989 126.772 52.1918 126.584 51.5151L118.875 53.6533L111.166 55.7914C111.85 58.2592 113.033 61.3692 115.54 63.644C118.72 66.5296 122.615 66.8953 125.821 66.0061L123.683 58.2972ZM118.875 53.6533L126.584 51.5151L123.77 41.3701L116.061 43.5083L108.352 45.6464L111.166 55.7914L118.875 53.6533ZM116.061 43.5083L113.923 35.7993L111.364 36.5092L113.502 44.2181L115.64 51.9271L118.199 51.2172L116.061 43.5083ZM113.502 44.2181L121.211 42.08L120.92 41.0316L113.211 43.1697L105.502 45.3079L105.793 46.3563L113.502 44.2181ZM113.211 43.1697L115.439 50.8533C117.652 50.2115 121.341 48.6475 123.059 44.4332C124.458 41.0005 123.691 37.5738 123.27 35.8681L115.503 37.7852L107.736 39.7023C107.879 40.279 107.873 40.4167 107.866 40.288C107.859 40.1431 107.837 39.3881 108.242 38.3945C108.695 37.2825 109.442 36.456 110.16 35.945C110.757 35.5203 111.165 35.4335 110.983 35.4861L113.211 43.1697ZM115.503 37.7852L117.641 45.4942L118.381 45.2889L116.243 37.5799L114.105 29.8709L113.365 30.0762L115.503 37.7852ZM116.243 37.5799L108.534 39.7181L109.757 44.1276L117.466 41.9895L125.175 39.8513L123.952 35.4418L116.243 37.5799ZM117.466 41.9895L119.604 49.6984L123.336 48.6636L121.197 40.9546L119.059 33.2456L115.328 34.2805L117.466 41.9895ZM121.197 40.9546L113.488 43.0928L113.779 44.1412L121.488 42.003L129.197 39.8648L128.906 38.8164L121.197 40.9546ZM121.488 42.003L119.35 34.294L115.619 35.3289L117.757 43.0379L119.895 50.7469L123.626 49.712L121.488 42.003ZM117.757 43.0379L110.048 45.176L112.546 54.1801L120.254 52.042L127.963 49.9038L125.466 40.8997L117.757 43.0379ZM120.254 52.042L112.546 54.1801C112.911 55.4986 113.575 58.0021 114.795 59.9927C115.488 61.1234 116.772 62.8029 118.978 63.8844C121.392 65.0678 123.849 65.0255 125.829 64.4765L123.69 56.7675L121.552 49.0586C122.606 48.7662 124.284 48.6662 126.02 49.5175C127.55 50.267 128.258 51.3401 128.436 51.63C128.62 51.9306 128.614 52.0188 128.47 51.6025C128.339 51.2241 128.185 50.7019 127.963 49.9038L120.254 52.042ZM123.69 56.7675L125.829 64.4765C127.532 64.0042 129.476 62.9814 130.955 61.0186C132.348 59.1701 132.791 57.1929 132.922 55.7491C133.156 53.1699 132.535 50.4055 131.913 48.101L124.19 50.1867L116.466 52.2723C116.731 53.2514 116.87 53.9072 116.936 54.3242C117.008 54.7829 116.952 54.7034 116.988 54.3033C117.026 53.8857 117.207 52.6766 118.176 51.3909C119.231 49.9908 120.589 49.3256 121.552 49.0586L123.69 56.7675ZM127.755 56.6532L120.318 59.601L123.266 67.0381L130.703 64.0903L127.755 56.6532ZM125.444 50.8225L122.496 43.3854L115.059 46.3332L118.007 53.7703L125.444 50.8225ZM126.069 50.5749L133.143 46.8392L129.792 40.4936L123.121 43.1378L126.069 50.5749ZM127.618 47.2758L130.482 39.8058L130.473 39.8026L130.465 39.7995L127.618 47.2758ZM122.549 43.6054L115.112 46.5533L122.549 43.6054ZM128.013 38.8925L125.065 31.4554L128.013 38.8925ZM127.986 37.8704L125.039 30.4333L117.601 33.3811L120.549 40.8182L127.986 37.8704ZM128.611 37.6227L136.048 34.6749L133.1 27.2378L125.663 30.1856L128.611 37.6227ZM130.498 42.3825L133.446 49.8196L140.883 46.8718L137.935 39.4347L130.498 42.3825ZM129.873 42.6301L122.995 46.7159L126.479 52.5809L132.821 50.0672L129.873 42.6301ZM125.057 39.8578L122.109 32.4207L125.057 39.8578ZM123.949 42.5343L116.512 45.4821L123.949 42.5343ZM128.604 45.6805L125.934 53.222L125.937 53.223L128.604 45.6805ZM134.401 50.0603L126.964 53.0081L134.401 50.0603ZM128.38 56.4056L131.328 63.8427L138.765 60.8949L135.817 53.4578L128.38 56.4056ZM127.755 56.6532L135.192 53.7054L132.881 47.8747L125.444 50.8225L118.007 53.7703L120.318 59.601L127.755 56.6532ZM125.444 50.8225L128.392 58.2596L129.017 58.012L126.069 50.5749L123.121 43.1378L122.496 43.3854L125.444 50.8225ZM126.069 50.5749L118.995 54.3106C120.159 56.5161 121.91 58.8723 124.433 60.4972C127.16 62.2524 130.941 63.1696 134.853 61.6194L131.905 54.1823L128.957 46.7452C129.721 46.4423 130.588 46.3355 131.432 46.4544C132.235 46.5676 132.795 46.8515 133.095 47.0441C133.608 47.3747 133.496 47.5086 133.143 46.8392L126.069 50.5749ZM131.905 54.1823L134.853 61.6194C137.4 60.6095 139.875 58.5033 140.848 55.1594C141.697 52.2392 141.016 49.639 140.392 48.0646L132.955 51.0125L125.517 53.9603C125.459 53.8139 124.952 52.5214 125.485 50.6907C125.77 49.71 126.301 48.79 127.035 48.0434C127.743 47.3245 128.465 46.9401 128.957 46.7452L131.905 54.1823ZM132.955 51.0125L140.392 48.0646C139.176 44.9978 137.045 43.092 135.075 41.897C133.4 40.8801 131.473 40.1858 130.482 39.8058L127.618 47.2758L124.755 54.7459C125.092 54.8753 125.361 54.9775 125.629 55.0819C125.888 55.1833 126.098 55.2676 126.277 55.3434C126.651 55.5022 126.775 55.5756 126.774 55.5753C126.757 55.5648 126.53 55.4252 126.247 55.1177C125.941 54.786 125.685 54.3827 125.517 53.9603L132.955 51.0125ZM127.618 47.2758L130.465 39.7995C129.844 39.563 129.451 39.4107 129.127 39.2692C128.814 39.1329 128.735 39.0786 128.774 39.1031C128.83 39.1387 129.06 39.2929 129.33 39.5981C129.617 39.9215 129.842 40.2931 129.986 40.6576L122.549 43.6054L115.112 46.5533C117.429 52.3979 123.146 54.1331 124.771 54.7522L127.618 47.2758ZM122.549 43.6054L129.986 40.6576C130.328 41.519 130.414 42.7106 129.906 43.9164C129.39 45.1421 128.438 45.9528 127.514 46.3188L124.566 38.8817L121.619 31.4446C115.418 33.9023 112.769 40.6431 115.112 46.5533L122.549 43.6054ZM124.566 38.8817L127.514 46.3188C127.191 46.4471 126.76 46.5544 126.259 46.5806C125.766 46.6064 125.371 46.5449 125.153 46.4981C125.058 46.4778 125.006 46.462 125.055 46.4759C125.099 46.4883 125.102 46.4892 125.199 46.5167C125.265 46.5357 125.388 46.5705 125.529 46.607C125.753 46.6654 126.369 46.823 127.14 46.8874C127.924 46.953 129.348 46.9687 130.961 46.3296L128.013 38.8925L125.065 31.4554C126.558 30.8635 127.846 30.8907 128.473 30.9431C129.087 30.9944 129.526 31.1143 129.554 31.1216C129.596 31.1325 129.615 31.1384 129.574 31.1265C129.562 31.1232 129.45 31.0912 129.375 31.0702C129.186 31.0172 128.875 30.9323 128.498 30.8517C127.715 30.6843 126.667 30.5375 125.423 30.6025C124.172 30.668 122.894 30.939 121.619 31.4446L124.566 38.8817ZM128.013 38.8925L130.961 46.3296C132.166 45.852 133.952 44.811 135.147 42.6935C136.298 40.6534 136.275 38.709 136.163 37.6856C136.056 36.7053 135.796 35.937 135.7 35.6586C135.589 35.3353 135.461 35.0181 135.423 34.9225L127.986 37.8704L120.549 40.8182C120.629 41.0201 120.605 40.9632 120.572 40.8671C120.554 40.8158 120.347 40.2416 120.258 39.4262C120.164 38.5678 120.124 36.7593 121.213 34.83C122.345 32.8234 124.024 31.8682 125.065 31.4554L128.013 38.8925ZM127.986 37.8704L130.934 45.3075L131.559 45.0598L128.611 37.6227L125.663 30.1856L125.039 30.4333L127.986 37.8704ZM128.611 37.6227L121.174 40.5706L123.061 45.3303L130.498 42.3825L137.935 39.4347L136.048 34.6749L128.611 37.6227ZM130.498 42.3825L127.55 34.9454L126.925 35.193L129.873 42.6301L132.821 50.0672L133.446 49.8196L130.498 42.3825ZM129.873 42.6301L136.751 38.5443C135.736 36.8366 134.182 34.8436 131.933 33.4264C129.494 31.89 125.917 30.9111 122.109 32.4207L125.057 39.8578L128.004 47.2949C127.131 47.6411 126.164 47.7498 125.241 47.616C124.367 47.4895 123.748 47.1802 123.404 46.9636C122.807 46.5871 122.768 46.334 122.995 46.7159L129.873 42.6301ZM125.057 39.8578L122.109 32.4207C119.071 33.6248 116.938 36.0655 116.134 39.0142C115.444 41.5456 115.873 43.8712 116.512 45.4821L123.949 42.5343L131.386 39.5865C131.718 40.4239 131.987 41.6942 131.571 43.2222C131.342 44.0621 130.904 44.956 130.192 45.7488C129.479 46.5437 128.679 47.0274 128.004 47.2949L125.057 39.8578ZM123.949 42.5343L116.512 45.4821C117.693 48.4633 119.839 50.245 121.577 51.2879C123.167 52.2425 124.896 52.8544 125.934 53.222L128.604 45.6805L131.273 38.1389C130.748 37.953 130.392 37.8209 130.115 37.7052C129.838 37.59 129.767 37.5434 129.811 37.5694C129.86 37.599 130.122 37.7609 130.444 38.1012C130.791 38.4667 131.141 38.9677 131.386 39.5865L123.949 42.5343ZM128.604 45.6805L125.937 53.223C126.706 53.4948 127.193 53.6883 127.519 53.8368C127.837 53.9818 127.866 54.0232 127.758 53.945C127.616 53.8419 127.399 53.6503 127.196 53.3804C127.006 53.1265 126.944 52.957 126.964 53.0081L134.401 50.0603L141.839 47.1125C140.896 44.7349 139.433 42.6468 137.148 40.9906C135.226 39.5971 133.034 38.7613 131.27 38.1379L128.604 45.6805ZM134.401 50.0603L126.964 53.0081C126.786 52.5585 126.541 51.3666 127.175 49.968C127.765 48.668 128.752 47.9966 129.447 47.7213L132.395 55.1584L135.343 62.5955C137.882 61.5891 140.368 59.6181 141.747 56.5765C143.171 53.4363 143.007 50.061 141.839 47.1125L134.401 50.0603ZM132.395 55.1584L129.447 47.7213C129.655 47.6388 129.938 47.5646 130.267 47.535C130.587 47.5062 130.831 47.5309 130.923 47.5432C130.956 47.5475 130.957 47.549 130.864 47.5319C130.847 47.5288 130.538 47.4698 130.304 47.4319C130.051 47.3912 129.481 47.3043 128.785 47.2984C128.085 47.2926 126.883 47.3606 125.525 47.8992L128.472 55.3363L131.42 62.7734C130.203 63.2559 129.164 63.3022 128.651 63.2979C128.141 63.2936 127.779 63.2315 127.758 63.2282C127.755 63.2276 127.7 63.2183 127.962 63.2664C128.147 63.3006 128.449 63.3548 128.806 63.4025C129.548 63.5015 130.536 63.5753 131.699 63.4708C132.87 63.3655 134.093 63.0907 135.343 62.5955L132.395 55.1584ZM128.472 55.3363L125.525 47.8992C124.397 48.3462 122.945 49.2025 121.799 50.7809C120.641 52.3771 120.27 54.0581 120.212 55.3371C120.118 57.3984 120.828 59.0647 120.943 59.3534L128.38 56.4056L135.817 53.4578C135.819 53.4627 135.904 53.6722 135.99 54.0048C136.067 54.303 136.241 55.0562 136.196 56.0646C136.145 57.1684 135.82 58.7024 134.749 60.1778C133.691 61.6354 132.37 62.397 131.42 62.7734L128.472 55.3363ZM128.38 56.4056L125.432 48.9685L124.807 49.2161L127.755 56.6532L130.703 64.0903L131.328 63.8427L128.38 56.4056Z" fill="#6BA7B3" mask="url(#path-1-outside-1_2570_194)"/>
</svg>
