<svg width="87" height="99" viewBox="0 0 87 99" fill="none" xmlns="http://www.w3.org/2000/svg">
<mask id="path-1-outside-1_2570_220" maskUnits="userSpaceOnUse" x="-13.8192" y="-4.14853" width="118.788" height="113.07" fill="black">
<rect fill="white" x="-13.8192" y="-4.14853" width="118.788" height="113.07"/>
<path d="M11.0908 32.4112L11.4627 31.8515C14.0213 33.5518 14.4825 33.3203 15.5628 31.6946L26.3313 15.4904C27.4117 13.8646 27.4465 13.3498 24.8879 11.6495L25.2599 11.0899L32.5357 15.925C38.5324 19.9101 40.1131 26.6086 35.6321 33.3514C31.1512 40.0943 24.1767 41.1074 18.3667 37.2463L11.0908 32.4112ZM18.9689 36.3402C24.1126 39.7585 29.9323 38.0548 33.8465 32.1648C37.7607 26.2748 37.0773 20.2495 31.9336 16.8312C30.8142 16.0873 29.7395 15.5653 28.763 15.4158L16.4359 33.9653C16.9519 34.8077 17.8495 35.5963 18.9689 36.3402ZM41.2695 46.8657L41.7496 47.3358C37.8689 50.5674 34.6813 50.8499 32.8978 49.1037C30.497 46.7529 31.7459 42.8703 35.4623 39.0748C38.91 35.5536 43.2156 33.9921 45.7079 36.4324C47.8343 38.5144 46.8307 42.0551 43.4949 45.4619L37.5501 39.6411L37.0576 40.1441C34.1696 43.0937 32.6677 46.5943 34.3597 48.251C35.4801 49.348 37.6531 49.4156 41.2695 46.8657ZM44.8781 37.1426C43.4148 35.7098 40.8016 36.8235 38.357 38.9085L42.9071 43.3636C44.9444 41.2829 46.4329 38.665 44.8781 37.1426ZM42.0096 58.8788L49.9491 54.3911L50.2798 54.9761C45.6433 57.6336 44.2383 61.8462 45.8286 64.6599C47.23 67.1392 49.724 67.7145 52.1754 66.3289C54.8777 64.8015 55.3682 60.922 56.1978 56.6669C57.1437 52.1624 57.6221 50.0173 60.2686 48.5215C63.1658 46.8839 66.0776 48.0684 67.7152 50.9656C69.4315 54.0021 67.9284 56.2853 68.2591 56.8703C68.4008 57.121 68.631 57.138 70.0517 56.3349L70.3981 56.9478L63.9351 60.6009L63.5887 59.988C67.083 57.9762 68.4371 54.4539 66.8153 51.5846C65.3824 49.0495 63.1562 48.9478 61.5683 49.8453C59.0889 51.2467 58.8067 54.7144 58.1454 57.7716C56.9646 63.2911 56.6787 65.8419 53.2522 67.7787C49.8814 69.684 46.5191 68.0925 45.0232 65.446C43.1337 62.103 44.7712 59.9277 44.3146 59.1198C44.0626 58.6741 43.566 58.771 42.3403 59.4638L42.0096 58.8788ZM49.8648 78.1824C48.9253 74.2943 52.2647 71.0841 57.1171 69.9117C62.0005 68.7317 66.4373 70.0628 67.3768 73.9509C68.3088 77.8079 64.9693 81.0181 60.0859 82.1981C55.2335 83.3705 50.7967 82.0394 49.8648 78.1824ZM51.1113 78.5725C51.9528 81.1016 55.3554 81.695 59.9856 80.1483C64.6158 78.6015 66.9643 76.0588 66.1228 73.5297C65.2501 71.0081 61.8787 70.4072 57.2173 71.9614C52.5946 73.5393 50.2386 76.0509 51.1113 78.5725ZM75.2013 87.8503C75.2077 87.0183 75.8527 86.3833 76.6847 86.3897C77.4846 86.3959 78.1517 87.0411 78.1452 87.8731C78.139 88.6731 77.4618 89.3399 76.6619 89.3337C75.8299 89.3272 75.1951 88.6503 75.2013 87.8503ZM54.969 88.8457C52.985 88.8304 52.5673 89.0512 52.553 90.9071L51.881 90.9019L51.9271 84.9501L52.599 84.9553C52.5847 86.8112 52.9989 87.0384 54.9829 87.0538L65.5745 87.1358C67.5585 87.1511 67.91 87.2179 67.1551 85.516L67.7653 85.2327L69.2755 88.5725L68.8886 88.9535L54.969 88.8457Z"/>
</mask>
<path d="M11.0908 32.4112L11.4627 31.8515C14.0213 33.5518 14.4825 33.3203 15.5628 31.6946L26.3313 15.4904C27.4117 13.8646 27.4465 13.3498 24.8879 11.6495L25.2599 11.0899L32.5357 15.925C38.5324 19.9101 40.1131 26.6086 35.6321 33.3514C31.1512 40.0943 24.1767 41.1074 18.3667 37.2463L11.0908 32.4112ZM18.9689 36.3402C24.1126 39.7585 29.9323 38.0548 33.8465 32.1648C37.7607 26.2748 37.0773 20.2495 31.9336 16.8312C30.8142 16.0873 29.7395 15.5653 28.763 15.4158L16.4359 33.9653C16.9519 34.8077 17.8495 35.5963 18.9689 36.3402ZM41.2695 46.8657L41.7496 47.3358C37.8689 50.5674 34.6813 50.8499 32.8978 49.1037C30.497 46.7529 31.7459 42.8703 35.4623 39.0748C38.91 35.5536 43.2156 33.9921 45.7079 36.4324C47.8343 38.5144 46.8307 42.0551 43.4949 45.4619L37.5501 39.6411L37.0576 40.1441C34.1696 43.0937 32.6677 46.5943 34.3597 48.251C35.4801 49.348 37.6531 49.4156 41.2695 46.8657ZM44.8781 37.1426C43.4148 35.7098 40.8016 36.8235 38.357 38.9085L42.9071 43.3636C44.9444 41.2829 46.4329 38.665 44.8781 37.1426ZM42.0096 58.8788L49.9491 54.3911L50.2798 54.9761C45.6433 57.6336 44.2383 61.8462 45.8286 64.6599C47.23 67.1392 49.724 67.7145 52.1754 66.3289C54.8777 64.8015 55.3682 60.922 56.1978 56.6669C57.1437 52.1624 57.6221 50.0173 60.2686 48.5215C63.1658 46.8839 66.0776 48.0684 67.7152 50.9656C69.4315 54.0021 67.9284 56.2853 68.2591 56.8703C68.4008 57.121 68.631 57.138 70.0517 56.3349L70.3981 56.9478L63.9351 60.6009L63.5887 59.988C67.083 57.9762 68.4371 54.4539 66.8153 51.5846C65.3824 49.0495 63.1562 48.9478 61.5683 49.8453C59.0889 51.2467 58.8067 54.7144 58.1454 57.7716C56.9646 63.2911 56.6787 65.8419 53.2522 67.7787C49.8814 69.684 46.5191 68.0925 45.0232 65.446C43.1337 62.103 44.7712 59.9277 44.3146 59.1198C44.0626 58.6741 43.566 58.771 42.3403 59.4638L42.0096 58.8788ZM49.8648 78.1824C48.9253 74.2943 52.2647 71.0841 57.1171 69.9117C62.0005 68.7317 66.4373 70.0628 67.3768 73.9509C68.3088 77.8079 64.9693 81.0181 60.0859 82.1981C55.2335 83.3705 50.7967 82.0394 49.8648 78.1824ZM51.1113 78.5725C51.9528 81.1016 55.3554 81.695 59.9856 80.1483C64.6158 78.6015 66.9643 76.0588 66.1228 73.5297C65.2501 71.0081 61.8787 70.4072 57.2173 71.9614C52.5946 73.5393 50.2386 76.0509 51.1113 78.5725ZM75.2013 87.8503C75.2077 87.0183 75.8527 86.3833 76.6847 86.3897C77.4846 86.3959 78.1517 87.0411 78.1452 87.8731C78.139 88.6731 77.4618 89.3399 76.6619 89.3337C75.8299 89.3272 75.1951 88.6503 75.2013 87.8503ZM54.969 88.8457C52.985 88.8304 52.5673 89.0512 52.553 90.9071L51.881 90.9019L51.9271 84.9501L52.599 84.9553C52.5847 86.8112 52.9989 87.0384 54.9829 87.0538L65.5745 87.1358C67.5585 87.1511 67.91 87.2179 67.1551 85.516L67.7653 85.2327L69.2755 88.5725L68.8886 88.9535L54.969 88.8457Z" fill="#FFFEFC"/>
<path d="M11.0908 32.4112L4.42788 27.9833L4.64695e-05 34.6462L6.66295 39.0741L11.0908 32.4112ZM11.4627 31.8515L15.8906 25.1886L9.22765 20.7607L4.79982 27.4236L11.4627 31.8515ZM24.8879 11.6495L18.225 7.22171L13.7972 13.8846L20.4601 18.3124L24.8879 11.6495ZM25.2598 11.0899L29.6877 4.42695L23.0248 -0.000882275L18.5969 6.66202L25.2598 11.0899ZM32.5357 15.925L28.1079 22.588L32.5357 15.925ZM33.8465 32.1648L27.1836 27.7369L33.8465 32.1648ZM31.9336 16.8312L36.3614 10.1683L31.9336 16.8312ZM28.763 15.4158L29.9733 7.5079L24.9261 6.73546L22.1001 10.988L28.763 15.4158ZM16.4359 33.9653L9.77304 29.5375L6.94702 33.79L9.61403 38.1441L16.4359 33.9653ZM11.0908 32.4112L17.7537 36.839L18.1256 36.2793L11.4627 31.8515L4.79982 27.4236L4.42788 27.9833L11.0908 32.4112ZM11.4627 31.8515L7.03489 38.5144C7.76074 38.9967 8.69342 39.5863 9.70412 40.0484C10.6724 40.4911 12.4808 41.1843 14.7457 40.9914C17.32 40.7723 19.1823 39.5421 20.3409 38.4395C21.2958 37.5309 21.9596 36.523 22.2257 36.1224L15.5628 31.6946L8.89994 27.2667C8.62592 27.6791 8.82686 27.3097 9.31148 26.8486C9.99984 26.1935 11.3844 25.2197 13.3885 25.0491C15.0832 24.9048 16.2291 25.4387 16.3575 25.4974C16.5284 25.5755 16.444 25.5563 15.8906 25.1886L11.4627 31.8515ZM15.5628 31.6946L22.2257 36.1224L32.9942 19.9182L26.3313 15.4904L19.6684 11.0626L8.89994 27.2667L15.5628 31.6946ZM26.3313 15.4904L32.9942 19.9182C33.2604 19.5177 33.9326 18.5153 34.4005 17.283C34.9682 15.7878 35.3811 13.5944 34.586 11.1362C33.8866 8.97334 32.5471 7.57455 31.7639 6.85336C30.9463 6.10054 30.0416 5.46899 29.3157 4.98663L24.8879 11.6495L20.4601 18.3124C21.0135 18.6802 21.0639 18.7506 20.9257 18.6234C20.8218 18.5277 19.8858 17.678 19.3624 16.0597C18.7435 14.1459 19.105 12.4923 19.4423 11.6039C19.6797 10.9785 19.9424 10.6502 19.6684 11.0626L26.3313 15.4904ZM24.8879 11.6495L31.5508 16.0774L31.9228 15.5177L25.2598 11.0899L18.5969 6.66202L18.225 7.22171L24.8879 11.6495ZM25.2598 11.0899L20.832 17.7528L28.1079 22.588L32.5357 15.925L36.9636 9.26214L29.6877 4.42695L25.2598 11.0899ZM32.5357 15.925L28.1079 22.588C29.6318 23.6007 30.0481 24.5531 30.1593 25.1267C30.2702 25.6988 30.2805 26.9504 28.9692 28.9236L35.6321 33.3514L42.295 37.7793C45.4647 33.0096 46.9252 27.5406 45.8668 22.0814C44.8087 16.6238 41.4363 12.2345 36.9636 9.26214L32.5357 15.925ZM35.6321 33.3514L28.9692 28.9236C27.7123 30.815 26.5502 31.3049 25.9102 31.4345C25.241 31.57 24.1822 31.5056 22.7945 30.5834L18.3667 37.2463L13.9388 43.9092C18.3612 46.8481 23.6946 48.2078 29.0854 47.1162C34.5054 46.0188 39.071 42.6307 42.295 37.7793L35.6321 33.3514ZM18.3667 37.2463L22.7945 30.5834L15.5186 25.7482L11.0908 32.4112L6.66295 39.0741L13.9388 43.9092L18.3667 37.2463ZM18.9689 36.3402L14.541 43.0031C18.9058 45.9037 24.0451 46.8616 29.0547 45.4386C33.8978 44.063 37.7682 40.7175 40.5094 36.5926L33.8465 32.1648L27.1836 27.7369C26.0106 29.502 25.0141 29.9534 24.6828 30.0475C24.5207 30.0936 24.3992 30.0963 24.2701 30.0741C24.1331 30.0505 23.8395 29.9716 23.3967 29.6773L18.9689 36.3402ZM33.8465 32.1648L40.5094 36.5926C43.2506 32.4677 44.8358 27.6036 44.2283 22.6058C43.5999 17.436 40.7261 13.0689 36.3614 10.1683L31.9336 16.8312L27.5057 23.4941C27.9486 23.7884 28.135 24.0285 28.2099 24.1457C28.2803 24.256 28.3249 24.3691 28.3452 24.5364C28.3868 24.8783 28.3566 25.9718 27.1836 27.7369L33.8465 32.1648ZM31.9336 16.8312L36.3614 10.1683C34.8804 9.18411 32.6513 7.91775 29.9733 7.5079L28.763 15.4158L27.5528 23.3237C27.3283 23.2894 27.1681 23.2446 27.0801 23.2165C26.9918 23.1883 26.9549 23.1701 26.9732 23.1785C26.9908 23.1865 27.0461 23.213 27.1409 23.2671C27.2352 23.3208 27.3564 23.3949 27.5057 23.4941L31.9336 16.8312ZM28.763 15.4158L22.1001 10.988L9.77304 29.5375L16.4359 33.9653L23.0988 38.3932L35.4259 19.8437L28.763 15.4158ZM16.4359 33.9653L9.61403 38.1441C11.0292 40.4543 13.06 42.0189 14.541 43.0031L18.9689 36.3402L23.3967 29.6773C23.2474 29.5781 23.1321 29.495 23.0461 29.4289C22.9595 29.3624 22.9137 29.3217 22.8994 29.3086C22.8847 29.295 22.9157 29.3219 22.9759 29.3924C23.0359 29.4627 23.1393 29.593 23.2579 29.7866L16.4359 33.9653ZM41.2695 46.8657L46.8664 41.1495L42.1052 36.4877L36.6594 40.3276L41.2695 46.8657ZM41.7496 47.3358L46.8689 53.4835L53.6749 47.816L47.3466 41.6197L41.7496 47.3358ZM43.4949 45.4619L37.898 51.1781L43.6142 56.775L49.2111 51.0588L43.4949 45.4619ZM37.5501 39.6411L43.147 33.9249L37.4309 28.328L31.834 34.0442L37.5501 39.6411ZM38.357 38.9085L33.1656 32.8217L26.5064 38.5014L32.7601 44.6246L38.357 38.9085ZM42.9071 43.3636L37.3102 49.0798L43.0263 54.6767L48.6232 48.9605L42.9071 43.3636ZM41.2695 46.8657L35.6725 52.5819L36.1527 53.052L41.7496 47.3358L47.3466 41.6197L46.8664 41.1495L41.2695 46.8657ZM41.7496 47.3358L36.6304 41.1882C36.0206 41.696 35.568 41.9783 35.2895 42.1231C35.0062 42.2704 34.9785 42.2367 35.1942 42.2C35.4241 42.1608 35.9383 42.1197 36.6178 42.3074C37.3235 42.5024 37.9802 42.8837 38.4947 43.3875L32.8978 49.1037L27.3009 54.8198C30.3022 57.7585 34.2571 58.5899 37.8803 57.9729C41.2508 57.3989 44.2883 55.6324 46.8689 53.4835L41.7496 47.3358ZM32.8978 49.1037L38.4947 43.3875C38.9857 43.8682 39.4073 44.5757 39.5836 45.3934C39.7454 46.1445 39.6289 46.646 39.6015 46.7459C39.5773 46.8343 39.6115 46.6639 39.8808 46.2459C40.1422 45.8404 40.5595 45.3038 41.1785 44.6717L35.4623 39.0748L29.7461 33.4778C27.3702 35.9044 25.1414 38.975 24.1708 42.5161C23.1035 46.4094 23.5862 51.1826 27.3009 54.8198L32.8978 49.1037ZM35.4623 39.0748L41.1785 44.6717C41.6732 44.1664 42.1409 43.7921 42.5301 43.5388C42.7217 43.4142 42.878 43.3294 42.9935 43.2746C43.11 43.2193 43.1675 43.2026 43.1638 43.2037C43.1606 43.2046 43.0732 43.2299 42.9082 43.2429C42.7411 43.2561 42.4833 43.2573 42.158 43.2002C41.4324 43.0729 40.6831 42.7087 40.1109 42.1485L45.7079 36.4324L51.3048 30.7162C47.394 26.887 42.3909 26.7727 38.723 27.8323C35.2025 28.8494 32.1192 31.0543 29.7461 33.4778L35.4623 39.0748ZM45.7079 36.4324L40.1109 42.1485C39.5545 41.6037 39.1145 40.8464 38.9241 40.0016C38.747 39.2162 38.8508 38.6572 38.8994 38.4671C38.9455 38.287 38.9605 38.3521 38.7729 38.6508C38.5921 38.9386 38.2776 39.3555 37.7788 39.865L43.4949 45.4619L49.2111 51.0588C51.4568 48.7653 53.5291 45.8368 54.4 42.4335C55.3475 38.7306 54.8374 34.1752 51.3048 30.7162L45.7079 36.4324ZM43.4949 45.4619L49.0918 39.7457L43.147 33.9249L37.5501 39.6411L31.9532 45.3573L37.898 51.1781L43.4949 45.4619ZM37.5501 39.6411L31.834 34.0442L31.3414 34.5472L37.0576 40.1441L42.7737 45.741L43.2663 45.238L37.5501 39.6411ZM37.0576 40.1441L31.3414 34.5472C29.3772 36.5533 27.4995 39.1106 26.4684 41.9605C25.5394 44.5281 24.5582 49.8503 28.7628 53.9671L34.3597 48.251L39.9566 42.5348C41.0874 43.6421 41.5444 44.9927 41.6321 46.0174C41.6718 46.4811 41.6353 46.8353 41.6001 47.0471C41.5646 47.2602 41.522 47.3817 41.5139 47.4042C41.5036 47.4325 41.5677 47.2566 41.8044 46.9069C42.0311 46.5721 42.3547 46.169 42.7737 45.741L37.0576 40.1441ZM34.3597 48.251L28.7628 53.9671C31.3846 56.5342 34.8374 57.3058 38.0272 56.8431C40.9062 56.4254 43.5517 55.0452 45.8795 53.4038L41.2695 46.8657L36.6594 40.3276C35.3709 41.2361 35.1216 41.0971 35.73 41.0088C36.0988 40.9553 36.7777 40.9256 37.6249 41.1705C38.501 41.4238 39.3091 41.9008 39.9566 42.5348L34.3597 48.251ZM44.8781 37.1426L50.475 31.4264C46.7941 27.8223 42.2057 28.2488 39.5802 29.0765C37.0045 29.8885 34.795 31.4319 33.1656 32.8217L38.357 38.9085L43.5485 44.9952C44.3636 44.3 44.683 44.2441 44.3908 44.3362C44.2012 44.396 43.5281 44.5826 42.5394 44.4521C41.4255 44.3052 40.2321 43.7898 39.2812 42.8588L44.8781 37.1426ZM38.357 38.9085L32.7601 44.6246L37.3102 49.0798L42.9071 43.3636L48.504 37.6475L43.954 33.1923L38.357 38.9085ZM42.9071 43.3636L48.6232 48.9605C49.9966 47.5579 51.7007 45.4854 52.6893 42.9595C53.7063 40.3611 54.5079 35.3752 50.475 31.4264L44.8781 37.1426L39.2812 42.8588C38.2723 41.871 37.6755 40.5446 37.5492 39.2292C37.4399 38.0917 37.7111 37.3293 37.7899 37.128C37.9136 36.8119 37.8548 37.0887 37.1909 37.7667L42.9071 43.3636ZM42.0096 58.8788L38.0731 51.9143L31.1086 55.8508L35.0452 62.8153L42.0096 58.8788ZM49.9491 54.3911L56.9136 50.4546L52.977 43.4901L46.0126 47.4267L49.9491 54.3911ZM50.2798 54.9761L54.2579 61.9169L61.1573 57.9625L57.2442 51.0396L50.2798 54.9761ZM56.1978 56.6669L48.3685 55.0229L48.3567 55.0793L48.3457 55.1359L56.1978 56.6669ZM67.7152 50.9656L60.7507 54.9022L67.7152 50.9656ZM70.0517 56.3349L77.0162 52.3984L73.0796 45.4339L66.1152 49.3705L70.0517 56.3349ZM70.3981 56.9478L74.3347 63.9123L81.2991 59.9757L77.3626 53.0113L70.3981 56.9478ZM63.9351 60.6009L56.9706 64.5374L60.9072 71.5019L67.8716 67.5654L63.9351 60.6009ZM63.5887 59.988L59.597 53.055L52.7188 57.0151L56.6242 63.9246L63.5887 59.988ZM66.8153 51.5846L59.8508 55.5211L66.8153 51.5846ZM58.1454 57.7716L50.3263 56.0802L50.3244 56.089L50.3225 56.0979L58.1454 57.7716ZM45.0232 65.446L38.0587 69.3825L45.0232 65.446ZM42.3403 59.4638L35.3758 63.4003L39.3123 70.3648L46.2768 66.4283L42.3403 59.4638ZM42.0096 58.8788L45.9461 65.8432L53.8856 61.3556L49.9491 54.3911L46.0126 47.4267L38.0731 51.9143L42.0096 58.8788ZM49.9491 54.3911L42.9846 58.3277L43.3153 58.9127L50.2798 54.9761L57.2442 51.0396L56.9136 50.4546L49.9491 54.3911ZM50.2798 54.9761L46.3016 48.0354C39.6633 51.8402 34.2067 60.3565 38.8642 68.5964L45.8286 64.6599L52.7931 60.7233C53.0771 61.2258 53.1893 61.7335 53.199 62.1462C53.2084 62.5468 53.1223 62.7924 53.0913 62.8661C53.0307 63.0099 53.1901 62.529 54.2579 61.9169L50.2798 54.9761ZM45.8286 64.6599L38.8642 68.5964C40.4652 71.429 43.098 73.7987 46.6398 74.6978C50.1208 75.5815 53.4653 74.7893 56.112 73.2933L52.1754 66.3289L48.2389 59.3644C48.4341 59.2541 49.3059 58.8671 50.5767 59.1897C51.9084 59.5278 52.5935 60.3701 52.7931 60.7233L45.8286 64.6599ZM52.1754 66.3289L56.112 73.2933C59.9886 71.1022 61.6571 67.5146 62.4785 65.0501C63.2566 62.7151 63.7192 59.8943 64.0499 58.1979L56.1978 56.6669L48.3457 55.1359C48.1022 56.3846 47.9622 57.1881 47.7666 58.1293C47.5864 58.9968 47.4368 59.5786 47.2992 59.9914C46.9923 60.9123 47.0645 60.0282 48.2389 59.3644L52.1754 66.3289ZM56.1978 56.6669L64.027 58.311C64.271 57.1491 64.443 56.345 64.6117 55.6848C64.7783 55.0327 64.8811 54.7714 64.9124 54.7006C64.9226 54.6775 64.8347 54.8766 64.6069 55.1308C64.3771 55.3872 64.1882 55.4955 64.2051 55.4859L60.2686 48.5215L56.3321 41.557C53.4556 43.1829 51.5176 45.4286 50.2786 48.2313C49.2957 50.4546 48.7813 53.0571 48.3685 55.0229L56.1978 56.6669ZM60.2686 48.5215L64.2051 55.4859C64.0607 55.5676 63.7378 55.7112 63.2577 55.7615C62.771 55.8125 62.2705 55.7512 61.8193 55.5931C60.9215 55.2786 60.6786 54.7745 60.7507 54.9022L67.7152 50.9656L74.6797 47.0291C73.1142 44.2595 70.5966 41.7146 67.1092 40.4929C63.4688 39.2176 59.6255 39.6955 56.3321 41.557L60.2686 48.5215ZM67.7152 50.9656L60.7507 54.9022C60.5768 54.5944 60.5359 54.1216 60.5611 53.9064C60.5621 53.898 60.5594 53.9253 60.54 54.0253C60.5298 54.078 60.5178 54.1369 60.4985 54.2303C60.4828 54.3059 60.4531 54.4482 60.4263 54.5843C60.3871 54.7835 60.2578 55.4275 60.2208 56.1811C60.1909 56.7907 60.1281 58.7429 61.2946 60.8068L68.2591 56.8703L75.2236 52.9338C76.3075 54.8514 76.2193 56.6043 76.2016 56.9653C76.1768 57.4701 76.0972 57.8161 76.1256 57.6715C76.1327 57.6357 76.1412 57.5947 76.1658 57.4761C76.1867 57.3752 76.2169 57.2288 76.2485 57.0659C76.3126 56.7344 76.3915 56.2883 76.4524 55.7681C76.7175 53.506 76.5699 50.3733 74.6797 47.0291L67.7152 50.9656ZM68.2591 56.8703L61.2946 60.8068C61.7468 61.6068 62.9843 63.5021 65.548 64.48C67.8572 65.3609 69.8572 64.9535 70.662 64.7473C72.1087 64.3765 73.4258 63.6173 73.9882 63.2994L70.0517 56.3349L66.1152 49.3705C65.8298 49.5317 65.7226 49.5842 65.7276 49.5817C65.7356 49.5779 65.816 49.5392 65.9511 49.4857C66.0785 49.4352 66.3363 49.3388 66.6896 49.2483C67.2415 49.1068 69.0686 48.6984 71.2504 49.5307C73.6867 50.46 74.8422 52.2591 75.2236 52.9338L68.2591 56.8703ZM70.0517 56.3349L63.0872 60.2715L63.4337 60.8843L70.3981 56.9478L77.3626 53.0113L77.0162 52.3984L70.0517 56.3349ZM70.3981 56.9478L66.4616 49.9833L59.9986 53.6364L63.9351 60.6009L67.8716 67.5654L74.3347 63.9123L70.3981 56.9478ZM63.9351 60.6009L70.8996 56.6644L70.5531 56.0515L63.5887 59.988L56.6242 63.9246L56.9706 64.5374L63.9351 60.6009ZM63.5887 59.988L67.5804 66.921C73.5201 63.5012 78.2628 55.5794 73.7797 47.648L66.8153 51.5846L59.8508 55.5211C59.6648 55.192 59.5295 54.7715 59.5015 54.3108C59.4741 53.86 59.5559 53.491 59.6525 53.2394C59.8395 52.7524 60.0172 52.8131 59.597 53.055L63.5887 59.988ZM66.8153 51.5846L73.7797 47.648C72.1649 44.7911 69.578 42.5011 66.1634 41.6599C62.9107 40.8586 59.8743 41.6133 57.6317 42.8808L61.5683 49.8453L65.5048 56.8098C64.8501 57.1798 63.7208 57.5365 62.3364 57.1955C60.7901 56.8146 60.0327 55.8429 59.8508 55.5211L66.8153 51.5846ZM61.5683 49.8453L57.6317 42.8808C53.8522 45.0171 52.2912 48.4872 51.5672 50.7137C50.9416 52.6376 50.4844 55.3492 50.3263 56.0802L58.1454 57.7716L65.9646 59.4629C66.0662 58.9934 66.1563 58.5353 66.2337 58.1374C66.3157 57.7155 66.3799 57.3794 66.4497 57.0366C66.59 56.3475 66.6935 55.9365 66.783 55.6614C66.9852 55.0394 66.8049 56.0749 65.5048 56.8098L61.5683 49.8453ZM58.1454 57.7716L50.3225 56.0979C49.9951 57.628 49.7994 58.6162 49.5778 59.5564C49.3665 60.4532 49.2278 60.8683 49.1452 61.0686C49.0897 61.2031 49.1274 61.0742 49.296 60.883C49.4601 60.6969 49.5416 60.6865 49.3157 60.8142L53.2522 67.7787L57.1888 74.7431C60.4711 72.8879 62.6113 70.3824 63.9367 67.1687C64.9422 64.7306 65.4928 61.6683 65.9684 59.4452L58.1454 57.7716ZM53.2522 67.7787L49.3157 60.8142C49.401 60.766 49.6359 60.6605 49.9964 60.6262C50.3514 60.5924 50.6997 60.64 51 60.7417C51.5556 60.9298 51.8425 61.2526 51.9877 61.5094L45.0232 65.446L38.0587 69.3825C41.3055 75.1267 49.2634 79.2228 57.1888 74.7431L53.2522 67.7787ZM45.0232 65.446L51.9877 61.5094C51.956 61.4534 52.0207 61.5567 52.0614 61.7911C52.0795 61.8952 52.087 61.9926 52.0882 62.0744C52.0893 62.1542 52.0841 62.2018 52.0842 62.2012C52.085 62.1941 52.0902 62.1492 52.1158 62.0061C52.1176 61.9962 52.208 61.5134 52.2497 61.2557C52.2993 60.9487 52.4133 60.2161 52.3973 59.3405C52.381 58.4477 52.2266 56.8597 51.279 55.1833L44.3146 59.1198L37.3501 63.0563C36.5167 61.5819 36.411 60.2386 36.3999 59.6324C36.394 59.3052 36.4139 59.0553 36.4271 58.9229C36.4406 58.7882 36.4545 58.7035 36.4548 58.7022C36.4549 58.7016 36.4509 58.7258 36.4336 58.8196C36.421 58.8878 36.3917 59.0439 36.3667 59.184C36.3114 59.4922 36.2361 59.939 36.1789 60.4633C36.0609 61.5429 36.0198 62.9315 36.2977 64.5305C36.5771 66.1382 37.1457 67.7671 38.0587 69.3825L45.0232 65.446ZM44.3146 59.1198L51.279 55.1833C50.5759 53.9393 49.2975 52.4119 47.1881 51.5198C45.1939 50.6765 43.3757 50.795 42.2873 50.9892C40.4692 51.3136 38.9476 52.1919 38.4037 52.4993L42.3403 59.4638L46.2768 66.4283C46.4766 66.3153 46.4938 66.3145 46.3932 66.3595C46.3367 66.3847 45.8513 66.606 45.0979 66.7404C44.3183 66.8795 42.7482 67.0141 40.9562 66.2563C39.0492 65.4498 37.9273 64.0774 37.3501 63.0563L44.3146 59.1198ZM42.3403 59.4638L49.3047 55.5273L48.9741 54.9422L42.0096 58.8788L35.0452 62.8153L35.3758 63.4003L42.3403 59.4638ZM60.0859 82.1981L58.2069 74.4219L60.0859 82.1981ZM51.1113 78.5725L58.7021 76.0467L58.687 76.0013L58.6713 75.9562L51.1113 78.5725ZM59.9856 80.1483L62.5204 87.7361L59.9856 80.1483ZM66.1228 73.5297L73.7136 71.0039L73.6985 70.9585L73.6828 70.9133L66.1228 73.5297ZM57.2173 71.9614L54.6867 64.3722L54.6599 64.3812L54.6331 64.3903L57.2173 71.9614ZM49.8648 78.1824L57.641 76.3034C57.7317 76.6789 57.7393 77.1824 57.5892 77.6888C57.4493 78.1606 57.2419 78.4067 57.1989 78.4532C57.1645 78.4906 57.2615 78.376 57.589 78.2001C57.9098 78.0279 58.3787 77.837 58.996 77.6879L57.1171 69.9117L55.2381 62.1354C51.7203 62.9854 48.1083 64.7107 45.439 67.6041C42.592 70.6901 40.8969 75.1295 42.0885 80.0613L49.8648 78.1824ZM57.1171 69.9117L58.996 77.6879C59.6251 77.5359 60.1379 77.4905 60.5079 77.497C60.8856 77.5036 61.027 77.5619 60.9801 77.5448C60.9212 77.5233 60.6229 77.399 60.2814 77.0417C59.9149 76.6583 59.6913 76.2055 59.6006 75.8299L67.3768 73.9509L75.153 72.072C73.9608 67.1379 70.4226 63.9605 66.4717 62.5167C62.7701 61.1641 58.763 61.2837 55.2381 62.1354L57.1171 69.9117ZM67.3768 73.9509L59.6006 75.8299C59.5051 75.4349 59.5005 74.9172 59.6544 74.4038C59.7975 73.9262 60.0077 73.6801 60.0476 73.6371C60.0794 73.6028 59.9774 73.7209 59.6422 73.9002C59.314 74.0758 58.8358 74.2699 58.2069 74.4219L60.0859 82.1981L61.9648 89.9743C65.4903 89.1224 69.1037 87.4005 71.7766 84.5197C74.6247 81.45 76.3471 77.0136 75.153 72.072L67.3768 73.9509ZM60.0859 82.1981L58.2069 74.4219C57.5897 74.571 57.0841 74.6156 56.7179 74.609C56.3438 74.6022 56.2019 74.5444 56.2467 74.5607C56.3025 74.581 56.6004 74.704 56.9441 75.062C57.3138 75.4471 57.5456 75.9085 57.641 76.3034L49.8648 78.1824L42.0885 80.0613C43.282 85.0007 46.8369 88.1595 50.7636 89.5919C54.4513 90.9371 58.4464 90.8244 61.9648 89.9743L60.0859 82.1981ZM51.1113 78.5725L43.5205 81.0983C45.101 85.8484 49.1149 88.1271 52.7357 88.7668C56.0717 89.3562 59.5147 88.7402 62.5204 87.7361L59.9856 80.1483L57.4508 72.5605C56.7053 72.8095 56.1463 72.9254 55.776 72.9715C55.3909 73.0194 55.3295 72.9773 55.5196 73.0109C55.7148 73.0454 56.3264 73.1901 57.0406 73.7325C57.8164 74.3217 58.4041 75.1513 58.7021 76.0467L51.1113 78.5725ZM59.9856 80.1483L62.5204 87.7361C65.5437 86.7261 68.6672 85.1355 70.9752 82.6436C73.4732 79.9468 75.2844 75.7248 73.7136 71.0039L66.1228 73.5297L58.532 76.0555C58.2364 75.1671 58.2104 74.1646 58.4698 73.2438C58.7091 72.3944 59.1022 71.9166 59.237 71.7711C59.3682 71.6294 59.3466 71.6983 59.0165 71.8889C58.6989 72.0723 58.1892 72.3138 57.4508 72.5605L59.9856 80.1483ZM66.1228 73.5297L73.6828 70.9133C72.0703 66.2537 68.1199 63.9818 64.4828 63.3391C61.144 62.7492 57.7004 63.3673 54.6867 64.3722L57.2173 71.9614L59.7479 79.5507C60.5051 79.2982 61.0698 79.1812 61.4423 79.1347C61.8291 79.0865 61.8898 79.1288 61.6989 79.0951C61.5007 79.0601 60.8982 78.9159 60.1953 78.3847C59.4349 77.81 58.8605 77.0067 58.5627 76.146L66.1228 73.5297ZM57.2173 71.9614L54.6331 64.3903C51.6503 65.4085 48.538 66.9933 46.2383 69.4726C43.7321 72.1745 41.9055 76.4337 43.5512 81.1889L51.1113 78.5725L58.6713 75.9562C58.9809 76.8505 59.0215 77.8783 58.7564 78.8345C58.5128 79.7135 58.105 80.2067 57.9688 80.3536C57.8362 80.4965 57.8601 80.4251 58.2011 80.2275C58.5287 80.0376 59.05 79.7891 59.8016 79.5326L57.2173 71.9614ZM75.2013 87.8503L83.2011 87.9122L75.2013 87.8503ZM76.6847 86.3898L76.7466 78.39L76.6847 86.3898ZM78.1452 87.8731L86.145 87.935L78.1452 87.8731ZM76.6619 89.3337L76.7238 81.3339L76.6619 89.3337ZM52.553 90.9071L52.491 98.9069L60.4908 98.9688L60.5527 90.969L52.553 90.9071ZM51.881 90.9019L43.8812 90.84L43.8193 98.8397L51.8191 98.9017L51.881 90.9019ZM51.9271 84.9501L51.989 76.9503L43.9892 76.8884L43.9273 84.8882L51.9271 84.9501ZM52.599 84.9553L60.5988 85.0172L60.6607 77.0174L52.661 76.9555L52.599 84.9553ZM67.1551 85.516L63.7865 78.2598L56.6538 81.571L59.8422 88.7595L67.1551 85.516ZM67.7653 85.2327L75.0547 81.9365L71.7256 74.5741L64.3967 77.9765L67.7653 85.2327ZM69.2755 88.5725L74.8884 94.2729L78.8633 90.3591L76.5649 85.2763L69.2755 88.5725ZM68.8886 88.9535L68.8267 96.9532L72.1403 96.9789L74.5015 94.654L68.8886 88.9535ZM75.2013 87.8503L83.2011 87.9122C83.1733 91.4984 80.2089 94.4173 76.6227 94.3895L76.6847 86.3898L76.7466 78.39C71.4965 78.3493 67.2422 82.5383 67.2015 87.7884L75.2013 87.8503ZM76.6847 86.3898L76.6227 94.3895C73.1184 94.3624 70.1168 91.5103 70.1455 87.8112L78.1452 87.8731L86.145 87.935C86.1865 82.5719 81.8509 78.4295 76.7466 78.39L76.6847 86.3898ZM78.1452 87.8731L70.1455 87.8112C70.1735 84.193 73.1056 81.3059 76.7238 81.3339L76.6619 89.3337L76.5999 97.3334C81.8181 97.3738 86.1046 93.1531 86.145 87.935L78.1452 87.8731ZM76.6619 89.3337L76.7238 81.3339C80.4229 81.3625 83.2282 84.4079 83.2011 87.9122L75.2013 87.8503L67.2015 87.7884C67.162 92.8927 71.2368 97.2919 76.5999 97.3334L76.6619 89.3337ZM54.969 88.8457L55.0309 80.846C54.495 80.8418 53.5587 80.8412 52.5751 80.9881C51.5798 81.1367 49.7478 81.5401 48.0046 82.944C46.1136 84.4669 45.2742 86.3857 44.9083 87.8125C44.5875 89.0633 44.5581 90.2153 44.5532 90.8452L52.553 90.9071L60.5527 90.969C60.555 90.6709 60.5832 91.0994 60.4068 91.7872C60.1852 92.6512 59.5769 94.1678 58.0402 95.4054C56.6512 96.524 55.2965 96.7591 54.9379 96.8126C54.5911 96.8644 54.451 96.842 54.9071 96.8455L54.969 88.8457ZM52.553 90.9071L52.6149 82.9073L51.9429 82.9021L51.881 90.9019L51.8191 98.9017L52.491 98.9069L52.553 90.9071ZM51.881 90.9019L59.8807 90.9638L59.9268 85.012L51.9271 84.9501L43.9273 84.8882L43.8812 90.84L51.881 90.9019ZM51.9271 84.9501L51.8651 92.9498L52.5371 92.955L52.599 84.9553L52.661 76.9555L51.989 76.9503L51.9271 84.9501ZM52.599 84.9553L44.5993 84.8934C44.5944 85.5232 44.606 86.6756 44.9074 87.9312C45.2512 89.3635 46.0607 91.2951 47.9279 92.847C49.6492 94.2777 51.4748 94.7095 52.4677 94.8735C53.4488 95.0355 54.385 95.0494 54.9209 95.0536L54.9829 87.0538L55.0448 79.054C54.5887 79.0505 54.7292 79.0302 55.0751 79.0874C55.4328 79.1464 56.7838 79.4025 58.1553 80.5425C59.6727 81.8037 60.2573 83.3295 60.4655 84.1968C60.6313 84.8873 60.5965 85.3153 60.5988 85.0172L52.599 84.9553ZM54.9829 87.0538L54.9209 95.0536L65.5126 95.1355L65.5745 87.1358L65.6365 79.136L55.0448 79.054L54.9829 87.0538ZM65.5745 87.1358L65.5126 95.1355C65.8032 95.1378 66.5945 95.1535 67.2482 95.1139C67.613 95.0918 68.2693 95.038 69.0301 94.8536C69.7663 94.6752 71.0904 94.261 72.4041 93.2051C75.8937 90.3999 75.6358 86.4886 75.3774 85.0625C75.1444 83.777 74.6422 82.6648 74.4681 82.2724L67.1551 85.516L59.8422 88.7595C60.0455 89.218 59.7824 88.7357 59.6339 87.9159C59.5479 87.4415 59.3959 86.333 59.7234 84.9442C60.1022 83.3382 61.0121 81.8339 62.3797 80.7346C63.5726 79.7757 64.7332 79.4318 65.261 79.3039C65.8133 79.17 66.2164 79.147 66.281 79.1431C66.3345 79.1399 66.3378 79.1414 65.6365 79.136L65.5745 87.1358ZM67.1551 85.516L70.5238 92.7722L71.134 92.4889L67.7653 85.2327L64.3967 77.9765L63.7865 78.2598L67.1551 85.516ZM67.7653 85.2327L60.4759 88.5288L61.9861 91.8686L69.2755 88.5725L76.5649 85.2763L75.0547 81.9365L67.7653 85.2327ZM69.2755 88.5725L63.6626 82.872L63.2757 83.253L68.8886 88.9535L74.5015 94.654L74.8884 94.2729L69.2755 88.5725ZM68.8886 88.9535L68.9505 80.9537L55.0309 80.846L54.969 88.8457L54.9071 96.8455L68.8267 96.9532L68.8886 88.9535Z" fill="#D6706F" mask="url(#path-1-outside-1_2570_220)"/>
</svg>
