<svg width="173" height="71" viewBox="0 0 173 71" fill="none" xmlns="http://www.w3.org/2000/svg">
<mask id="path-1-outside-1_2570_219" maskUnits="userSpaceOnUse" x="-9.58451" y="-61.9286" width="196.42" height="196.547" fill="black">
<rect fill="white" x="-9.58451" y="-61.9286" width="196.42" height="196.547"/>
<path d="M34.1921 50.0579L34.2741 50.0078L29.1 26.8796L34.1238 23.8087L34.4743 24.3821C31.8805 25.9676 31.8684 26.5 32.8865 28.1655L43.0338 44.7657C44.0519 46.4312 44.5312 46.6633 47.125 45.0777L47.4755 45.6511L40.1037 50.1573L39.7532 49.584C42.3743 47.9817 42.3864 47.4493 41.3683 45.7838L30.5868 28.1461L30.5049 28.1961L36.201 53.4056L35.3819 53.9063L15.9281 37.4816L15.8462 37.5317L26.5155 54.863C27.5335 56.5285 27.9856 56.7772 30.59 55.1477L30.9572 55.7484L24.3499 59.7873L23.9994 59.2139C26.6205 57.6117 26.6052 57.0959 25.5872 55.4304L15.4398 38.8302C14.4218 37.1647 13.9697 36.916 11.3486 38.5182L10.9981 37.9449L16.0765 34.8406L34.1921 50.0579ZM57.7815 39.2159L58.4026 38.9595C58.6041 40.5381 58.7009 41.779 57.3403 42.3406C55.9205 42.9267 55.0842 41.991 54.486 40.5416L54.254 39.9796L54.1948 40.004C54.0583 41.0989 53.7316 43.8302 51.3357 44.8191C49.2652 45.6738 47.649 44.6099 46.7577 42.4507C45.2193 38.7237 47.7236 36.236 50.0363 33.6197L51.1284 32.4073L50.5179 30.9283C49.6877 28.9169 48.8091 27.3755 46.5315 28.3157C45.23 28.8529 44.4511 29.9014 44.8418 30.8479C45.1227 31.5282 45.8678 31.7399 46.1486 32.4203C46.3684 32.9527 46.1008 33.4786 45.45 33.7472C44.7106 34.0524 43.9983 33.5848 43.4977 32.3721C42.6797 30.3902 43.8998 28.398 46.3253 27.3968C48.7508 26.3957 50.8557 27.05 52.211 30.3333L56.179 39.9466C56.5819 40.9227 56.8364 41.3716 57.3689 41.1518C57.8126 40.9687 57.8365 40.4395 57.7815 39.2159ZM51.376 43.0716C52.707 42.5221 53.2648 41.3572 53.8633 39.033L51.5191 33.3538L50.4566 34.554C48.5317 36.7679 47.3256 38.9621 48.3268 41.3876C49.0105 43.044 50.1041 43.5966 51.376 43.0716ZM65.1278 37.0716C68.9036 35.96 71.7659 36.0513 72.6154 38.9369C73.5011 41.9452 70.8005 45.5757 66.4415 46.859C63.5253 47.7176 60.4769 47.4476 59.6816 44.7462C59.1574 42.9658 59.9046 41.3114 61.3 39.3661C60.1605 39.2346 59.5102 38.7255 59.221 37.7432C58.8957 36.6381 59.4227 35.4822 60.1772 34.1926C58.7034 33.4923 57.5003 32.0118 56.9038 29.9858C55.8735 26.4863 57.2469 23.4467 60.0711 22.6152C61.0841 22.317 62.0954 22.3528 63.0345 22.7101C64.0167 21.8539 65.1054 21.1331 66.3026 20.7806C66.978 20.5818 67.2959 20.755 67.4314 21.2155C67.5941 21.768 67.2312 22.0083 66.5865 22.1981C65.5428 22.5054 64.8025 22.8234 64.129 23.2552L63.8997 23.156C65.1279 23.9285 66.163 25.2917 66.6962 27.1028C67.7265 30.6023 66.3224 33.651 63.5596 34.4644C62.6387 34.7355 61.6978 34.7123 60.8255 34.4687C60.2967 35.3917 59.9682 36.0888 60.167 36.7642C60.4743 37.8079 61.5976 38.1109 65.1278 37.0716ZM59.9486 23.7855C57.9678 24.5354 57.6289 26.6701 58.7963 29.7289C59.9944 32.7787 61.7717 34.0567 63.6514 33.3032C65.6015 32.5622 65.9928 30.3788 64.8128 27.3905C63.593 24.3804 61.8897 23.0138 59.9486 23.7855ZM66.5548 45.0911C70.2385 44.0066 72.3761 41.9762 71.6621 39.5511C71.0566 37.4944 68.6675 37.7641 65.5057 38.695C64.0936 39.1107 62.9614 39.344 62.0386 39.3822C60.7534 41.3617 60.4593 42.5158 60.7937 43.6516C61.2998 45.3706 63.3623 46.031 66.5548 45.0911ZM70.6053 13.7223C69.791 13.893 69.0333 13.398 68.8626 12.5837C68.6984 11.8007 69.1869 11.0117 70.0012 10.841C70.7842 10.6768 71.5798 11.1966 71.7439 11.9796C71.9147 12.7939 71.3883 13.5582 70.6053 13.7223ZM75.8823 33.2797C76.2893 35.2215 76.5939 35.5827 78.4104 35.2019L78.5483 35.8596L72.723 37.0808L72.5851 36.4231C74.4016 36.0423 74.5355 35.5892 74.1284 33.6474L71.9552 23.2807C71.5481 21.3389 71.5385 20.9813 70.0362 22.0809L69.6295 21.545L72.5716 19.3588L73.0262 19.6558L75.8823 33.2797ZM84.8266 21.5509C84.5828 20.0016 83.9571 18.7306 82.5937 18.9167C80.1207 19.2543 79.291 22.4035 79.936 27.1277C80.5593 31.6933 82.5198 34.4616 85.1197 34.1066C86.8635 33.8685 87.8375 32.2499 88.0948 27.9839L88.7606 27.893C88.8983 32.6864 87.4834 35.3342 84.725 35.7107C81.1423 36.1999 78.7147 32.8494 78.0351 27.8716C77.269 22.2597 79.054 18.3018 82.5734 17.8214C85.3318 17.4448 87.0284 19.7 87.2492 21.317C87.3704 22.2048 87.0952 22.7914 86.3026 22.8996C85.5099 23.0078 84.9968 22.5611 84.8266 21.5509ZM109.763 31.7591L109.859 31.7653L118.945 9.87606L124.82 10.2576L124.777 10.9282C121.743 10.7312 121.427 11.1596 121.3 13.1075L120.04 32.5226C119.913 34.4705 120.171 34.9362 123.205 35.1332L123.161 35.8038L114.54 35.2439L114.583 34.5733C117.649 34.7724 117.965 34.344 118.092 32.3961L119.431 11.7676L119.335 11.7613L109.479 35.6528L108.521 35.5906L102.071 10.9609L101.975 10.9547L100.72 31.2681C100.594 33.216 100.82 33.6796 103.888 33.8467L103.842 34.5493L96.1145 34.0474L96.158 33.3769C99.2236 33.5759 99.508 33.1455 99.6345 31.1976L100.895 11.7824C101.022 9.83455 100.795 9.3709 97.7298 9.17184L97.7734 8.50125L103.713 8.88694L109.763 31.7591ZM130.966 13.6643C130.151 13.4998 129.65 12.7459 129.814 11.9303C129.973 11.1461 130.733 10.6139 131.548 10.7784C132.333 10.9365 132.858 11.7281 132.7 12.5123C132.536 13.3279 131.751 13.8224 130.966 13.6643ZM128.098 33.7169C127.705 35.6617 127.843 36.1138 129.662 36.4807L129.529 37.1394L123.695 35.9628L123.828 35.3041C125.647 35.671 125.949 35.3075 126.341 33.3626L128.435 22.9797C128.827 21.0348 128.959 20.7024 127.145 21.12L126.983 20.467L130.549 19.6193L130.849 20.0716L128.098 33.7169ZM138.208 21.9973L137.497 24.4897L137.589 24.516C139.162 23.2016 140.868 22.3574 142.529 22.832C144.745 23.4647 145.07 25.3547 144.367 27.8163L141.617 37.4472C141.072 39.355 141.173 39.8165 142.988 40.335L142.804 40.9811L137.111 39.3554L137.296 38.7093C139.05 39.2101 139.38 38.8717 139.924 36.9639L142.675 27.333C143.193 25.5176 142.872 24.4275 141.611 24.0672C140.288 23.6894 138.661 24.4895 137.198 25.5358L134.386 35.3822C133.841 37.2899 133.942 37.7514 135.665 38.2435L135.481 38.8897L129.819 37.2728L130.004 36.6266C131.788 37.1363 132.118 36.7978 132.663 34.8901L135.571 24.7053C136.116 22.7975 136.274 22.4766 134.433 22.7494L134.323 22.0857L137.945 21.5226L138.208 21.9973ZM155.549 44.7629L155.583 45.4349L151.932 45.5506L151.742 45.0906L152.783 42.5778L152.665 42.5288C150.765 43.8545 149.272 44.4483 147.675 43.7869C144.601 42.5131 144.285 38.6762 146.159 34.153C148.094 29.482 151.467 25.8567 155.162 27.3877C156.611 27.9878 157.342 29.3993 157.635 30.6984L157.694 30.7229L160.475 24.012C161.246 22.1495 161.44 21.8488 159.579 21.9092L159.546 21.2373L163.196 21.1216L163.387 21.5815L154.654 42.6601C153.882 44.5226 153.688 44.8233 155.549 44.7629ZM153.297 41.3361L155.808 35.2756C157.217 31.8758 156.845 29.2624 154.952 28.4786C152.114 27.3028 149.719 30.7439 148.274 34.2324C146.583 38.3122 146.406 41.6676 148.712 42.6229C150.485 43.3578 151.918 42.3235 153.297 41.3361Z"/>
</mask>
<path d="M34.1921 50.0579L34.2741 50.0078L29.1 26.8796L34.1238 23.8087L34.4743 24.3821C31.8805 25.9676 31.8684 26.5 32.8865 28.1655L43.0338 44.7657C44.0519 46.4312 44.5312 46.6633 47.125 45.0777L47.4755 45.6511L40.1037 50.1573L39.7532 49.584C42.3743 47.9817 42.3864 47.4493 41.3683 45.7838L30.5868 28.1461L30.5049 28.1961L36.201 53.4056L35.3819 53.9063L15.9281 37.4816L15.8462 37.5317L26.5155 54.863C27.5335 56.5285 27.9856 56.7772 30.59 55.1477L30.9572 55.7484L24.3499 59.7873L23.9994 59.2139C26.6205 57.6117 26.6052 57.0959 25.5872 55.4304L15.4398 38.8302C14.4218 37.1647 13.9697 36.916 11.3486 38.5182L10.9981 37.9449L16.0765 34.8406L34.1921 50.0579ZM57.7815 39.2159L58.4026 38.9595C58.6041 40.5381 58.7009 41.779 57.3403 42.3406C55.9205 42.9267 55.0842 41.991 54.486 40.5416L54.254 39.9796L54.1948 40.004C54.0583 41.0989 53.7316 43.8302 51.3357 44.8191C49.2652 45.6738 47.649 44.6099 46.7577 42.4507C45.2193 38.7237 47.7236 36.236 50.0363 33.6197L51.1284 32.4073L50.5179 30.9283C49.6877 28.9169 48.8091 27.3755 46.5315 28.3157C45.23 28.8529 44.4511 29.9014 44.8418 30.8479C45.1227 31.5282 45.8678 31.7399 46.1486 32.4203C46.3684 32.9527 46.1008 33.4786 45.45 33.7472C44.7106 34.0524 43.9983 33.5848 43.4977 32.3721C42.6797 30.3902 43.8998 28.398 46.3253 27.3968C48.7508 26.3957 50.8557 27.05 52.211 30.3333L56.179 39.9466C56.5819 40.9227 56.8364 41.3716 57.3689 41.1518C57.8126 40.9687 57.8365 40.4395 57.7815 39.2159ZM51.376 43.0716C52.707 42.5221 53.2648 41.3572 53.8633 39.033L51.5191 33.3538L50.4566 34.554C48.5317 36.7679 47.3256 38.9621 48.3268 41.3876C49.0105 43.044 50.1041 43.5966 51.376 43.0716ZM65.1278 37.0716C68.9036 35.96 71.7659 36.0513 72.6154 38.9369C73.5011 41.9452 70.8005 45.5757 66.4415 46.859C63.5253 47.7176 60.4769 47.4476 59.6816 44.7462C59.1574 42.9658 59.9046 41.3114 61.3 39.3661C60.1605 39.2346 59.5102 38.7255 59.221 37.7432C58.8957 36.6381 59.4227 35.4822 60.1772 34.1926C58.7034 33.4923 57.5003 32.0118 56.9038 29.9858C55.8735 26.4863 57.2469 23.4467 60.0711 22.6152C61.0841 22.317 62.0954 22.3528 63.0345 22.7101C64.0167 21.8539 65.1054 21.1331 66.3026 20.7806C66.978 20.5818 67.2959 20.755 67.4314 21.2155C67.5941 21.768 67.2312 22.0083 66.5865 22.1981C65.5428 22.5054 64.8025 22.8234 64.129 23.2552L63.8997 23.156C65.1279 23.9285 66.163 25.2917 66.6962 27.1028C67.7265 30.6023 66.3224 33.651 63.5596 34.4644C62.6387 34.7355 61.6978 34.7123 60.8255 34.4687C60.2967 35.3917 59.9682 36.0888 60.167 36.7642C60.4743 37.8079 61.5976 38.1109 65.1278 37.0716ZM59.9486 23.7855C57.9678 24.5354 57.6289 26.6701 58.7963 29.7289C59.9944 32.7787 61.7717 34.0567 63.6514 33.3032C65.6015 32.5622 65.9928 30.3788 64.8128 27.3905C63.593 24.3804 61.8897 23.0138 59.9486 23.7855ZM66.5548 45.0911C70.2385 44.0066 72.3761 41.9762 71.6621 39.5511C71.0566 37.4944 68.6675 37.7641 65.5057 38.695C64.0936 39.1107 62.9614 39.344 62.0386 39.3822C60.7534 41.3617 60.4593 42.5158 60.7937 43.6516C61.2998 45.3706 63.3623 46.031 66.5548 45.0911ZM70.6053 13.7223C69.791 13.893 69.0333 13.398 68.8626 12.5837C68.6984 11.8007 69.1869 11.0117 70.0012 10.841C70.7842 10.6768 71.5798 11.1966 71.7439 11.9796C71.9147 12.7939 71.3883 13.5582 70.6053 13.7223ZM75.8823 33.2797C76.2893 35.2215 76.5939 35.5827 78.4104 35.2019L78.5483 35.8596L72.723 37.0808L72.5851 36.4231C74.4016 36.0423 74.5355 35.5892 74.1284 33.6474L71.9552 23.2807C71.5481 21.3389 71.5385 20.9813 70.0362 22.0809L69.6295 21.545L72.5716 19.3588L73.0262 19.6558L75.8823 33.2797ZM84.8266 21.5509C84.5828 20.0016 83.9571 18.7306 82.5937 18.9167C80.1207 19.2543 79.291 22.4035 79.936 27.1277C80.5593 31.6933 82.5198 34.4616 85.1197 34.1066C86.8635 33.8685 87.8375 32.2499 88.0948 27.9839L88.7606 27.893C88.8983 32.6864 87.4834 35.3342 84.725 35.7107C81.1423 36.1999 78.7147 32.8494 78.0351 27.8716C77.269 22.2597 79.054 18.3018 82.5734 17.8214C85.3318 17.4448 87.0284 19.7 87.2492 21.317C87.3704 22.2048 87.0952 22.7914 86.3026 22.8996C85.5099 23.0078 84.9968 22.5611 84.8266 21.5509ZM109.763 31.7591L109.859 31.7653L118.945 9.87606L124.82 10.2576L124.777 10.9282C121.743 10.7312 121.427 11.1596 121.3 13.1075L120.04 32.5226C119.913 34.4705 120.171 34.9362 123.205 35.1332L123.161 35.8038L114.54 35.2439L114.583 34.5733C117.649 34.7724 117.965 34.344 118.092 32.3961L119.431 11.7676L119.335 11.7613L109.479 35.6528L108.521 35.5906L102.071 10.9609L101.975 10.9547L100.72 31.2681C100.594 33.216 100.82 33.6796 103.888 33.8467L103.842 34.5493L96.1145 34.0474L96.158 33.3769C99.2236 33.5759 99.508 33.1455 99.6345 31.1976L100.895 11.7824C101.022 9.83455 100.795 9.3709 97.7298 9.17184L97.7734 8.50125L103.713 8.88694L109.763 31.7591ZM130.966 13.6643C130.151 13.4998 129.65 12.7459 129.814 11.9303C129.973 11.1461 130.733 10.6139 131.548 10.7784C132.333 10.9365 132.858 11.7281 132.7 12.5123C132.536 13.3279 131.751 13.8224 130.966 13.6643ZM128.098 33.7169C127.705 35.6617 127.843 36.1138 129.662 36.4807L129.529 37.1394L123.695 35.9628L123.828 35.3041C125.647 35.671 125.949 35.3075 126.341 33.3626L128.435 22.9797C128.827 21.0348 128.959 20.7024 127.145 21.12L126.983 20.467L130.549 19.6193L130.849 20.0716L128.098 33.7169ZM138.208 21.9973L137.497 24.4897L137.589 24.516C139.162 23.2016 140.868 22.3574 142.529 22.832C144.745 23.4647 145.07 25.3547 144.367 27.8163L141.617 37.4472C141.072 39.355 141.173 39.8165 142.988 40.335L142.804 40.9811L137.111 39.3554L137.296 38.7093C139.05 39.2101 139.38 38.8717 139.924 36.9639L142.675 27.333C143.193 25.5176 142.872 24.4275 141.611 24.0672C140.288 23.6894 138.661 24.4895 137.198 25.5358L134.386 35.3822C133.841 37.2899 133.942 37.7514 135.665 38.2435L135.481 38.8897L129.819 37.2728L130.004 36.6266C131.788 37.1363 132.118 36.7978 132.663 34.8901L135.571 24.7053C136.116 22.7975 136.274 22.4766 134.433 22.7494L134.323 22.0857L137.945 21.5226L138.208 21.9973ZM155.549 44.7629L155.583 45.4349L151.932 45.5506L151.742 45.0906L152.783 42.5778L152.665 42.5288C150.765 43.8545 149.272 44.4483 147.675 43.7869C144.601 42.5131 144.285 38.6762 146.159 34.153C148.094 29.482 151.467 25.8567 155.162 27.3877C156.611 27.9878 157.342 29.3993 157.635 30.6984L157.694 30.7229L160.475 24.012C161.246 22.1495 161.44 21.8488 159.579 21.9092L159.546 21.2373L163.196 21.1216L163.387 21.5815L154.654 42.6601C153.882 44.5226 153.688 44.8233 155.549 44.7629ZM153.297 41.3361L155.808 35.2756C157.217 31.8758 156.845 29.2624 154.952 28.4786C152.114 27.3028 149.719 30.7439 148.274 34.2324C146.583 38.3122 146.406 41.6676 148.712 42.6229C150.485 43.3578 151.918 42.3235 153.297 41.3361Z" fill="#FFFEFC"/>
<path d="M34.1921 50.0579L29.0466 56.1835L33.4537 59.8856L38.3646 56.8837L34.1921 50.0579ZM34.2741 50.0078L38.4465 56.8336L43.3309 53.8479L42.0811 48.2613L34.2741 50.0078ZM29.1 26.8796L24.9276 20.0538L20.0432 23.0395L21.293 28.6261L29.1 26.8796ZM34.1238 23.8087L40.9495 19.6363L36.7771 12.8105L29.9513 16.9829L34.1238 23.8087ZM34.4743 24.3821L38.6467 31.2078L45.4724 27.0354L41.3 20.2096L34.4743 24.3821ZM43.0338 44.7657L36.208 48.9382L43.0338 44.7657ZM47.125 45.0777L53.9508 40.9053L49.7784 34.0796L42.9526 38.252L47.125 45.0777ZM47.4755 45.6511L51.6479 52.4769L58.4737 48.3044L54.3013 41.4787L47.4755 45.6511ZM40.1037 50.1573L33.2779 54.3297L37.4504 61.1555L44.2761 56.9831L40.1037 50.1573ZM39.7532 49.584L35.5808 42.7582L28.755 46.9306L32.9275 53.7564L39.7532 49.584ZM41.3683 45.7838L34.5426 49.9562L41.3683 45.7838ZM30.5868 28.1461L37.4125 23.9736L33.2401 17.1479L26.4143 21.3203L30.5868 28.1461ZM30.5049 28.1961L26.3324 21.3704L21.437 24.3628L22.7016 29.9593L30.5049 28.1961ZM36.201 53.4056L40.3734 60.2313L45.2688 57.2389L44.0043 51.6424L36.201 53.4056ZM35.3819 53.9063L30.221 60.019L34.6305 63.7418L39.5543 60.732L35.3819 53.9063ZM15.9281 37.4816L21.089 31.3689L16.6796 27.646L11.7557 30.6558L15.9281 37.4816ZM15.8462 37.5317L11.6738 30.7059L4.82655 34.8915L9.03362 41.7255L15.8462 37.5317ZM26.5155 54.863L33.3412 50.6906L33.3347 50.6798L33.3281 50.6691L26.5155 54.863ZM30.59 55.1477L37.4158 50.9753L33.1997 44.078L26.3467 48.3658L30.59 55.1477ZM30.9572 55.7484L35.1296 62.5741L41.9554 58.4017L37.7829 51.5759L30.9572 55.7484ZM24.3499 59.7873L17.5241 63.9597L21.6965 70.7854L28.5223 66.613L24.3499 59.7873ZM23.9994 59.2139L19.827 52.3881L13.0012 56.5606L17.1736 63.3863L23.9994 59.2139ZM11.3486 38.5182L4.52284 42.6906L8.69526 49.5164L15.521 45.344L11.3486 38.5182ZM10.9981 37.9449L6.82569 31.1191L-5.90227e-05 35.2915L4.17236 42.1173L10.9981 37.9449ZM16.0765 34.8406L21.222 28.715L16.8149 25.0129L11.9041 28.0148L16.0765 34.8406ZM34.1921 50.0579L38.3646 56.8837L38.4465 56.8336L34.2741 50.0078L30.1016 43.1821L30.0197 43.2322L34.1921 50.0579ZM34.2741 50.0078L42.0811 48.2613L36.907 25.1331L29.1 26.8796L21.293 28.6261L26.467 51.7544L34.2741 50.0078ZM29.1 26.8796L33.2724 33.7053L38.2962 30.6344L34.1238 23.8087L29.9513 16.9829L24.9276 20.0538L29.1 26.8796ZM34.1238 23.8087L27.298 27.9811L27.6485 28.5545L34.4743 24.3821L41.3 20.2096L40.9495 19.6363L34.1238 23.8087ZM34.4743 24.3821L30.3018 17.5563C29.5622 18.0084 28.6376 18.6035 27.7932 19.3246C26.9815 20.0178 25.6066 21.3539 24.8247 23.4632C23.9369 25.8581 24.2345 28.0535 24.7401 29.5922C25.1585 30.8655 25.7953 31.9038 26.0607 32.3379L32.8865 28.1655L39.7122 23.9931C39.4686 23.5945 39.7251 23.9417 39.9405 24.5972C40.2431 25.518 40.5149 27.169 39.8271 29.0244C39.2452 30.5942 38.296 31.3958 38.1843 31.4912C38.0399 31.6145 38.0894 31.5484 38.6467 31.2078L34.4743 24.3821ZM32.8865 28.1655L26.0607 32.3379L36.208 48.9382L43.0338 44.7657L49.8595 40.5933L39.7122 23.9931L32.8865 28.1655ZM43.0338 44.7657L36.208 48.9382C36.4734 49.3723 37.1072 50.4125 38.0496 51.3655C39.1885 52.517 41.0067 53.7829 43.543 54.0848C45.7767 54.3507 47.5927 53.7362 48.5798 53.3299C49.6066 52.9072 50.5578 52.3556 51.2974 51.9035L47.125 45.0777L42.9526 38.252C42.3954 38.5926 42.314 38.6066 42.4896 38.5343C42.6254 38.4784 43.7716 37.9991 45.4341 38.1969C47.399 38.4308 48.7444 39.4255 49.426 40.1147C49.9111 40.6053 50.1032 40.9919 49.8595 40.5933L43.0338 44.7657ZM47.125 45.0777L40.2993 49.2502L40.6498 49.8235L47.4755 45.6511L54.3013 41.4787L53.9508 40.9053L47.125 45.0777ZM47.4755 45.6511L43.3031 38.8253L35.9313 43.3316L40.1037 50.1573L44.2761 56.9831L51.6479 52.4769L47.4755 45.6511ZM40.1037 50.1573L46.9295 45.9849L46.579 45.4115L39.7532 49.584L32.9275 53.7564L33.2779 54.3297L40.1037 50.1573ZM39.7532 49.584L43.9256 56.4097C44.6709 55.9541 45.5966 55.3584 46.4408 54.6397C47.2497 53.9509 48.6257 52.6211 49.4147 50.5203C50.3141 48.1256 50.0259 45.9223 49.5179 44.3688C49.0991 43.0876 48.4584 42.0439 48.1941 41.6114L41.3683 45.7838L34.5426 49.9562C34.7872 50.3565 34.5268 50.0038 34.3101 49.341C34.0044 48.4058 33.7402 46.7481 34.4362 44.8949C35.0218 43.3357 35.9669 42.5436 36.0682 42.4573C36.2048 42.341 36.146 42.4127 35.5808 42.7582L39.7532 49.584ZM41.3683 45.7838L48.1941 41.6114L37.4125 23.9736L30.5868 28.1461L23.761 32.3185L34.5426 49.9562L41.3683 45.7838ZM30.5868 28.1461L26.4143 21.3203L26.3324 21.3704L30.5049 28.1961L34.6773 35.0219L34.7592 34.9718L30.5868 28.1461ZM30.5049 28.1961L22.7016 29.9593L28.3977 55.1687L36.201 53.4056L44.0043 51.6424L38.3081 26.433L30.5049 28.1961ZM36.201 53.4056L32.0286 46.5798L31.2095 47.0805L35.3819 53.9063L39.5543 60.732L40.3734 60.2313L36.201 53.4056ZM35.3819 53.9063L40.5428 47.7936L21.089 31.3689L15.9281 37.4816L10.7672 43.5943L30.221 60.019L35.3819 53.9063ZM15.9281 37.4816L11.7557 30.6558L11.6738 30.7059L15.8462 37.5317L20.0186 44.3574L20.1005 44.3073L15.9281 37.4816ZM15.8462 37.5317L9.03362 41.7255L19.7029 59.0569L26.5155 54.863L33.3281 50.6691L22.6588 33.3378L15.8462 37.5317ZM26.5155 54.863L19.6897 59.0354C19.9399 59.4447 20.5659 60.4789 21.4871 61.4238C22.6047 62.5702 24.4332 63.881 27.0216 64.186C29.2967 64.4541 31.1376 63.8065 32.1178 63.3914C33.1435 62.957 34.094 62.3922 34.8333 61.9296L30.59 55.1477L26.3467 48.3658C25.7838 48.718 25.7012 48.7332 25.8778 48.6584C26.0089 48.6028 27.1848 48.0945 28.8941 48.2959C30.9167 48.5343 32.2785 49.5725 32.9436 50.2547C33.4124 50.7355 33.6001 51.114 33.3412 50.6906L26.5155 54.863ZM30.59 55.1477L23.7643 59.3201L24.1314 59.9208L30.9572 55.7484L37.7829 51.5759L37.4158 50.9753L30.59 55.1477ZM30.9572 55.7484L26.7848 48.9226L20.1774 52.9615L24.3499 59.7873L28.5223 66.613L35.1296 62.5741L30.9572 55.7484ZM24.3499 59.7873L31.1756 55.6148L30.8251 55.0415L23.9994 59.2139L17.1736 63.3863L17.5241 63.9597L24.3499 59.7873ZM23.9994 59.2139L28.1718 66.0397C28.9154 65.5851 29.8434 64.9883 30.6888 64.2669C31.4988 63.5759 32.8903 62.2288 33.6711 60.094C34.5586 57.6677 34.2291 55.4602 33.7184 53.9445C33.2975 52.6954 32.6637 51.6684 32.4129 51.258L25.5872 55.4305L18.7614 59.6029C19.0196 60.0253 18.7695 59.6872 18.5559 59.0533C18.2525 58.1528 17.9538 56.4867 18.6448 54.5978C19.2291 53.0004 20.1965 52.1867 20.304 52.0951C20.4469 51.9731 20.3939 52.0416 19.827 52.3881L23.9994 59.2139ZM25.5872 55.4305L32.4129 51.258L22.2656 34.6578L15.4398 38.8302L8.61408 43.0026L18.7614 59.6029L25.5872 55.4305ZM15.4398 38.8302L22.2656 34.6578C22.0148 34.2475 21.3897 33.2151 20.4698 32.271C19.3538 31.1254 17.5394 29.8255 14.9753 29.5091C12.7193 29.2306 10.8859 29.8548 9.90157 30.2606C8.87409 30.6841 7.91976 31.2379 7.17618 31.6925L11.3486 38.5182L15.521 45.344C16.088 44.9974 16.1731 44.9814 15.9993 45.0531C15.8688 45.1069 14.7035 45.5969 13.0154 45.3886C11.0192 45.1422 9.67257 44.1167 9.00949 43.4361C8.54269 42.9569 8.35588 42.5802 8.61408 43.0026L15.4398 38.8302ZM11.3486 38.5182L18.1744 34.3458L17.8239 33.7724L10.9981 37.9449L4.17236 42.1173L4.52284 42.6906L11.3486 38.5182ZM10.9981 37.9449L15.1705 44.7706L20.2489 41.6663L16.0765 34.8406L11.9041 28.0148L6.82569 31.1191L10.9981 37.9449ZM16.0765 34.8406L10.9309 40.9662L29.0466 56.1835L34.1921 50.0579L39.3377 43.9323L21.222 28.715L16.0765 34.8406ZM57.7815 39.2159L54.7291 31.8211L49.5373 33.9641L49.7895 39.5752L57.7815 39.2159ZM58.4026 38.9595L66.3382 37.9465L65.0143 27.5757L55.3503 31.5647L58.4026 38.9595ZM54.486 40.5416L47.0911 43.5939L54.486 40.5416ZM54.254 39.9796L61.6488 36.9272L58.5965 29.5324L51.2016 32.5848L54.254 39.9796ZM54.1948 40.004L51.1425 32.6092L46.8333 34.3879L46.2563 39.0139L54.1948 40.004ZM51.3357 44.8191L48.2834 37.4243L51.3357 44.8191ZM50.0363 33.6197L44.0922 28.2655L44.0672 28.2933L44.0424 28.3213L50.0363 33.6197ZM51.1284 32.4073L57.0725 37.7615L60.4468 34.0153L58.5232 29.355L51.1284 32.4073ZM50.5179 30.9283L43.1231 33.9807L50.5179 30.9283ZM44.8418 30.8479L37.447 33.9002L44.8418 30.8479ZM46.1486 32.4203L53.5434 29.3679L46.1486 32.4203ZM57.3689 41.1518L54.3165 33.757L57.3689 41.1518ZM53.8633 39.033L61.6105 41.0281L62.2755 38.4456L61.2581 35.9807L53.8633 39.033ZM51.5191 33.3538L58.9139 30.3015L54.0241 18.455L45.529 28.0511L51.5191 33.3538ZM50.4566 34.554L44.4666 29.2512L44.4429 29.278L44.4195 29.3049L50.4566 34.554ZM57.7815 39.2159L60.8338 46.6107L61.455 46.3543L58.4026 38.9595L55.3503 31.5647L54.7291 31.8211L57.7815 39.2159ZM58.4026 38.9595L50.467 39.9726C50.517 40.3644 50.522 40.4537 50.5216 40.4467C50.5215 40.4427 50.4956 40.0213 50.6263 39.3955C50.7713 38.7016 51.1189 37.7116 51.905 36.7461C52.6962 35.7745 53.6063 35.2272 54.288 34.9458L57.3403 42.3406L60.3926 49.7354C61.7546 49.1733 63.1629 48.2602 64.3123 46.8486C65.4566 45.4432 66.0226 43.9389 66.2882 42.6673C66.7322 40.5421 66.4039 38.4611 66.3382 37.9465L58.4026 38.9595ZM57.3403 42.3406L54.288 34.9458C54.8865 34.6988 55.8878 34.425 57.154 34.5482C58.4628 34.6755 59.5622 35.1797 60.368 35.7767C61.7013 36.7648 62.028 37.8459 61.8808 37.4892L54.486 40.5416L47.0911 43.5939C47.5422 44.6866 48.5861 46.9603 50.8421 48.632C53.8101 50.8313 57.3915 50.9742 60.3926 49.7354L57.3403 42.3406ZM54.486 40.5416L61.8808 37.4892L61.6488 36.9272L54.254 39.9796L46.8592 43.0319L47.0911 43.5939L54.486 40.5416ZM54.254 39.9796L51.2016 32.5848L51.1425 32.6092L54.1948 40.004L57.2472 47.3988L57.3063 47.3744L54.254 39.9796ZM54.1948 40.004L46.2563 39.0139C46.2204 39.3022 46.2072 39.3908 46.1905 39.4719C46.1748 39.5484 46.1799 39.4879 46.2423 39.3399C46.3061 39.1889 46.4704 38.8502 46.8181 38.4624C47.1926 38.0448 47.6959 37.6668 48.2834 37.4243L51.3357 44.8191L54.388 52.2139C58.1107 50.6773 60.0455 47.7828 60.9827 45.5627C61.8625 43.4786 62.0702 41.4998 62.1333 40.9941L54.1948 40.004ZM51.3357 44.8191L48.2834 37.4243C48.6507 37.2727 49.2796 37.0926 50.1049 37.1166C50.954 37.1414 51.7766 37.3767 52.482 37.7676C53.1593 38.1429 53.5889 38.5818 53.8269 38.882C54.06 39.1761 54.1446 39.3792 54.1525 39.3983L46.7577 42.4507L39.3629 45.503C40.2304 47.6047 41.8432 50.1646 44.727 51.7626C47.9137 53.5284 51.42 53.4391 54.388 52.2139L51.3357 44.8191ZM46.7577 42.4507L54.1525 39.3983C54.1976 39.5074 54.3135 39.8809 54.2771 40.4121C54.2428 40.9141 54.0952 41.2227 54.0769 41.2585C54.0716 41.2688 54.0953 41.2211 54.1735 41.107C54.2523 40.9922 54.3683 40.8363 54.5399 40.6252C54.7127 40.4126 54.9164 40.1751 55.1723 39.8845C55.2995 39.74 55.4311 39.5921 55.5762 39.4291C55.717 39.271 55.8738 39.0951 56.0303 38.918L50.0363 33.6197L44.0424 28.3213C43.2421 29.2267 41.132 31.4283 39.8288 33.9789C38.1945 37.1776 37.58 41.1835 39.3629 45.503L46.7577 42.4507ZM50.0363 33.6197L55.9805 38.9738L57.0725 37.7615L51.1284 32.4073L45.1842 27.0531L44.0922 28.2655L50.0363 33.6197ZM51.1284 32.4073L58.5232 29.355L57.9127 27.876L50.5179 30.9283L43.1231 33.9807L43.7336 35.4596L51.1284 32.4073ZM50.5179 30.9283L57.9127 27.876C57.583 27.0772 56.5427 24.3785 54.2623 22.4313C52.8769 21.2483 51.0436 20.3207 48.8356 20.0883C46.7409 19.868 44.8982 20.3351 43.4792 20.9209L46.5315 28.3157L49.5838 35.7105C49.3036 35.8262 48.4248 36.1334 47.1614 36.0005C45.7847 35.8557 44.6499 35.2628 43.8726 34.5991C43.2065 34.0303 42.9235 33.5162 42.9111 33.4944C42.8905 33.4582 42.9479 33.5562 43.1231 33.9807L50.5179 30.9283ZM46.5315 28.3157L43.4792 20.9209C41.7556 21.6323 39.8475 22.8831 38.4656 24.8876C37.0003 27.0131 35.9854 30.3592 37.447 33.9002L44.8418 30.8479L52.2367 27.7956C53.3076 30.3901 52.4868 32.7387 51.6386 33.969C50.8739 35.0783 50.0059 35.5363 49.5838 35.7105L46.5315 28.3157ZM44.8418 30.8479L37.447 33.9002C37.9515 35.1224 38.6269 36.0247 39.1834 36.6419C39.4526 36.9405 39.6986 37.1772 39.875 37.3403C40.0413 37.4939 40.1974 37.6288 40.2462 37.6712C40.3256 37.7403 40.2978 37.7169 40.2561 37.6784C40.2043 37.6306 40.0793 37.5127 39.9238 37.3402C39.5948 36.9753 39.1179 36.3546 38.7538 35.4726L46.1486 32.4203L53.5434 29.3679C53.039 28.1458 52.3636 27.2435 51.8071 26.6263C51.5379 26.3277 51.2919 26.0909 51.1154 25.9279C50.9492 25.7743 50.7931 25.6393 50.7443 25.5969C50.6648 25.5278 50.6927 25.5512 50.7343 25.5897C50.7861 25.6376 50.9112 25.7555 51.0666 25.928C51.3956 26.2929 51.8726 26.9136 52.2367 27.7956L44.8418 30.8479ZM46.1486 32.4203L38.7538 35.4726C38.0107 33.6724 38.0027 31.4582 39.0323 29.4836C39.9821 27.6623 41.4305 26.7516 42.3977 26.3524L45.4501 33.7472L48.5024 41.142C50.1203 40.4742 52.0279 39.1662 53.2193 36.8817C54.4904 34.4439 54.5063 31.7006 53.5434 29.3679L46.1486 32.4203ZM45.4501 33.7472L42.3977 26.3524C43.3266 25.969 44.4943 25.7368 45.7878 25.8807C47.0765 26.024 48.1434 26.5018 48.9346 27.049C50.3736 28.0442 50.8425 29.1986 50.8925 29.3197L43.4977 32.3721L36.1029 35.4244C36.6535 36.7583 37.7288 38.7529 39.834 40.2087C42.3591 41.9549 45.5796 42.3484 48.5024 41.142L45.4501 33.7472ZM43.4977 32.3721L50.8925 29.3197C51.1469 29.9361 51.2931 30.6945 51.2294 31.517C51.1665 32.3293 50.9141 33.0164 50.6126 33.5354C50.0368 34.5264 49.3801 34.7906 49.3777 34.7916L46.3253 27.3968L43.273 20.002C40.8451 21.0042 38.3655 22.7651 36.7778 25.498C35.0799 28.4206 34.699 32.0233 36.1029 35.4244L43.4977 32.3721ZM46.3253 27.3968L49.3777 34.7916C49.3147 34.8176 48.0411 35.2973 46.3903 34.5554C44.8424 33.8598 44.5756 32.8029 44.8162 33.3857L52.211 30.3333L59.6058 27.281C58.4911 24.5805 56.4942 21.5547 52.9488 19.9614C49.3003 18.3218 45.7615 18.9748 43.273 20.002L46.3253 27.3968ZM52.211 30.3333L44.8162 33.3857L48.7842 42.9989L56.179 39.9466L63.5738 36.8943L59.6058 27.281L52.211 30.3333ZM56.179 39.9466L48.7842 42.9989C48.8654 43.1956 49.4908 44.8754 50.6995 46.2596C51.4755 47.1483 52.8903 48.405 55.0629 48.9517C57.2766 49.5086 59.1861 49.0564 60.4212 48.5466L57.3689 41.1518L54.3165 33.757C55.2854 33.3571 56.9634 32.9311 58.9671 33.4353C60.9296 33.9291 62.1558 35.0537 62.7513 35.7357C63.3019 36.3662 63.5683 36.9063 63.6011 36.9713C63.6561 37.0802 63.6596 37.1021 63.5738 36.8943L56.179 39.9466ZM57.3689 41.1518L60.4212 48.5466C61.8833 47.9431 63.2551 46.9071 64.259 45.42C65.1671 44.0747 65.4987 42.7648 65.6396 41.969C65.8773 40.6265 65.7915 39.2586 65.7734 38.8567L57.7815 39.2159L49.7895 39.5752C49.7954 39.7057 49.7989 39.7993 49.8009 39.8698C49.803 39.9411 49.8027 39.9654 49.8028 39.9576C49.8028 39.9515 49.8032 39.8804 49.8112 39.7646C49.8191 39.6511 49.8375 39.4457 49.8847 39.1791C49.9711 38.6914 50.217 37.6245 50.9975 36.4683C51.8738 35.1701 53.0763 34.2689 54.3165 33.757L57.3689 41.1518ZM51.376 43.0716L54.4283 50.4664C59.7468 48.2711 61.0375 43.2531 61.6105 41.0281L53.8633 39.033L46.116 37.038C45.9957 37.5053 45.9151 37.7643 45.8671 37.8999C45.8188 38.0365 45.8477 37.9199 45.9897 37.6773C46.1468 37.4089 46.4366 36.9955 46.9055 36.5756C47.3851 36.1461 47.8887 35.8563 48.3236 35.6767L51.376 43.0716ZM53.8633 39.033L61.2581 35.9807L58.9139 30.3015L51.5191 33.3538L44.1243 36.4062L46.4685 42.0854L53.8633 39.033ZM51.5191 33.3538L45.529 28.0511L44.4666 29.2512L50.4566 34.554L56.4467 39.8568L57.5091 38.6566L51.5191 33.3538ZM50.4566 34.554L44.4195 29.3049C42.3193 31.7204 38.0045 37.3475 40.932 44.4399L48.3268 41.3876L55.7216 38.3352C55.8625 38.6766 55.9685 39.1312 55.9665 39.6403C55.9645 40.1313 55.8631 40.4894 55.7985 40.6643C55.7409 40.8201 55.7179 40.8173 55.8375 40.637C55.9566 40.4575 56.1599 40.1871 56.4938 39.8031L50.4566 34.554ZM48.3268 41.3876L40.932 44.4399C41.6716 46.2318 43.1042 48.6155 45.8303 50.0872C48.8476 51.7162 52.0088 51.4651 54.4283 50.4664L51.376 43.0716L48.3236 35.6767C49.4712 35.2031 51.4497 34.9382 53.4313 36.008C55.1217 36.9206 55.6657 38.1997 55.7216 38.3352L48.3268 41.3876ZM61.3 39.3661L67.8005 44.0291L75.7276 32.9782L62.2172 31.4189L61.3 39.3661ZM60.1772 34.1926L67.0822 38.2325L71.4844 30.7082L63.6105 26.9668L60.1772 34.1926ZM60.0711 22.6152L57.8117 14.9409L60.0711 22.6152ZM63.0345 22.7101L60.1898 30.1873L64.6747 31.8936L68.2916 28.7403L63.0345 22.7101ZM66.3026 20.7806L64.0432 13.1063L66.3026 20.7806ZM67.4314 21.2155L59.7571 23.4749L67.4314 21.2155ZM66.5865 22.1981L64.3271 14.5238L66.5865 22.1981ZM64.129 23.2552L60.9518 30.5972L64.861 32.2889L68.4469 29.9899L64.129 23.2552ZM63.8997 23.156L67.0769 15.8139L59.6401 29.9276L63.8997 23.156ZM60.8255 34.4687L62.9769 26.7634L56.98 25.089L53.8844 30.4913L60.8255 34.4687ZM59.9486 23.7855L62.7813 31.2672L62.8428 31.2439L62.9039 31.2196L59.9486 23.7855ZM58.7963 29.7289L51.3221 32.5814L51.336 32.6178L51.3502 32.6541L58.7963 29.7289ZM63.6514 33.3032L60.8101 25.8248L60.7421 25.8506L60.6746 25.8776L63.6514 33.3032ZM64.8128 27.3905L72.2537 24.4522L72.2405 24.419L72.2271 24.3859L64.8128 27.3905ZM71.6621 39.5511L63.9878 41.8105L71.6621 39.5511ZM62.0386 39.3822L61.708 31.389L57.5791 31.5598L55.3288 35.0258L62.0386 39.3822ZM65.1278 37.0716L67.3872 44.7459C68.0652 44.5463 68.5142 44.458 68.7741 44.4252C69.0557 44.3896 68.9069 44.4462 68.483 44.3661C67.9991 44.2746 67.1423 43.9966 66.3046 43.2523C65.4551 42.4975 65.0798 41.6671 64.9411 41.1963L72.6154 38.9368L80.2897 36.6774C79.7263 34.7638 78.6746 32.8399 76.9316 31.2912C75.2002 29.753 73.2325 28.9805 71.455 28.6445C68.2265 28.0342 65.0479 28.7556 62.8684 29.3973L65.1278 37.0716ZM72.6154 38.9368L64.9411 41.1963C64.7167 40.434 64.7658 39.7628 64.8783 39.3149C64.9846 38.8918 65.1365 38.6902 65.151 38.6713C65.1621 38.6569 64.8846 38.9779 64.1821 39.1847L66.4415 46.859L68.7009 54.5334C72.3574 53.4568 75.6098 51.3209 77.8395 48.4183C80.0303 45.5663 81.6506 41.2999 80.2897 36.6774L72.6154 38.9368ZM66.4415 46.859L64.1821 39.1847C63.9084 39.2653 63.7307 39.2887 63.6675 39.2935C63.5902 39.2993 63.777 39.2719 64.1548 39.3637C64.5539 39.4607 65.2524 39.7158 65.9618 40.3429C66.7113 41.0055 67.1551 41.8047 67.3559 42.4868L59.6816 44.7462L52.0073 47.0056C53.3374 51.5236 56.8403 54.0521 60.3776 54.9115C63.466 55.6618 66.4842 55.186 68.7009 54.5334L66.4415 46.859ZM59.6816 44.7462L67.3559 42.4868C67.4721 42.8813 67.5285 43.3197 67.5102 43.7606C67.4924 44.1877 67.4095 44.502 67.3537 44.6679C67.3022 44.8211 67.2748 44.8451 67.3487 44.7144C67.423 44.583 67.5599 44.3645 67.8005 44.0291L61.3 39.3661L54.7995 34.7031C53.218 36.9078 50.3483 41.3707 52.0073 47.0056L59.6816 44.7462ZM61.3 39.3661L62.2172 31.4189C62.6089 31.4641 63.707 31.6635 64.8665 32.5692C66.1006 33.5333 66.6704 34.7197 66.8953 35.4838L59.221 37.7432L51.5467 40.0026C52.0609 41.749 53.1004 43.6811 55.0168 45.1781C56.8586 46.6169 58.8516 47.1366 60.3828 47.3133L61.3 39.3661ZM59.221 37.7432L66.8953 35.4838C67.3123 36.9001 67.0551 38.0262 66.9243 38.4415C66.863 38.6358 66.817 38.7187 66.8476 38.6562C66.8778 38.5946 66.9447 38.4675 67.0822 38.2325L60.1772 34.1926L53.2722 30.1527C52.7045 31.1228 50.1266 35.179 51.5467 40.0026L59.221 37.7432ZM60.1772 34.1926L63.6105 26.9668C64.5951 27.4347 64.6694 28.0366 64.5781 27.7264L56.9038 29.9858L49.2295 32.2452C50.3311 35.987 52.8117 39.55 56.7438 41.4184L60.1772 34.1926ZM56.9038 29.9858L64.5781 27.7264C64.5038 27.474 64.6769 27.806 64.3748 28.4984C64.2231 28.8464 63.966 29.2366 63.577 29.585C63.1833 29.9375 62.742 30.1684 62.3305 30.2895L60.0711 22.6152L57.8117 14.9409C49.5363 17.3773 47.3412 25.8316 49.2295 32.2452L56.9038 29.9858ZM60.0711 22.6152L62.3305 30.2895C61.7287 30.4667 60.9445 30.4744 60.1898 30.1873L63.0345 22.7101L65.8793 15.233C63.2463 14.2312 60.4395 14.1673 57.8117 14.9409L60.0711 22.6152ZM63.0345 22.7101L68.2916 28.7403C68.5258 28.5361 68.6764 28.4333 68.7457 28.3912C68.8122 28.3507 68.7484 28.4 68.562 28.4549L66.3026 20.7806L64.0432 13.1063C61.3185 13.9085 59.2218 15.4208 57.7774 16.68L63.0345 22.7101ZM66.3026 20.7806L68.562 28.4549C68.2512 28.5464 66.3177 29.113 63.969 28.1256C61.1566 26.9432 60.0873 24.5964 59.7571 23.4749L67.4314 21.2155L75.1057 18.9561C74.64 17.3742 73.344 14.7104 70.1698 13.376C67.4596 12.2366 65.0294 12.8159 64.0432 13.1063L66.3026 20.7806ZM67.4314 21.2155L59.7571 23.4749C59.5313 22.7078 59.3146 21.462 59.6226 19.9642C59.9479 18.3825 60.7355 17.1167 61.6198 16.2213C62.42 15.411 63.2053 14.9939 63.5889 14.8122C63.9893 14.6226 64.2822 14.537 64.3271 14.5238L66.5865 22.1981L68.8459 29.8724C69.2574 29.7513 71.2938 29.1956 73.0036 27.4644C74.0389 26.4162 74.9271 24.9748 75.2947 23.1867C75.6452 21.4825 75.4129 19.9995 75.1057 18.9561L67.4314 21.2155ZM66.5865 22.1981L64.3271 14.5238C62.8023 14.9727 61.3078 15.561 59.8112 16.5205L64.129 23.2552L68.4469 29.9899C68.4281 30.0019 68.4072 30.0142 68.388 30.0243C68.3693 30.0342 68.3644 30.0357 68.3793 30.0293C68.4134 30.0146 68.5448 29.9611 68.8459 29.8724L66.5865 22.1981ZM64.129 23.2552L67.3063 15.9132L67.0769 15.8139L63.8997 23.156L60.7224 30.498L60.9518 30.5972L64.129 23.2552ZM63.8997 23.156L59.6401 29.9276C59.0054 29.5284 58.9638 29.1647 59.0219 29.3622L66.6962 27.1028L74.3705 24.8434C73.3622 21.4186 71.2503 18.3286 68.1593 16.3843L63.8997 23.156ZM66.6962 27.1028L59.0219 29.3622C59.088 29.5867 58.9256 29.2617 59.2175 28.5925C59.5423 27.8478 60.2862 27.0886 61.3002 26.7901L63.5596 34.4644L65.819 42.1387C74.033 39.7204 76.2588 31.2571 74.3705 24.8434L66.6962 27.1028ZM63.5596 34.4644L61.3002 26.7901C61.9443 26.6004 62.5378 26.6408 62.9769 26.7634L60.8255 34.4687L58.6741 42.174C60.8579 42.7837 63.3331 42.8706 65.819 42.1387L63.5596 34.4644ZM60.8255 34.4687L53.8844 30.4913C53.6158 30.96 53.028 31.9846 52.6259 33.2035C52.1715 34.5816 51.7963 36.6582 52.4927 39.0236L60.167 36.7642L67.8413 34.5047C68.3389 36.1947 68.0286 37.5851 67.8208 38.215C67.6656 38.6858 67.5065 38.9004 67.7667 38.4462L60.8255 34.4687ZM60.167 36.7642L52.4927 39.0236C52.9282 40.5029 53.8474 42.296 55.6537 43.7056C57.3881 45.059 59.2532 45.5199 60.64 45.659C63.0673 45.9026 65.5267 45.2937 67.3872 44.7459L65.1278 37.0716L62.8684 29.3973C62.1725 29.6022 61.7716 29.6875 61.5871 29.7184C61.3624 29.756 61.6502 29.6801 62.2376 29.739C62.8639 29.8019 64.17 30.0562 65.497 31.0917C66.896 32.1834 67.5595 33.5473 67.8413 34.5047L60.167 36.7642ZM59.9486 23.7855L57.1159 16.3038C53.4515 17.6912 51.0081 20.7375 50.3248 24.439C49.7553 27.5241 50.5046 30.4394 51.3221 32.5814L58.7963 29.7289L66.2704 26.8763C65.9205 25.9595 66.2556 26.2781 66.0589 27.3437C65.9405 27.9853 65.6281 28.8586 64.935 29.6971C64.2372 30.5413 63.4228 31.0243 62.7813 31.2672L59.9486 23.7855ZM58.7963 29.7289L51.3502 32.6541C52.2332 34.9017 53.7072 37.5424 56.2446 39.3988C59.1945 41.557 63.0057 42.1809 66.6282 40.7287L63.6514 33.3032L60.6746 25.8776C61.3692 25.5992 62.3025 25.4217 63.3524 25.5653C64.3888 25.707 65.1814 26.1122 65.6919 26.4857C66.5712 27.129 66.5574 27.6059 66.2423 26.8037L58.7963 29.7289ZM63.6514 33.3032L66.4928 40.7816C70.1783 39.3813 72.5697 36.3101 73.2627 32.6964C73.8564 29.6008 73.1281 26.6667 72.2537 24.4522L64.8128 27.3905L57.3719 30.3287C57.6775 31.1026 57.3436 30.7544 57.5491 29.6828C57.6689 29.0583 57.9753 28.2168 58.6431 27.4049C59.3196 26.5825 60.1254 26.0849 60.8101 25.8248L63.6514 33.3032ZM64.8128 27.3905L72.2271 24.3859C71.3688 22.2678 69.9456 19.658 67.4797 17.7913C64.5425 15.5679 60.6959 14.8795 56.9934 16.3513L59.9486 23.7855L62.9039 31.2196C62.2251 31.4894 61.2751 31.6746 60.1884 31.5143C59.1181 31.3564 58.3179 30.9232 57.8227 30.5483C56.9987 29.9246 57.037 29.503 57.3984 30.395L64.8128 27.3905ZM66.5548 45.0911L68.8142 52.7654C71.3799 52.01 74.3015 50.6913 76.5373 48.3551C79.0602 45.7189 80.6411 41.7232 79.3364 37.2917L71.6621 39.5511L63.9878 41.8105C63.7561 41.0235 63.714 40.0538 63.9944 39.078C64.2598 38.1545 64.7128 37.5695 64.9779 37.2925C65.23 37.029 65.3641 36.9846 65.2151 37.0648C65.0781 37.1386 64.7831 37.2732 64.2954 37.4168L66.5548 45.0911ZM71.6621 39.5511L79.3364 37.2917C78.7387 35.2616 77.4989 33.2713 75.4576 31.8513C73.5455 30.5213 71.5465 30.1214 70.0902 30.0215C67.4537 29.8405 64.8385 30.5519 63.2463 31.0207L65.5057 38.695L67.7651 46.3693C68.42 46.1765 68.8644 46.0696 69.1561 46.0162C69.4811 45.9567 69.3743 46.01 68.9948 45.9839C68.6067 45.9573 67.5161 45.8175 66.3211 44.9862C64.9968 44.065 64.2827 42.8123 63.9878 41.8105L71.6621 39.5511ZM65.5057 38.695L63.2463 31.0207C62.6969 31.1824 62.299 31.2796 62.0188 31.3357C61.7338 31.3927 61.6475 31.3915 61.708 31.389L62.0386 39.3822L62.3693 47.3753C64.2577 47.2972 66.1202 46.8536 67.7651 46.3693L65.5057 38.695ZM62.0386 39.3822L55.3288 35.0258C53.732 37.4852 51.7524 41.2677 53.1194 45.911L60.7937 43.6516L68.468 41.3921C68.5845 41.7878 68.6675 42.2691 68.6664 42.8004C68.6653 43.3225 68.5833 43.7411 68.505 44.0171C68.432 44.2741 68.3687 44.3852 68.4038 44.3154C68.4391 44.245 68.5376 44.0633 68.7485 43.7385L62.0386 39.3822ZM60.7937 43.6516L53.1194 45.911C54.2607 49.7875 57.2884 52.208 60.593 53.0949C63.5201 53.8806 66.4423 53.4637 68.8142 52.7654L66.5548 45.0911L64.2954 37.4168C63.4748 37.6584 63.7695 37.3812 64.7407 37.6419C65.2941 37.7904 66.0941 38.1288 66.8719 38.8437C67.6743 39.5812 68.2031 40.4923 68.468 41.3921L60.7937 43.6516ZM70.6053 13.7223L68.9639 5.89253L70.6053 13.7223ZM68.8626 12.5837L61.0328 14.2251L68.8626 12.5837ZM70.0012 10.841L68.3598 3.01116L70.0012 10.841ZM71.7439 11.9796L63.9141 13.621L71.7439 11.9796ZM78.4104 35.2019L86.2402 33.5604L84.5988 25.7307L76.769 27.3721L78.4104 35.2019ZM78.5483 35.8596L80.1897 43.6894L88.0195 42.048L86.3781 34.2182L78.5483 35.8596ZM72.723 37.0808L64.8932 38.7222L66.5346 46.552L74.3644 44.9106L72.723 37.0808ZM72.5851 36.4231L70.9437 28.5933L63.1139 30.2347L64.7553 38.0645L72.5851 36.4231ZM71.9552 23.2807L64.1254 24.9221L71.9552 23.2807ZM70.0362 22.0809L63.6628 26.9162L68.4157 33.1811L74.7613 28.5364L70.0362 22.0809ZM69.6295 21.545L64.8581 15.1237L58.3725 19.9429L63.2561 26.3802L69.6295 21.545ZM72.5716 19.3588L76.9474 12.6616L72.2776 9.61041L67.8001 12.9375L72.5716 19.3588ZM73.0262 19.6558L80.856 18.0144L80.1761 14.7712L77.4021 12.9587L73.0262 19.6558ZM70.6053 13.7223L68.9639 5.89253C72.4738 5.15671 75.9566 7.43227 76.6924 10.9422L68.8626 12.5837L61.0328 14.2251C62.11 19.3637 67.1081 22.6294 72.2467 21.5521L70.6053 13.7223ZM68.8626 12.5837L76.6924 10.9422C77.4114 14.3721 75.2632 17.9118 71.6427 18.6708L70.0012 10.841L68.3598 3.01116C63.1107 4.11158 59.9855 9.22925 61.0328 14.2251L68.8626 12.5837ZM70.0012 10.841L71.6427 18.6708C68.1014 19.4131 64.6565 17.1623 63.9141 13.621L71.7439 11.9796L79.5737 10.3382C78.5031 5.23095 73.4671 1.94049 68.3598 3.01116L70.0012 10.841ZM71.7439 11.9796L63.9141 13.621C63.1551 10.0005 65.534 6.61156 68.9639 5.89253L70.6053 13.7223L72.2467 21.5521C77.2425 20.5048 80.6742 15.5874 79.5737 10.3382L71.7439 11.9796ZM75.8823 33.2797L68.0525 34.9211C68.1624 35.4456 68.361 36.3606 68.7138 37.2904C69.0707 38.2314 69.8547 39.9356 71.5973 41.3403C73.4876 42.864 75.541 43.2759 77.0131 43.3299C78.3035 43.3772 79.4354 43.1609 80.0519 43.0317L78.4104 35.2019L76.769 27.3721C76.4773 27.4332 76.8899 27.3146 77.5996 27.3406C78.4909 27.3733 80.1021 27.645 81.6383 28.8832C83.0268 30.0024 83.5448 31.2761 83.6734 31.6151C83.7978 31.943 83.8057 32.0846 83.7121 31.6383L75.8823 33.2797ZM78.4104 35.2019L70.5807 36.8433L70.7185 37.501L78.5483 35.8596L86.3781 34.2182L86.2402 33.5604L78.4104 35.2019ZM78.5483 35.8596L76.9069 28.0298L71.0815 29.251L72.723 37.0808L74.3644 44.9106L80.1897 43.6894L78.5483 35.8596ZM72.723 37.0808L80.5528 35.4394L80.4149 34.7817L72.5851 36.4231L64.7553 38.0645L64.8932 38.7222L72.723 37.0808ZM72.5851 36.4231L74.2265 44.2529C74.843 44.1236 75.9665 43.8671 77.1292 43.3055C78.4556 42.6649 80.1707 41.4629 81.2899 39.3083C82.3217 37.3221 82.3552 35.4465 82.3042 34.4414C82.2538 33.4482 82.0682 32.5305 81.9582 32.006L74.1284 33.6474L66.2986 35.2888C66.3922 35.7352 66.3425 35.6023 66.3247 35.2521C66.3063 34.89 66.2692 33.5155 67.0912 31.9329C68.0008 30.1819 69.3673 29.286 70.1704 28.8981C70.8099 28.5892 71.2354 28.5321 70.9437 28.5933L72.5851 36.4231ZM74.1284 33.6474L81.9582 32.006L79.785 21.6393L71.9552 23.2807L64.1254 24.9221L66.2986 35.2888L74.1284 33.6474ZM71.9552 23.2807L79.785 21.6393C79.7253 21.3549 79.5723 20.5784 79.3945 19.948C79.2953 19.5963 79.1032 18.9664 78.7612 18.2623C78.4302 17.5809 77.7438 16.3752 76.4326 15.3163C72.9492 12.5033 69.1823 13.5874 67.8439 14.1434C66.6373 14.6445 65.6575 15.3719 65.3111 15.6254L70.0362 22.0809L74.7613 28.5364C75.166 28.2402 74.7507 28.5998 73.9813 28.9194C73.536 29.1044 72.4852 29.4887 71.0586 29.4641C69.4087 29.4357 67.7453 28.8666 66.3802 27.7642C65.1895 26.8027 64.6066 25.7418 64.3693 25.2533C64.121 24.7421 64.0127 24.3531 63.9952 24.2908C63.9806 24.2392 63.9815 24.2357 64.1254 24.9221L71.9552 23.2807ZM70.0362 22.0809L76.4096 17.2457L76.003 16.7097L69.6295 21.545L63.2561 26.3802L63.6628 26.9162L70.0362 22.0809ZM69.6295 21.545L74.401 27.9662L77.3431 25.7801L72.5716 19.3588L67.8001 12.9375L64.8581 15.1237L69.6295 21.545ZM72.5716 19.3588L68.1957 26.056L68.6504 26.353L73.0262 19.6558L77.4021 12.9587L76.9474 12.6616L72.5716 19.3588ZM73.0262 19.6558L65.1964 21.2973L68.0525 34.9211L75.8823 33.2797L83.7121 31.6383L80.856 18.0144L73.0262 19.6558ZM84.8266 21.5509L76.9238 22.7945L76.9306 22.8373L76.9378 22.8801L84.8266 21.5509ZM88.0948 27.9839L87.0126 20.0574L80.5048 20.9459L80.1093 27.5022L88.0948 27.9839ZM88.7606 27.893L96.7573 27.6633L96.5017 18.762L87.6785 19.9665L88.7606 27.893ZM84.725 35.7107L83.6429 27.7843L84.725 35.7107ZM87.2492 21.317L95.1757 20.2349L87.2492 21.317ZM84.8266 21.5509L92.7293 20.3072C92.5339 19.0652 92.0579 16.8695 90.5854 14.8578C88.722 12.3121 85.4671 10.4502 81.5116 10.9902L82.5937 18.9167L83.6759 26.8432C82.6657 26.9811 81.4027 26.8819 80.134 26.2969C78.9101 25.7327 78.1236 24.9216 77.6746 24.3082C76.9166 23.2728 76.8755 22.4872 76.9238 22.7945L84.8266 21.5509ZM82.5937 18.9167L81.5116 10.9902C76.2214 11.7124 73.4733 15.6892 72.4478 19.0295C71.5185 22.0569 71.6203 25.3593 72.0095 28.2098L79.936 27.1277L87.8625 26.0455C87.7462 25.1943 87.7168 24.5544 87.7285 24.1124C87.7409 23.6485 87.7948 23.5575 87.7434 23.725C87.6934 23.8876 87.4543 24.5797 86.7084 25.3274C85.8721 26.1659 84.7718 26.6935 83.6759 26.8432L82.5937 18.9167ZM79.936 27.1277L72.0095 28.2098C72.4215 31.2272 73.3664 34.5068 75.3342 37.1916C77.4651 40.0989 81.2463 42.7096 86.2018 42.0331L85.1197 34.1066L84.0375 26.1801C84.9916 26.0499 86.0108 26.2166 86.8923 26.6596C87.7028 27.0668 88.1121 27.5599 88.239 27.7331C88.3637 27.9032 88.3122 27.8904 88.1982 27.5629C88.0891 27.2497 87.9587 26.7507 87.8625 26.0455L79.936 27.1277ZM85.1197 34.1066L86.2018 42.0331C89.8971 41.5286 92.7151 39.2802 94.291 36.1911C95.5528 33.7175 95.9337 30.8965 96.0803 28.4655L88.0948 27.9839L80.1093 27.5022C80.0601 28.3183 79.9863 28.8234 79.9294 29.1013C79.8691 29.3954 79.8612 29.2676 80.0384 28.9204C80.235 28.5349 80.6806 27.8434 81.5269 27.2175C82.4012 26.5708 83.3191 26.2782 84.0375 26.1801L85.1197 34.1066ZM88.0948 27.9839L89.1769 35.9104L89.8428 35.8195L88.7606 27.893L87.6785 19.9665L87.0126 20.0574L88.0948 27.9839ZM88.7606 27.893L80.7639 28.1227C80.7869 28.9244 80.7383 29.4517 80.6872 29.7547C80.635 30.0649 80.601 30.0171 80.7334 29.7629C80.8812 29.4791 81.2172 28.9815 81.8409 28.529C82.4786 28.0664 83.1394 27.853 83.6429 27.7843L84.725 35.7107L85.8072 43.6372C89.9281 43.0746 93.1251 40.6081 94.9242 37.1535C96.5011 34.1257 96.8446 30.7031 96.7573 27.6633L88.7606 27.893ZM84.725 35.7107L83.6429 27.7843C84.1392 27.7165 84.8004 27.7713 85.4576 28.0574C86.0752 28.3263 86.3981 28.6711 86.4933 28.7879C86.5765 28.8901 86.4903 28.8182 86.3498 28.4452C86.2131 28.0824 86.0633 27.5344 85.9616 26.7895L78.0351 27.8716L70.1087 28.9538C70.5668 32.3095 71.7054 35.9687 74.0895 38.8947C76.712 42.1132 80.8425 44.315 85.8072 43.6372L84.725 35.7107ZM78.0351 27.8716L85.9616 26.7895C85.8418 25.912 85.8426 25.2438 85.8879 24.7826C85.934 24.3125 86.0163 24.1525 85.9887 24.2136C85.9557 24.2867 85.7756 24.6427 85.3047 25.0238C84.8019 25.4307 84.2022 25.6732 83.6555 25.7478L82.5734 17.8214L81.4912 9.89489C76.5453 10.5701 73.1262 13.8192 71.4057 17.6308C69.8026 21.1819 69.5975 25.2098 70.1087 28.9538L78.0351 27.8716ZM82.5734 17.8214L83.6555 25.7478C82.4388 25.9139 81.2511 25.4357 80.5031 24.7607C80.1789 24.468 79.943 24.1504 79.7702 23.8296C79.6076 23.5278 79.4129 23.0598 79.3227 22.3991L87.2492 21.317L95.1757 20.2349C94.7978 17.4668 93.3536 14.8055 91.2227 12.8825C88.8816 10.7698 85.4664 9.35219 81.4912 9.89489L82.5734 17.8214ZM87.2492 21.317L79.3227 22.3991C79.2698 22.0116 79.0868 20.3591 80.1482 18.4746C81.4535 16.1571 83.6391 15.189 85.2204 14.9731L86.3026 22.8996L87.3847 30.8261C89.7587 30.502 92.4782 29.1864 94.089 26.3267C95.4558 23.8999 95.3498 21.5102 95.1757 20.2349L87.2492 21.317ZM86.3026 22.8996L85.2204 14.9731C86.6305 14.7806 88.8293 15.0252 90.6915 16.706C92.2942 18.1527 92.6408 19.7789 92.7154 20.2217L84.8266 21.5509L76.9378 22.8801C77.1826 24.3331 77.8708 26.6877 79.9709 28.5833C82.3303 30.713 85.1821 31.1268 87.3847 30.8261L86.3026 22.8996ZM109.763 31.7591L102.029 33.805L103.501 39.3693L109.245 39.7423L109.763 31.7591ZM109.859 31.7653L109.341 39.7485L115.053 40.1195L117.248 34.8322L109.859 31.7653ZM118.945 9.87607L119.463 1.89288L113.751 1.52192L111.556 6.80921L118.945 9.87607ZM124.82 10.2576L132.804 10.776L133.322 2.79283L125.339 2.27443L124.82 10.2576ZM124.777 10.9282L124.258 18.9114L132.242 19.4298L132.76 11.4466L124.777 10.9282ZM123.205 35.1332L131.188 35.6516L131.707 27.6684L123.723 27.15L123.205 35.1332ZM123.161 35.8038L122.643 43.787L130.626 44.3054L131.145 36.3222L123.161 35.8038ZM114.54 35.2439L106.556 34.7255L106.038 42.7087L114.021 43.2271L114.54 35.2439ZM114.583 34.5733L115.102 26.5902L107.118 26.0717L106.6 34.0549L114.583 34.5733ZM119.431 11.7676L127.414 12.286L127.933 4.30278L119.95 3.78438L119.431 11.7676ZM119.335 11.7613L119.854 3.77815L114.128 3.40636L111.94 8.71025L119.335 11.7613ZM109.479 35.6528L108.96 43.636L114.686 44.0078L116.874 38.7039L109.479 35.6528ZM108.521 35.5906L100.781 37.6172L102.243 43.1998L108.002 43.5738L108.521 35.5906ZM102.071 10.9609L109.81 8.93436L108.348 3.35168L102.589 2.97772L102.071 10.9609ZM101.975 10.9547L102.494 2.9715L94.4853 2.45146L93.9904 10.4614L101.975 10.9547ZM100.72 31.2681L108.703 31.7865L108.704 31.7739L108.705 31.7614L100.72 31.2681ZM103.888 33.8467L111.871 34.3651L112.395 26.2984L104.323 25.8586L103.888 33.8467ZM103.842 34.5493L103.324 42.5324L111.307 43.0509L111.825 35.0677L103.842 34.5493ZM96.1145 34.0474L88.1313 33.529L87.6129 41.5122L95.5961 42.0306L96.1145 34.0474ZM96.158 33.3769L96.6764 25.3937L88.6932 24.8753L88.1748 32.8584L96.158 33.3769ZM97.7298 9.17184L89.7466 8.65343L89.2282 16.6366L97.2114 17.155L97.7298 9.17184ZM97.7734 8.50125L98.2918 0.518063L90.3086 -0.000344377L89.7902 7.98284L97.7734 8.50125ZM103.713 8.88694L111.447 6.84101L109.975 1.27673L104.231 0.903758L103.713 8.88694ZM109.763 31.7591L109.245 39.7423L109.341 39.7485L109.859 31.7653L110.378 23.7821L110.282 23.7759L109.763 31.7591ZM109.859 31.7653L117.248 34.8322L126.334 12.9429L118.945 9.87607L111.556 6.80921L102.47 28.6985L109.859 31.7653ZM118.945 9.87607L118.426 17.8593L124.302 18.2408L124.82 10.2576L125.339 2.27443L119.463 1.89288L118.945 9.87607ZM124.82 10.2576L116.837 9.73921L116.794 10.4098L124.777 10.9282L132.76 11.4466L132.804 10.776L124.82 10.2576ZM124.777 10.9282L125.295 2.94501C124.43 2.88884 123.332 2.84301 122.226 2.94651C121.163 3.04599 119.27 3.34677 117.416 4.62121C115.311 6.06822 114.291 8.03463 113.818 9.58375C113.427 10.8657 113.35 12.0813 113.317 12.5891L121.3 13.1075L129.284 13.6259C129.314 13.1597 129.324 13.5913 129.122 14.2513C128.84 15.1784 128.111 16.6848 126.481 17.8058C125.101 18.7543 123.864 18.8632 123.717 18.8769C123.528 18.8946 123.607 18.8691 124.258 18.9114L124.777 10.9282ZM121.3 13.1075L113.317 12.5891L112.056 32.0042L120.04 32.5226L128.023 33.041L129.284 13.6259L121.3 13.1075ZM120.04 32.5226L112.056 32.0042C112.023 32.512 111.943 33.7273 112.165 35.0491C112.433 36.6463 113.191 38.7282 115.09 40.4353C116.764 41.9388 118.602 42.4819 119.643 42.718C120.726 42.9636 121.822 43.0602 122.687 43.1164L123.205 35.1332L123.723 27.15C123.072 27.1077 122.997 27.0723 123.182 27.1143C123.326 27.1468 124.539 27.4148 125.784 28.5337C127.256 29.8562 127.783 31.4442 127.944 32.4001C128.058 33.0805 127.992 33.5072 128.023 33.041L120.04 32.5226ZM123.205 35.1332L115.222 34.6148L115.178 35.2854L123.161 35.8038L131.145 36.3222L131.188 35.6516L123.205 35.1332ZM123.161 35.8038L123.68 27.8206L115.058 27.2607L114.54 35.2439L114.021 43.2271L122.643 43.787L123.161 35.8038ZM114.54 35.2439L122.523 35.7623L122.566 35.0917L114.583 34.5733L106.6 34.0549L106.556 34.7255L114.54 35.2439ZM114.583 34.5733L114.065 42.5565C114.936 42.6131 116.036 42.659 117.14 42.5574C118.198 42.4599 120.089 42.1649 121.944 40.9015C124.058 39.4613 125.091 37.4939 125.57 35.9313C125.965 34.6426 126.042 33.4204 126.075 32.9145L118.092 32.3961L110.108 31.8777C110.078 32.3458 110.068 31.9076 110.273 31.2409C110.561 30.3002 111.3 28.7927 112.936 27.6782C114.312 26.7405 115.541 26.6369 115.673 26.6247C115.852 26.6083 115.763 26.6331 115.102 26.5902L114.583 34.5733ZM118.092 32.3961L126.075 32.9145L127.414 12.286L119.431 11.7676L111.448 11.2492L110.108 31.8777L118.092 32.3961ZM119.431 11.7676L119.95 3.78438L119.854 3.77815L119.335 11.7613L118.817 19.7445L118.913 19.7507L119.431 11.7676ZM119.335 11.7613L111.94 8.71025L102.083 32.6017L109.479 35.6528L116.874 38.7039L126.731 14.8124L119.335 11.7613ZM109.479 35.6528L109.997 27.6696L109.039 27.6074L108.521 35.5906L108.002 43.5738L108.96 43.636L109.479 35.6528ZM108.521 35.5906L116.26 33.5641L109.81 8.93436L102.071 10.9609L94.3319 12.9875L100.781 37.6172L108.521 35.5906ZM102.071 10.9609L102.589 2.97772L102.494 2.9715L101.975 10.9547L101.457 18.9379L101.553 18.9441L102.071 10.9609ZM101.975 10.9547L93.9904 10.4614L92.7355 30.7748L100.72 31.2681L108.705 31.7614L109.96 11.448L101.975 10.9547ZM100.72 31.2681L92.7371 30.7497C92.706 31.2284 92.6224 32.4343 92.8316 33.7373C93.0853 35.3181 93.8257 37.4426 95.7664 39.1822C97.4723 40.7113 99.3502 41.2417 100.391 41.4666C101.479 41.702 102.582 41.7874 103.453 41.8349L103.888 33.8467L104.323 25.8586C103.66 25.8225 103.584 25.7873 103.771 25.8278C103.91 25.8579 105.164 26.1193 106.446 27.2681C107.963 28.6275 108.478 30.2604 108.629 31.2012C108.736 31.8642 108.671 32.2817 108.703 31.7865L100.72 31.2681ZM103.888 33.8467L95.9046 33.3283L95.859 34.0309L103.842 34.5493L111.825 35.0677L111.871 34.3651L103.888 33.8467ZM103.842 34.5493L104.361 26.5661L96.6329 26.0643L96.1145 34.0474L95.5961 42.0306L103.324 42.5324L103.842 34.5493ZM96.1145 34.0474L104.098 34.5659L104.141 33.8953L96.158 33.3769L88.1748 32.8584L88.1313 33.529L96.1145 34.0474ZM96.158 33.3769L95.6396 41.36C96.5093 41.4165 97.6117 41.4628 98.7182 41.3598C99.7783 41.2611 101.692 40.9608 103.559 39.665C105.682 38.1921 106.683 36.1974 107.138 34.6642C107.513 33.4005 107.587 32.1959 107.618 31.716L99.6345 31.1976L91.6514 30.6791C91.6193 31.1732 91.6094 30.7528 91.7997 30.1115C92.0701 29.2006 92.7852 27.6663 94.4377 26.5197C95.8351 25.55 97.0946 25.4418 97.2352 25.4287C97.4223 25.4113 97.3395 25.4367 96.6764 25.3937L96.158 33.3769ZM99.6345 31.1976L107.618 31.716L108.878 12.3009L100.895 11.7824L92.9121 11.264L91.6514 30.6791L99.6345 31.1976ZM100.895 11.7824L108.878 12.3009C108.91 11.8209 108.993 10.6169 108.784 9.31542C108.531 7.73617 107.796 5.62876 105.882 3.89373C104.198 2.3672 102.339 1.822 101.301 1.58704C100.217 1.34178 99.1179 1.24512 98.2482 1.18865L97.7298 9.17184L97.2114 17.155C97.8745 17.1981 97.9533 17.234 97.77 17.1926C97.6323 17.1614 96.3974 16.8912 95.1371 15.7489C93.6468 14.3982 93.1361 12.7844 92.9859 11.8461C92.88 11.1856 92.9442 10.77 92.9121 11.264L100.895 11.7824ZM97.7298 9.17184L105.713 9.69024L105.757 9.01965L97.7734 8.50125L89.7902 7.98284L89.7466 8.65343L97.7298 9.17184ZM97.7734 8.50125L97.255 16.4844L103.194 16.8701L103.713 8.88694L104.231 0.903758L98.2918 0.518063L97.7734 8.50125ZM103.713 8.88694L95.9789 10.9329L102.029 33.805L109.763 31.7591L117.497 29.7132L111.447 6.84101L103.713 8.88694ZM130.966 13.6643L129.385 21.5064L130.966 13.6643ZM129.814 11.9303L137.657 13.5118L129.814 11.9303ZM131.548 10.7784L129.967 18.6205L131.548 10.7784ZM129.662 36.4807L137.504 38.0622L139.086 30.2201L131.244 28.6386L129.662 36.4807ZM129.529 37.1394L127.948 44.9816L135.79 46.5631L137.371 38.7209L129.529 37.1394ZM123.695 35.9628L115.853 34.3813L114.271 42.2234L122.113 43.8049L123.695 35.9628ZM123.828 35.3041L125.409 27.462L117.567 25.8805L115.985 33.7226L123.828 35.3041ZM127.145 21.12L119.381 23.0478L121.276 30.6799L128.939 28.9162L127.145 21.12ZM126.983 20.467L125.133 12.684L117.272 14.5529L119.219 22.3949L126.983 20.467ZM130.549 19.6193L137.212 15.1923L134.126 10.5459L128.699 11.8362L130.549 19.6193ZM130.849 20.0716L138.692 21.6531L139.347 18.4048L137.513 15.6447L130.849 20.0716ZM130.966 13.6643L132.548 5.82214C136.063 6.5311 138.366 9.99631 137.657 13.5118L129.814 11.9303L121.972 10.3488C120.934 15.4955 124.238 20.4685 129.385 21.5064L130.966 13.6643ZM129.814 11.9303L137.657 13.5118C136.964 16.9471 133.593 19.3518 129.967 18.6205L131.548 10.7784L133.13 2.93624C127.872 1.87599 122.981 5.34513 121.972 10.3488L129.814 11.9303ZM131.548 10.7784L129.967 18.6205C126.42 17.9052 124.143 14.4777 124.858 10.9308L132.7 12.5123L140.542 14.0938C141.574 8.97851 138.245 3.96783 133.13 2.93624L131.548 10.7784ZM132.7 12.5123L124.858 10.9308C125.589 7.30455 129.113 5.12936 132.548 5.82214L130.966 13.6643L129.385 21.5064C134.389 22.5155 139.482 19.3512 140.542 14.0938L132.7 12.5123ZM128.098 33.7169L120.256 32.1354C120.15 32.6607 119.971 33.5799 119.928 34.5734C119.885 35.5788 119.933 37.4542 120.98 39.4324C122.115 41.5784 123.839 42.7672 125.171 43.3977C126.338 43.9504 127.463 44.1983 128.081 44.3228L129.662 36.4807L131.244 28.6386C130.951 28.5797 131.377 28.6335 132.019 28.9374C132.825 29.3192 134.199 30.2046 135.121 31.9486C135.956 33.5249 135.929 34.8996 135.913 35.2618C135.898 35.6122 135.85 35.7455 135.94 35.2984L128.098 33.7169ZM129.662 36.4807L121.82 34.8992L121.687 35.558L129.529 37.1394L137.371 38.7209L137.504 38.0622L129.662 36.4807ZM129.529 37.1394L131.111 29.2973L125.276 28.1207L123.695 35.9628L122.113 43.8049L127.948 44.9816L129.529 37.1394ZM123.695 35.9628L131.537 37.5443L131.67 36.8856L123.828 35.3041L115.985 33.7226L115.853 34.3813L123.695 35.9628ZM123.828 35.3041L122.246 43.1462C122.864 43.2707 123.997 43.4784 125.287 43.4212C126.759 43.3559 128.809 42.9283 130.687 41.3902C132.419 39.9723 133.19 38.2621 133.54 37.3184C133.886 36.386 134.077 35.4695 134.183 34.9441L126.341 33.3626L118.499 31.7811C118.409 32.2282 118.415 32.0865 118.537 31.7577C118.663 31.4177 119.172 30.1401 120.551 29.0103C122.078 27.7604 123.687 27.4764 124.578 27.4369C125.288 27.4054 125.701 27.5209 125.409 27.462L123.828 35.3041ZM126.341 33.3626L134.183 34.9441L136.277 24.5612L128.435 22.9797L120.593 21.3982L118.499 31.7811L126.341 33.3626ZM128.435 22.9797L136.277 24.5612C136.334 24.2763 136.5 23.5025 136.586 22.8531C136.633 22.4908 136.705 21.8361 136.669 21.0542C136.634 20.2975 136.479 18.9188 135.692 17.4284C133.601 13.4691 129.712 12.9788 128.263 12.9615C126.957 12.9458 125.769 13.2275 125.351 13.3238L127.145 21.12L128.939 28.9162C129.428 28.8037 128.905 28.9703 128.071 28.9603C127.589 28.9546 126.472 28.893 125.171 28.3075C123.666 27.6303 122.362 26.451 121.543 24.8994C120.828 23.546 120.711 22.3412 120.686 21.7987C120.66 21.231 120.714 20.8309 120.722 20.7667C120.729 20.7136 120.731 20.7106 120.593 21.3982L128.435 22.9797ZM127.145 21.12L134.909 19.1921L134.747 18.5392L126.983 20.467L119.219 22.3949L119.381 23.0478L127.145 21.12ZM126.983 20.467L128.833 28.2501L132.399 27.4023L130.549 19.6193L128.699 11.8362L125.133 12.684L126.983 20.467ZM130.549 19.6193L123.885 24.0462L124.186 24.4985L130.849 20.0716L137.513 15.6447L137.212 15.1923L130.549 19.6193ZM130.849 20.0716L123.007 18.4901L120.256 32.1354L128.098 33.7169L135.94 35.2984L138.692 21.6531L130.849 20.0716ZM138.208 21.9973L145.901 24.1942L146.811 21.0079L145.201 18.1114L138.208 21.9973ZM137.497 24.4897L129.804 22.2928L127.607 29.9852L135.3 32.1821L137.497 24.4897ZM137.589 24.516L135.392 32.2085L139.466 33.372L142.718 30.6556L137.589 24.516ZM142.529 22.832L144.726 15.1395L142.529 22.832ZM144.367 27.8163L136.675 25.6194L144.367 27.8163ZM142.988 40.335L150.681 42.5318L152.878 34.8394L145.185 32.6425L142.988 40.335ZM142.804 40.9811L140.607 48.6736L148.299 50.8704L150.496 43.178L142.804 40.9811ZM137.111 39.3554L129.419 37.1585L127.222 44.851L134.915 47.0479L137.111 39.3554ZM137.296 38.7093L139.493 31.0168L131.8 28.8199L129.604 36.5124L137.296 38.7093ZM141.611 24.0672L139.414 31.7597L141.611 24.0672ZM137.198 25.5358L132.545 19.0278L130.273 20.6526L129.505 23.339L137.198 25.5358ZM135.665 38.2435L143.358 40.4404L145.555 32.748L137.862 30.5511L135.665 38.2435ZM135.481 38.8897L133.284 46.5821L140.976 48.779L143.173 41.0866L135.481 38.8897ZM129.819 37.2728L122.127 35.0759L119.93 42.7683L127.622 44.9652L129.819 37.2728ZM130.004 36.6266L132.2 28.9342L124.508 26.7373L122.311 34.4297L130.004 36.6266ZM134.433 22.7494L126.54 24.057L127.826 31.8151L135.605 30.6631L134.433 22.7494ZM134.323 22.0857L133.094 14.1806L125.11 15.4218L126.43 23.3933L134.323 22.0857ZM137.945 21.5226L144.937 17.6367L142.228 12.7607L136.716 13.6176L137.945 21.5226ZM138.208 21.9973L130.516 19.8004L129.804 22.2928L137.497 24.4897L145.189 26.6866L145.901 24.1942L138.208 21.9973ZM137.497 24.4897L135.3 32.1821L135.392 32.2085L137.589 24.516L139.786 16.8236L139.693 16.7972L137.497 24.4897ZM137.589 24.516L142.718 30.6556C143.12 30.3199 143.168 30.3672 142.871 30.4804C142.486 30.6265 141.529 30.8661 140.332 30.5244L142.529 22.832L144.726 15.1395C138.99 13.5014 134.432 16.7291 132.46 18.3765L137.589 24.516ZM142.529 22.832L140.332 30.5244C139.921 30.4068 139.184 30.1091 138.433 29.4186C137.654 28.702 137.163 27.8387 136.912 27.0398C136.489 25.6968 136.86 24.9713 136.675 25.6194L144.367 27.8163L152.06 30.0132C152.578 28.1997 153.137 25.2984 152.174 22.2368C150.996 18.4952 148.082 16.0979 144.726 15.1395L142.529 22.832ZM144.367 27.8163L136.675 25.6194L133.924 35.2504L141.617 37.4472L149.309 39.6441L152.06 30.0132L144.367 27.8163ZM141.617 37.4472L133.924 35.2504C133.778 35.7637 133.525 36.6722 133.404 37.6671C133.281 38.6793 133.186 40.5677 134.094 42.6326C135.073 44.8586 136.708 46.1649 137.972 46.8845C139.085 47.5186 140.182 47.8533 140.792 48.0274L142.988 40.335L145.185 32.6425C144.887 32.5574 145.291 32.6399 145.891 32.9821C146.642 33.4097 147.946 34.3842 148.741 36.1916C149.465 37.8378 149.333 39.2207 149.288 39.5936C149.245 39.9493 149.183 40.0847 149.309 39.6441L141.617 37.4472ZM142.988 40.335L135.296 38.1381L135.111 38.7842L142.804 40.9811L150.496 43.178L150.681 42.5318L142.988 40.335ZM142.804 40.9811L145.001 33.2887L139.308 31.663L137.111 39.3554L134.915 47.0479L140.607 48.6736L142.804 40.9811ZM137.111 39.3554L144.804 41.5523L144.988 40.9061L137.296 38.7093L129.604 36.5124L129.419 37.1585L137.111 39.3554ZM137.296 38.7093L135.099 46.4017C135.701 46.5736 136.82 46.8718 138.121 46.9123C139.613 46.9587 141.69 46.6755 143.671 45.2799C145.486 44.0012 146.377 42.3676 146.793 41.4658C147.207 40.5701 147.469 39.6781 147.617 39.1608L139.924 36.9639L132.232 34.767C132.107 35.2036 132.124 35.0694 132.267 34.758C132.414 34.4406 133.011 33.218 134.456 32.1998C136.068 31.0646 137.699 30.8914 138.619 30.92C139.348 30.9427 139.768 31.0954 139.493 31.0168L137.296 38.7093ZM139.924 36.9639L147.617 39.1608L150.367 29.5299L142.675 27.333L134.982 25.1361L132.232 34.767L139.924 36.9639ZM142.675 27.333L150.367 29.5299C150.788 28.0565 151.314 25.4981 150.434 22.7301C149.332 19.2639 146.621 17.1784 143.808 16.3748L141.611 24.0672L139.414 31.7597C138.791 31.5818 137.885 31.197 137.002 30.3944C136.085 29.5614 135.496 28.5512 135.186 27.5787C134.653 25.8997 135.08 24.794 134.982 25.1361L142.675 27.333ZM141.611 24.0672L143.808 16.3748C140.867 15.5349 138.256 16.1728 136.644 16.7785C134.979 17.4038 133.568 18.2969 132.545 19.0278L137.198 25.5358L141.85 32.0439C142.291 31.7285 142.425 31.6984 142.27 31.7564C142.168 31.7949 141.032 32.2217 139.414 31.7597L141.611 24.0672ZM137.198 25.5358L129.505 23.339L126.693 33.1853L134.386 35.3822L142.078 37.5791L144.89 27.7327L137.198 25.5358ZM134.386 35.3822L126.693 33.1853C126.545 33.7046 126.299 34.594 126.176 35.5651C126.054 36.5377 125.942 38.3797 126.787 40.4131C128.606 44.7908 132.97 45.7937 133.468 45.936L135.665 38.2435L137.862 30.5511C137.599 30.4759 138.054 30.5732 138.7 30.9514C139.52 31.4306 140.808 32.4566 141.563 34.2743C142.235 35.8923 142.093 37.2305 142.051 37.5646C142.009 37.8973 141.954 38.0136 142.078 37.5791L134.386 35.3822ZM135.665 38.2435L127.973 36.0466L127.788 36.6928L135.481 38.8897L143.173 41.0866L143.358 40.4404L135.665 38.2435ZM135.481 38.8897L137.678 31.1972L132.016 29.5803L129.819 37.2728L127.622 44.9652L133.284 46.5821L135.481 38.8897ZM129.819 37.2728L137.511 39.4697L137.696 38.8235L130.004 36.6266L122.311 34.4297L122.127 35.0759L129.819 37.2728ZM130.004 36.6266L127.807 44.319C128.412 44.492 129.526 44.7887 130.816 44.8337C132.289 44.8851 134.366 44.621 136.361 43.2363C138.199 41.9598 139.103 40.316 139.526 39.4029C139.944 38.5007 140.208 37.6023 140.355 37.0869L132.663 34.8901L124.97 32.6932C124.845 33.1317 124.863 32.991 125.01 32.6728C125.163 32.3439 125.771 31.1105 127.236 30.0934C128.856 28.9681 130.483 28.8123 131.374 28.8434C132.084 28.8682 132.487 29.016 132.2 28.9342L130.004 36.6266ZM132.663 34.8901L140.355 37.0869L143.264 26.9022L135.571 24.7053L127.879 22.5084L124.97 32.6932L132.663 34.8901ZM135.571 24.7053L143.264 26.9022C143.344 26.6227 143.57 25.8644 143.707 25.2238C143.783 24.8664 143.906 24.2196 143.932 23.4372C143.957 22.6801 143.911 21.2934 143.245 19.7455C141.474 15.6332 137.636 14.8368 136.192 14.7049C134.891 14.5859 133.685 14.7728 133.261 14.8357L134.433 22.7494L135.605 30.6631C136.101 30.5896 135.566 30.7143 134.736 30.6384C134.256 30.5946 133.147 30.4448 131.896 29.7582C130.45 28.9642 129.243 27.6854 128.549 26.0738C127.944 24.6682 127.923 23.4579 127.94 22.9151C127.959 22.347 128.044 21.9524 128.058 21.8891C128.069 21.8367 128.072 21.8339 127.879 22.5084L135.571 24.7053ZM134.433 22.7494L142.325 21.4418L142.215 20.7781L134.323 22.0857L126.43 23.3933L126.54 24.057L134.433 22.7494ZM134.323 22.0857L135.552 29.9907L139.173 29.4277L137.945 21.5226L136.716 13.6176L133.094 14.1806L134.323 22.0857ZM137.945 21.5226L130.952 25.4086L131.216 25.8832L138.208 21.9973L145.201 18.1114L144.937 17.6367L137.945 21.5226ZM155.549 44.7629L163.539 44.3662L163.149 36.5121L155.29 36.7671L155.549 44.7629ZM155.583 45.4349L155.836 53.4309L163.977 53.1728L163.573 45.0382L155.583 45.4349ZM151.932 45.5506L144.541 48.6115L146.657 53.7218L152.186 53.5466L151.932 45.5506ZM151.742 45.0906L144.351 42.0287L143.083 45.0901L144.351 48.1516L151.742 45.0906ZM152.783 42.5778L160.174 45.6397L163.236 38.2489L155.845 35.1869L152.783 42.5778ZM152.665 42.5288L155.727 35.1379L151.68 33.4613L148.087 35.9679L152.665 42.5288ZM155.162 27.3877L158.224 19.9969L155.162 27.3877ZM157.635 30.6984L149.831 32.459L150.744 36.5026L154.573 38.0892L157.635 30.6984ZM157.694 30.7229L154.632 38.1137L162.023 41.1757L165.085 33.7848L157.694 30.7229ZM159.579 21.9092L151.589 22.3059L151.979 30.16L159.839 29.905L159.579 21.9092ZM159.546 21.2373L159.292 13.2413L151.152 13.4993L151.556 21.6339L159.546 21.2373ZM163.196 21.1216L170.587 18.0606L168.471 12.9503L162.943 13.1256L163.196 21.1216ZM163.387 21.5815L170.777 24.6434L172.046 21.5821L170.778 18.5205L163.387 21.5815ZM153.297 41.3361L157.955 47.8405L159.813 46.5097L160.688 44.3981L153.297 41.3361ZM154.952 28.4786L151.891 35.8694L154.952 28.4786ZM155.549 44.7629L147.559 45.1596L147.592 45.8316L155.583 45.4349L163.573 45.0382L163.539 44.3662L155.549 44.7629ZM155.583 45.4349L155.329 37.4389L151.679 37.5546L151.932 45.5506L152.186 53.5466L155.836 53.4309L155.583 45.4349ZM151.932 45.5506L159.324 42.4896L159.133 42.0297L151.742 45.0906L144.351 48.1516L144.541 48.6115L151.932 45.5506ZM151.742 45.0906L159.133 48.1526L160.174 45.6397L152.783 42.5778L145.392 39.5158L144.351 42.0287L151.742 45.0906ZM152.783 42.5778L155.845 35.1869L155.727 35.1379L152.665 42.5288L149.603 49.9196L149.721 49.9686L152.783 42.5778ZM152.665 42.5288L148.087 35.9679C147.772 36.1879 147.597 36.2898 147.527 36.3277C147.457 36.365 147.579 36.2905 147.858 36.2107C148.159 36.125 148.622 36.0386 149.198 36.0629C149.786 36.0876 150.313 36.2203 150.737 36.3961L147.675 43.7869L144.613 51.1777C150.336 53.5488 155.055 50.616 157.242 49.0897L152.665 42.5288ZM147.675 43.7869L150.737 36.3961C151.297 36.6279 151.924 37.0779 152.401 37.7496C152.848 38.3795 152.962 38.919 152.988 39.1107C153.012 39.2835 152.972 39.2092 153.042 38.8277C153.11 38.459 153.259 37.9167 153.55 37.215L146.159 34.153L138.768 31.0911C137.531 34.0765 136.644 37.6632 137.134 41.2663C137.679 45.275 140.016 49.273 144.613 51.1777L147.675 43.7869ZM146.159 34.153L153.55 37.215C153.865 36.4544 154.205 35.8198 154.527 35.3357C154.858 34.8368 155.089 34.6177 155.145 34.5714C155.2 34.525 154.908 34.791 154.248 34.9417C153.489 35.1146 152.702 35.0278 152.1 34.7785L155.162 27.3877L158.224 19.9969C152.845 17.7683 147.966 19.7065 144.856 22.3178C141.972 24.7391 140.014 28.0829 138.768 31.0911L146.159 34.153ZM155.162 27.3877L152.1 34.7785C151.141 34.381 150.531 33.7424 150.212 33.2733C149.927 32.853 149.851 32.5457 149.831 32.459L157.635 30.6984L165.439 28.9377C164.875 26.4378 163.108 22.0203 158.224 19.9969L155.162 27.3877ZM157.635 30.6984L154.573 38.0892L154.632 38.1137L157.694 30.7229L160.756 23.332L160.697 23.3075L157.635 30.6984ZM157.694 30.7229L165.085 33.7848L167.865 27.074L160.475 24.012L153.084 20.95L150.303 27.6609L157.694 30.7229ZM160.475 24.012L167.865 27.074C167.981 26.7954 168.292 26.0677 168.502 25.4478C168.618 25.1025 168.814 24.4795 168.93 23.7134C169.042 22.9744 169.162 21.6035 168.694 19.9981C167.437 15.6942 163.721 14.4298 162.263 14.1225C160.974 13.8507 159.745 13.8996 159.32 13.9134L159.579 21.9092L159.839 29.905C160.344 29.8886 159.788 29.9524 158.962 29.7783C158.483 29.6771 157.385 29.3948 156.213 28.5522C154.858 27.578 153.823 26.1536 153.334 24.4809C152.91 23.0257 153.032 21.8352 153.112 21.3111C153.195 20.76 153.323 20.3867 153.342 20.3306C153.356 20.289 153.354 20.2974 153.084 20.95L160.475 24.012ZM159.579 21.9092L167.569 21.5125L167.536 20.8406L159.546 21.2373L151.556 21.6339L151.589 22.3059L159.579 21.9092ZM159.546 21.2373L159.799 29.2332L163.449 29.1175L163.196 21.1216L162.943 13.1256L159.292 13.2413L159.546 21.2373ZM163.196 21.1216L155.805 24.1825L155.995 24.6424L163.387 21.5815L170.778 18.5205L170.587 18.0606L163.196 21.1216ZM163.387 21.5815L155.996 18.5195L147.263 39.5982L154.654 42.6601L162.045 45.7221L170.777 24.6434L163.387 21.5815ZM154.654 42.6601L147.263 39.5982C147.148 39.8768 146.836 40.6044 146.627 41.2243C146.51 41.5696 146.314 42.1926 146.198 42.9587C146.086 43.6978 145.966 45.0686 146.435 46.674C147.691 50.9779 151.408 52.2423 152.865 52.5496C154.154 52.8214 155.384 52.7725 155.809 52.7587L155.549 44.7629L155.29 36.7671C154.784 36.7836 155.34 36.7197 156.166 36.8939C156.646 36.995 157.743 37.2773 158.915 38.1199C160.27 39.0942 161.306 40.5185 161.794 42.1913C162.219 43.6464 162.096 44.837 162.017 45.361C161.933 45.9122 161.805 46.2854 161.786 46.3415C161.772 46.3831 161.774 46.3747 162.045 45.7221L154.654 42.6601ZM153.297 41.3361L160.688 44.3981L163.199 38.3376L155.808 35.2756L148.417 32.2137L145.906 38.2741L153.297 41.3361ZM155.808 35.2756L163.199 38.3376C164.217 35.8793 164.948 32.9073 164.551 29.8612C164.118 26.5458 162.196 22.82 158.014 21.0877L154.952 28.4786L151.891 35.8694C150.927 35.4703 150.074 34.78 149.477 33.9056C148.914 33.0815 148.738 32.3346 148.685 31.931C148.595 31.2375 148.807 31.2721 148.417 32.2137L155.808 35.2756ZM154.952 28.4786L158.014 21.0877C152.322 18.7293 147.671 21.6824 145.397 23.987C143.206 26.2071 141.768 29.035 140.883 31.1705L148.274 34.2324L155.664 37.2944C155.911 36.6996 156.167 36.1847 156.406 35.7822C156.658 35.3579 156.804 35.2066 156.785 35.2258C156.766 35.2451 156.658 35.352 156.451 35.4923C156.241 35.6341 155.892 35.8338 155.406 35.9933C154.905 36.1573 154.303 36.2632 153.637 36.2405C152.968 36.2176 152.374 36.0696 151.891 35.8694L154.952 28.4786ZM148.274 34.2324L140.883 31.1705C139.856 33.6499 138.928 36.7028 138.996 39.7764C139.069 43.0698 140.498 47.8797 145.65 50.0138L148.712 42.6229L151.774 35.2321C152.896 35.697 153.861 36.5669 154.447 37.6354C154.959 38.5685 154.989 39.2931 154.992 39.4222C154.995 39.5684 154.974 39.4512 155.081 39.0099C155.182 38.5909 155.365 38.0161 155.664 37.2944L148.274 34.2324ZM148.712 42.6229L145.65 50.0138C152.157 52.7098 157.391 48.2443 157.955 47.8405L153.297 41.3361L148.64 34.8317C148.254 35.1077 148.103 35.2135 147.983 35.289C147.88 35.3538 147.998 35.2678 148.274 35.1612C148.574 35.0454 149.105 34.8884 149.804 34.8727C150.532 34.8565 151.212 34.9995 151.774 35.2321L148.712 42.6229Z" fill="#60A253" mask="url(#path-1-outside-1_2570_219)"/>
</svg>
